<svg width="25" height="25" viewBox="0 0 25 25" fill="none" xmlns="http://www.w3.org/2000/svg">
<path d="M5.05695 5.46759V21.6497H10.1139H14.1594H19.2163V5.46759C19.2163 4.35045 18.3107 3.44482 17.1935 3.44482H7.07971C5.96257 3.44482 5.05695 4.35045 5.05695 5.46759Z" fill="#0374ED"/>
<path d="M19.2163 21.6497V5.46759C19.2163 4.35045 18.3107 3.44482 17.1935 3.44482H7.07971C5.96257 3.44482 5.05695 4.35045 5.05695 5.46759V21.6497M19.2163 21.6497L21.2391 21.6497M19.2163 21.6497H14.1594M5.05695 21.6497L3.03418 21.6497M5.05695 21.6497H10.1139M9.10248 7.49033H10.1139M9.10248 11.5359H10.1139M14.1594 7.49033H15.1708M14.1594 11.5359H15.1708M10.1139 21.6497V16.5928C10.1139 16.0342 10.5667 15.5814 11.1252 15.5814H13.148C13.7066 15.5814 14.1594 16.0342 14.1594 16.5928V21.6497M10.1139 21.6497H14.1594" stroke="white" stroke-width="2.02277" stroke-linecap="round" stroke-linejoin="round"/>
</svg>
