<svg width="37" height="37" viewBox="0 0 37 37" fill="none" xmlns="http://www.w3.org/2000/svg">
<rect width="37" height="37" rx="18.5" fill="white"/>
<path d="M14.0785 21.1535C14.0785 20.1767 14.8704 19.3848 15.8473 19.3848H21.1535C22.1304 19.3848 22.9223 20.1767 22.9223 21.1535V24.691C22.9223 25.6679 22.1304 26.4598 21.1535 26.4598H15.8473C14.8704 26.4598 14.0785 25.6679 14.0785 24.691V21.1535Z" fill="white"/>
<path d="M14.0785 12.3098C14.0785 11.3329 14.8704 10.541 15.8473 10.541H21.1535C22.1304 10.541 22.9223 11.3329 22.9223 12.3098V15.8473H14.0785V12.3098Z" fill="white"/>
<path d="M22.9223 22.9223H24.691C25.6679 22.9223 26.4598 22.1304 26.4598 21.1535V17.616C26.4598 16.6392 25.6679 15.8473 24.691 15.8473H12.3098C11.3329 15.8473 10.541 16.6392 10.541 17.616V21.1535C10.541 22.1304 11.3329 22.9223 12.3098 22.9223H14.0785M15.8473 26.4598H21.1535C22.1304 26.4598 22.9223 25.6679 22.9223 24.691V21.1535C22.9223 20.1767 22.1304 19.3848 21.1535 19.3848H15.8473C14.8704 19.3848 14.0785 20.1767 14.0785 21.1535V24.691C14.0785 25.6679 14.8704 26.4598 15.8473 26.4598ZM22.9223 15.8473V12.3098C22.9223 11.3329 22.1304 10.541 21.1535 10.541H15.8473C14.8704 10.541 14.0785 11.3329 14.0785 12.3098V15.8473H22.9223Z" stroke="#0374ED" stroke-width="1.76875" stroke-linecap="round" stroke-linejoin="round"/>
</svg>
