<svg width="100" height="100" viewBox="0 0 100 100" fill="none" xmlns="http://www.w3.org/2000/svg">
<path fill-rule="evenodd" clip-rule="evenodd" d="M17.4426 13.7825C12.5962 18.6248 12.5962 26.4238 12.5962 42.0176V58.5583C12.5962 74.1522 12.5962 81.9511 17.4426 86.7934C22.2849 91.6399 30.0839 91.6399 45.6777 91.6399H53.9481C69.5419 91.6399 77.3409 91.6399 82.1832 86.7934C87.0297 81.9511 87.0297 74.1522 87.0297 58.5583V42.0176C87.0297 26.4238 87.0297 18.6248 82.1832 13.7825C77.3409 8.93603 69.5419 8.93604 53.9481 8.93604H45.6777C30.0839 8.93604 22.2849 8.93603 17.4426 13.7825ZM30.1708 33.7472C30.1708 32.9247 30.4975 32.1358 31.0791 31.5542C31.6608 30.9726 32.4496 30.6458 33.2722 30.6458H66.3537C67.1762 30.6458 67.9651 30.9726 68.5467 31.5542C69.1283 32.1358 69.4551 32.9247 69.4551 33.7472C69.4551 34.5697 69.1283 35.3586 68.5467 35.9402C67.9651 36.5218 67.1762 36.8486 66.3537 36.8486H33.2722C32.4496 36.8486 31.6608 36.5218 31.0791 35.9402C30.4975 35.3586 30.1708 34.5697 30.1708 33.7472ZM30.1708 50.288C30.1708 49.4654 30.4975 48.6766 31.0791 48.0949C31.6608 47.5133 32.4496 47.1866 33.2722 47.1866H66.3537C67.1762 47.1866 67.9651 47.5133 68.5467 48.0949C69.1283 48.6766 69.4551 49.4654 69.4551 50.288C69.4551 51.1105 69.1283 51.8994 68.5467 52.481C67.9651 53.0626 67.1762 53.3894 66.3537 53.3894H33.2722C32.4496 53.3894 31.6608 53.0626 31.0791 52.481C30.4975 51.8994 30.1708 51.1105 30.1708 50.288ZM33.2722 63.7273C32.4496 63.7273 31.6608 64.0541 31.0791 64.6357C30.4975 65.2173 30.1708 66.0062 30.1708 66.8287C30.1708 67.6513 30.4975 68.4401 31.0791 69.0218C31.6608 69.6034 32.4496 69.9301 33.2722 69.9301H53.9481C54.7707 69.9301 55.5595 69.6034 56.1411 69.0218C56.7228 68.4401 57.0495 67.6513 57.0495 66.8287C57.0495 66.0062 56.7228 65.2173 56.1411 64.6357C55.5595 64.0541 54.7707 63.7273 53.9481 63.7273H33.2722Z" fill="#DD2025"/>
<rect x="70.3127" y="79" width="18.5312" height="18.5312" rx="9.26562" fill="white"/>
<path d="M78.2495 88.2658L79.1354 89.1517L80.9071 87.38M77.7334 85.0311C78.0512 85.0057 78.3529 84.8808 78.5956 84.674C79.1619 84.1914 79.9948 84.1914 80.5611 84.674C80.8037 84.8808 81.1054 85.0057 81.4233 85.0311C82.1649 85.0903 82.7539 85.6792 82.8131 86.4209C82.8384 86.7387 82.9634 87.0404 83.1702 87.2831C83.6528 87.8494 83.6528 88.6823 83.1702 89.2486C82.9634 89.4912 82.8384 89.7929 82.8131 90.1108C82.7539 90.8524 82.1649 91.4414 81.4233 91.5006C81.1054 91.5259 80.8037 91.6509 80.5611 91.8577C79.9948 92.3403 79.1619 92.3403 78.5956 91.8577C78.3529 91.6509 78.0512 91.5259 77.7334 91.5006C76.9917 91.4414 76.4028 90.8524 76.3436 90.1108C76.3182 89.7929 76.1933 89.4912 75.9865 89.2486C75.5039 88.6823 75.5039 87.8494 75.9865 87.2831C76.1933 87.0404 76.3182 86.7387 76.3436 86.4209C76.4028 85.6792 76.9917 85.0903 77.7334 85.0311Z" stroke="#41EB25" stroke-width="0.88587" stroke-linecap="round" stroke-linejoin="round"/>
</svg>
