<svg width="98" height="98" viewBox="0 0 98 98" fill="none" xmlns="http://www.w3.org/2000/svg">
<path opacity="0.4" d="M33.6875 45.9375C35.312 45.9375 36.8699 45.2922 38.0185 44.1435C39.1672 42.9949 39.8125 41.437 39.8125 39.8125C39.8125 38.188 39.1672 36.6301 38.0185 35.4815C36.8699 34.3328 35.312 33.6875 33.6875 33.6875C32.063 33.6875 30.5051 34.3328 29.3565 35.4815C28.2078 36.6301 27.5625 38.188 27.5625 39.8125C27.5625 41.437 28.2078 42.9949 29.3565 44.1435C30.5051 45.2922 32.063 45.9375 33.6875 45.9375ZM70.4375 39.8125C70.4375 41.437 69.7922 42.9949 68.6435 44.1435C67.4949 45.2922 65.937 45.9375 64.3125 45.9375C62.688 45.9375 61.1301 45.2922 59.9815 44.1435C58.8328 42.9949 58.1875 41.437 58.1875 39.8125C58.1875 38.188 58.8328 36.6301 59.9815 35.4815C61.1301 34.3328 62.688 33.6875 64.3125 33.6875C65.937 33.6875 67.4949 34.3328 68.6435 35.4815C69.7922 36.6301 70.4375 38.188 70.4375 39.8125ZM70.8173 69.7638C70.1864 70.268 69.3819 70.5026 68.5789 70.4165C67.776 70.3305 67.0395 69.9308 66.5298 69.3044L66.5114 69.286C66.246 68.9923 65.966 68.7122 65.6722 68.4469C64.7173 67.5873 63.6767 66.8279 62.5669 66.1806C59.7433 64.5269 55.2965 62.7812 49.0122 62.7812C42.728 62.7812 38.2751 64.5208 35.4392 66.1868C34.3277 66.8344 33.2851 67.5937 32.3278 68.453C32.032 68.7182 31.7499 68.9983 31.4825 69.2921L31.4641 69.3105C31.2108 69.623 30.8983 69.8825 30.5447 70.0743C30.191 70.266 29.803 70.3862 29.4029 70.428C29.0028 70.4698 28.5983 70.4324 28.2127 70.3179C27.827 70.2034 27.4677 70.0141 27.1552 69.7607C26.8427 69.5073 26.5832 69.1949 26.3914 68.8412C26.1997 68.4875 26.0795 68.0996 26.0377 67.6995C25.9959 67.2993 26.0333 66.8949 26.1478 66.5092C26.2623 66.1236 26.4516 65.7642 26.705 65.4518L29.0938 67.375L26.705 65.4579V65.4518L26.7173 65.4456L26.7295 65.4334L26.7601 65.3966L26.8459 65.2864L27.146 64.9556C27.391 64.6922 27.7463 64.3309 28.2118 63.9144C29.1427 63.0691 30.5086 61.9789 32.34 60.907C36.015 58.7449 41.5275 56.6562 49.0122 56.6562C56.4909 56.6562 61.9972 58.7388 65.6722 60.907C67.5098 61.985 68.8695 63.0691 69.7944 63.9082C70.2725 64.3446 70.7264 64.8067 71.1541 65.2925L71.246 65.3966L71.2766 65.4334L71.2889 65.4518C71.2889 65.4518 71.295 65.464 68.9062 67.375L71.295 65.464C71.801 66.0979 72.0348 66.9066 71.9452 67.7127C71.8557 68.5187 71.45 69.2564 70.8173 69.7638ZM49 0C36.0044 0 23.541 5.16249 14.3518 14.3518C5.16249 23.541 0 36.0044 0 49C0 61.9956 5.16249 74.4589 14.3518 83.6482C23.541 92.8375 36.0044 98 49 98C61.9956 98 74.4589 92.8375 83.6482 83.6482C92.8375 74.4589 98 61.9956 98 49C98 36.0044 92.8375 23.541 83.6482 14.3518C74.4589 5.16249 61.9956 0 49 0ZM6.125 49C6.125 43.3696 7.23399 37.7943 9.38867 32.5924C11.5433 27.3906 14.7015 22.6641 18.6828 18.6828C22.6641 14.7015 27.3906 11.5433 32.5924 9.38866C37.7943 7.23399 43.3696 6.125 49 6.125C54.6304 6.125 60.2057 7.23399 65.4076 9.38866C70.6094 11.5433 75.3359 14.7015 79.3172 18.6828C83.2985 22.6641 86.4567 27.3906 88.6113 32.5924C90.766 37.7943 91.875 43.3696 91.875 49C91.875 60.3712 87.3578 71.2766 79.3172 79.3172C71.2766 87.3578 60.3712 91.875 49 91.875C37.6288 91.875 26.7234 87.3578 18.6828 79.3172C10.6422 71.2766 6.125 60.3712 6.125 49Z" fill="#101012"/>
</svg>
