<svg width="26" height="26" viewBox="0 0 26 26" fill="none" xmlns="http://www.w3.org/2000/svg">
<rect x="7.82373" y="9.08789" width="11.3306" height="9.13" fill="white"/>
<path d="M9.0968 14.1915L12.0242 17.1189L16.9031 10.2884M24.7094 13.2158C24.7094 14.8655 23.8897 16.3253 22.6368 17.2074C22.7718 17.9786 22.7189 18.771 22.4827 19.5174C22.2465 20.2639 21.8339 20.9424 21.2798 21.4956C20.7266 22.0497 20.0481 22.4623 19.3016 22.6985C18.5552 22.9347 17.7628 22.9876 16.9915 22.8526C16.5417 23.4933 15.944 24.0162 15.2492 24.377C14.5544 24.7378 13.7828 24.9258 12.9999 24.9252C11.3502 24.9252 9.89044 24.1055 9.00833 22.8526C8.23711 22.9875 7.44475 22.9346 6.69831 22.6984C5.95187 22.4622 5.27331 22.0496 4.72009 21.4956C4.166 20.9424 3.75338 20.2639 3.51717 19.5174C3.28095 18.771 3.2281 17.9786 3.36309 17.2074C2.72236 16.7575 2.19947 16.1598 1.83869 15.465C1.47792 14.7702 1.28989 13.9987 1.29053 13.2158C1.29053 11.566 2.11019 10.1063 3.36309 9.22415C3.2281 8.45293 3.28095 7.66054 3.51717 6.91408C3.75338 6.16762 4.166 5.48907 4.72009 4.93591C5.27331 4.38191 5.95187 3.96935 6.69831 3.73314C7.44475 3.49694 8.23711 3.44403 9.00833 3.57891C9.45829 2.93826 10.056 2.41542 10.7508 2.05466C11.4456 1.6939 12.2171 1.50582 12.9999 1.50635C14.6497 1.50635 16.1094 2.32601 16.9915 3.57891C17.7628 3.44403 18.5551 3.49694 19.3016 3.73314C20.048 3.96935 20.7266 4.38191 21.2798 4.93591C21.8338 5.48913 22.2463 6.16769 22.4826 6.91413C22.7188 7.66057 22.7717 8.45293 22.6368 9.22415C23.2775 9.67403 23.8004 10.2717 24.1612 10.9665C24.522 11.6613 24.71 12.4329 24.7094 13.2158Z" fill="white"/>
<path d="M9.0968 14.1915L12.0242 17.1189L16.9031 10.2884M24.7094 13.2158C24.7094 14.8655 23.8897 16.3253 22.6368 17.2074C22.7718 17.9786 22.7189 18.771 22.4827 19.5174C22.2465 20.2639 21.8339 20.9424 21.2798 21.4956C20.7266 22.0497 20.0481 22.4623 19.3016 22.6985C18.5552 22.9347 17.7628 22.9876 16.9915 22.8526C16.5417 23.4933 15.944 24.0162 15.2492 24.377C14.5544 24.7378 13.7828 24.9258 12.9999 24.9252C11.3502 24.9252 9.89044 24.1055 9.00833 22.8526C8.23711 22.9875 7.44475 22.9346 6.69831 22.6984C5.95187 22.4622 5.27331 22.0496 4.72009 21.4956C4.166 20.9424 3.75338 20.2639 3.51717 19.5174C3.28095 18.771 3.2281 17.9786 3.36309 17.2074C2.72236 16.7575 2.19947 16.1598 1.83869 15.465C1.47792 14.7702 1.28989 13.9987 1.29053 13.2158C1.29053 11.566 2.11019 10.1063 3.36309 9.22415C3.2281 8.45293 3.28095 7.66054 3.51717 6.91408C3.75338 6.16762 4.166 5.48907 4.72009 4.93591C5.27331 4.38191 5.95187 3.96935 6.69831 3.73315C7.44475 3.49694 8.23711 3.44403 9.00833 3.57891C9.45829 2.93826 10.056 2.41542 10.7508 2.05466C11.4456 1.6939 12.2171 1.50582 12.9999 1.50635C14.6497 1.50635 16.1094 2.32601 16.9915 3.57891C17.7628 3.44403 18.5551 3.49694 19.3016 3.73315C20.048 3.96935 20.7266 4.38191 21.2798 4.93591C21.8338 5.48913 22.2463 6.16768 22.4826 6.91413C22.7188 7.66057 22.7717 8.45293 22.6368 9.22415C23.2775 9.67403 23.8004 10.2717 24.1612 10.9665C24.522 11.6613 24.71 12.4329 24.7094 13.2158V13.2158Z" stroke="#0374ED" stroke-width="2.03986" stroke-linecap="round" stroke-linejoin="round"/>
</svg>
