<?xml version="1.0" encoding="UTF-8" standalone="no"?>
<svg
   version="1.2"
   width="102.2999mm"
   height="211.12mm"
   viewBox="0 0 10229.99 21112"
   preserveAspectRatio="xMidYMid"
   fill-rule="evenodd"
   stroke-width="28.222"
   stroke-linejoin="round"
   xml:space="preserve"
   id="svg724"
   sodipodi:docname="4.svg"
   inkscape:version="1.2.2 (732a01da63, 2022-12-09, custom)"
   xmlns:inkscape="http://www.inkscape.org/namespaces/inkscape"
   xmlns:sodipodi="http://sodipodi.sourceforge.net/DTD/sodipodi-0.dtd"
   xmlns="http://www.w3.org/2000/svg"
   xmlns:svg="http://www.w3.org/2000/svg"
   xmlns:ooo="http://xml.openoffice.org/svg/export"><sodipodi:namedview
   id="namedview726"
   pagecolor="#ffffff"
   bordercolor="#000000"
   borderopacity="0.25"
   inkscape:showpageshadow="2"
   inkscape:pageopacity="0.0"
   inkscape:pagecheckerboard="0"
   inkscape:deskcolor="#d1d1d1"
   inkscape:document-units="mm"
   showgrid="false"
   inkscape:zoom="1.0187849"
   inkscape:cx="193.3676"
   inkscape:cy="456.91685"
   inkscape:window-width="1846"
   inkscape:window-height="1016"
   inkscape:window-x="0"
   inkscape:window-y="0"
   inkscape:window-maximized="1"
   inkscape:current-layer="svg724" />
 <defs
   class="ClipPathGroup"
   id="defs204">
  <clipPath
   id="presentation_clip_path"
   clipPathUnits="userSpaceOnUse">
   <rect
   x="0"
   y="0"
   width="10232"
   height="21114"
   id="rect198" />
  </clipPath>
  <clipPath
   id="presentation_clip_path_shrink"
   clipPathUnits="userSpaceOnUse">
   <rect
   x="10"
   y="21"
   width="10212"
   height="21072"
   id="rect201" />
  </clipPath>
 </defs>
 <defs
   class="TextShapeIndex"
   id="defs208">
  <g
   ooo:slide="id1"
   ooo:id-list="id3 id4 id5 id6 id7 id8 id9 id10 id11 id12 id13 id14 id15 id16 id17 id18 id19 id20 id21 id22 id23 id24 id25 id26 id27 id28 id29 id30 id31 id32 id33 id34 id35 id36 id37 id38 id39 id40 id41 id42 id43 id44 id45 id46 id47 id48 id49 id50 id51 id52 id53 id54 id55 id56 id57 id58 id59 id60 id61 id62 id63 id64 id65 id66 id67 id68 id69"
   id="g206" />
 </defs>
 <defs
   class="EmbeddedBulletChars"
   id="defs240">
  <g
   id="bullet-char-template-57356"
   transform="matrix(4.8828125e-4,0,0,-4.8828125e-4,0,0)">
   <path
   d="M 580,1141 1163,571 580,0 -4,571 Z"
   id="path210" />
  </g>
  <g
   id="bullet-char-template-57354"
   transform="matrix(4.8828125e-4,0,0,-4.8828125e-4,0,0)">
   <path
   d="M 8,1128 H 1137 V 0 H 8 Z"
   id="path213" />
  </g>
  <g
   id="bullet-char-template-10146"
   transform="matrix(4.8828125e-4,0,0,-4.8828125e-4,0,0)">
   <path
   d="M 174,0 602,739 174,1481 1456,739 Z M 1358,739 309,1346 659,739 Z"
   id="path216" />
  </g>
  <g
   id="bullet-char-template-10132"
   transform="matrix(4.8828125e-4,0,0,-4.8828125e-4,0,0)">
   <path
   d="M 2015,739 1276,0 H 717 l 543,543 H 174 v 393 h 1086 l -543,545 h 557 z"
   id="path219" />
  </g>
  <g
   id="bullet-char-template-10007"
   transform="matrix(4.8828125e-4,0,0,-4.8828125e-4,0,0)">
   <path
   d="m 0,-2 c -7,16 -16,29 -25,39 l 381,530 c -94,256 -141,385 -141,387 0,25 13,38 40,38 9,0 21,-2 34,-5 21,4 42,12 65,25 l 27,-13 111,-251 280,301 64,-25 24,25 c 21,-10 41,-24 62,-43 C 886,937 835,863 770,784 769,783 710,716 594,584 L 774,223 c 0,-27 -21,-55 -63,-84 l 16,-20 C 717,90 699,76 672,76 641,76 570,178 457,381 L 164,-76 c -22,-34 -53,-51 -92,-51 -42,0 -63,17 -64,51 -7,9 -10,24 -10,44 0,9 1,19 2,30 z"
   id="path222" />
  </g>
  <g
   id="bullet-char-template-10004"
   transform="matrix(4.8828125e-4,0,0,-4.8828125e-4,0,0)">
   <path
   d="M 285,-33 C 182,-33 111,30 74,156 52,228 41,333 41,471 c 0,78 14,145 41,201 34,71 87,106 158,106 53,0 88,-31 106,-94 l 23,-176 c 8,-64 28,-97 59,-98 l 735,706 c 11,11 33,17 66,17 42,0 63,-15 63,-46 V 965 c 0,-36 -10,-64 -30,-84 L 442,47 C 390,-6 338,-33 285,-33 Z"
   id="path225" />
  </g>
  <g
   id="bullet-char-template-9679"
   transform="matrix(4.8828125e-4,0,0,-4.8828125e-4,0,0)">
   <path
   d="M 813,0 C 632,0 489,54 383,161 276,268 223,411 223,592 c 0,181 53,324 160,431 106,107 249,161 430,161 179,0 323,-54 432,-161 108,-107 162,-251 162,-431 0,-180 -54,-324 -162,-431 C 1136,54 992,0 813,0 Z"
   id="path228" />
  </g>
  <g
   id="bullet-char-template-8226"
   transform="matrix(4.8828125e-4,0,0,-4.8828125e-4,0,0)">
   <path
   d="m 346,457 c -73,0 -137,26 -191,78 -54,51 -81,114 -81,188 0,73 27,136 81,188 54,52 118,78 191,78 73,0 134,-26 185,-79 51,-51 77,-114 77,-187 0,-75 -25,-137 -76,-188 -50,-52 -112,-78 -186,-78 z"
   id="path231" />
  </g>
  <g
   id="bullet-char-template-8211"
   transform="matrix(4.8828125e-4,0,0,-4.8828125e-4,0,0)">
   <path
   d="M -4,459 H 1135 V 606 H -4 Z"
   id="path234" />
  </g>
  <g
   id="bullet-char-template-61548"
   transform="matrix(4.8828125e-4,0,0,-4.8828125e-4,0,0)">
   <path
   d="m 173,740 c 0,163 58,303 173,419 116,115 255,173 419,173 163,0 302,-58 418,-173 116,-116 174,-256 174,-419 0,-163 -58,-303 -174,-418 C 1067,206 928,148 765,148 601,148 462,206 346,322 231,437 173,577 173,740 Z"
   id="path237" />
  </g>
 </defs>
 
 <g
   inkscape:groupmode="layer"
   id="layer1"
   inkscape:label="Layer 1"><path
     fill="#000000"
     stroke="none"
     d="m 6178,20979 c -228,-199 -280,-219 -571,-218 -138,0 -383,15 -544,33 -272,31 -299,29 -380,-16 -225,-127 -217,-125 -338,-93 -63,17 -207,84 -320,150 -113,66 -267,143 -343,172 -267,101 -741,94 -965,-14 -47,-22 -131,-105 -187,-183 -56,-78 -147,-186 -202,-240 l -100,-98 32,-136 c 17,-75 46,-164 65,-198 52,-97 108,-302 108,-399 0,-49 11,-132 25,-185 40,-156 86,-503 98,-747 l 12,-227 -276,-553 c -152,-304 -298,-612 -324,-685 -51,-138 -65,-162 -163,-268 -95,-105 -272,-805 -288,-1143 -7,-150 -31,-322 -52,-382 -31,-88 -81,-754 -66,-879 27,-227 29,-573 5,-715 -26,-148 -22,-244 24,-617 30,-242 61,-477 68,-520 17,-106 51,-392 103,-860 23,-211 55,-473 72,-582 16,-109 35,-413 40,-675 10,-439 7,-485 -44,-601 -31,-69 -69,-126 -85,-126 -100,0 -432,302 -547,496 -71,120 -247,248 -286,209 -12,-12 -20,-98 -18,-191 3,-157 -1,-170 -53,-169 -35,0 -81,35 -120,92 -57,85 -137,163 -329,323 -39,33 -107,60 -150,60 -76,0 -79,-6 -79,-113 1,-164 70,-432 152,-582 92,-169 624,-736 880,-938 110,-86 220,-188 245,-226 25,-38 88,-228 140,-421 53,-193 108,-376 123,-405 15,-29 95,-124 178,-211 125,-133 155,-184 183,-311 43,-194 240,-499 422,-651 128,-107 142,-131 216,-370 43,-141 103,-363 134,-494 30,-131 74,-300 97,-375 42,-137 42,-139 -32,-304 l -75,-167 38,-226 c 26,-151 31,-260 16,-331 -13,-58 -18,-182 -12,-277 13,-196 80,-347 235,-530 62,-74 127,-197 167,-314 79,-232 144,-342 247,-418 43,-32 150,-124 238,-206 181,-167 205,-223 349,-807 91,-366 162,-541 321,-786 92,-142 109,-191 126,-370 25,-261 3,-382 -115,-615 -51,-102 -94,-192 -94,-200 0,-28 138,-13 207,23 40,21 125,46 191,55 112,17 121,14 166,-63 46,-79 55,-82 230,-82 h 180 l 31,93 c 44,133 110,121 209,-40 45,-72 97,-132 117,-132 41,0 224,127 279,194 33,40 41,39 112,-11 42,-30 117,-61 167,-69 96,-15 161,29 256,176 l 42,65 186,-45 c 103,-25 194,-45 203,-45 34,0 11,76 -101,322 -123,273 -190,571 -161,715 10,48 57,152 105,233 108,181 133,259 197,614 62,347 106,437 377,775 131,162 254,351 319,489 58,124 162,302 232,397 218,297 275,442 315,807 19,169 53,300 118,453 51,118 164,469 252,780 268,946 268,943 442,1163 175,221 480,731 564,943 85,217 156,530 176,775 10,124 45,332 79,463 69,275 133,598 159,806 10,80 21,1025 25,2103 7,1989 16,2241 131,3440 20,218 45,552 54,741 9,190 38,504 66,701 27,196 56,494 65,661 9,167 30,419 46,559 54,478 -40,989 -248,1340 -118,200 -478,557 -657,652 -80,42 -149,79 -153,83 -5,4 16,86 46,184 30,98 55,209 55,247 -1,112 -90,230 -225,295 -106,52 -152,58 -317,46 -207,-16 -350,-75 -579,-240 -149,-106 -121,-111 -586,91 l -264,115 -344,2 c -257,1 -373,13 -460,47 -63,25 -124,45 -134,45 -11,0 -88,-60 -171,-133 z"
     id="path249" /><path
     fill="#fff5ce"
     stroke="none"
     d="m 5578,3177 c -62,32 -154,52 -242,52 -238,0 -434,-165 -574,-482 -46,-104 -54,-169 -48,-397 3,-150 -4,-353 -17,-451 -21,-169 -19,-184 41,-248 35,-37 170,-122 301,-188 131,-65 273,-144 315,-173 l 76,-54 69,82 c 38,46 141,123 228,171 233,130 280,214 275,495 -3,124 9,260 26,301 49,122 35,201 -77,432 -123,255 -231,388 -373,460 z m 313,508 c 80,209 71,231 -117,296 -156,54 -411,73 -541,40 -55,-14 -158,-55 -229,-91 -107,-54 -138,-87 -175,-184 -52,-136 -39,-256 46,-424 29,-59 57,-112 61,-116 4,-5 93,18 198,50 156,47 233,56 413,44 l 221,-13 28,109 c 15,60 58,190 95,289 z M 729,10138 c -187,123 -269,199 -383,352 -80,108 -162,203 -183,211 -66,28 -14,-188 86,-356 79,-133 87,-161 54,-187 -32,-28 -31,-43 12,-109 95,-152 540,-606 644,-659 204,-104 615,-474 901,-812 157,-185 318,-352 357,-373 39,-21 151,-43 248,-50 176,-13 178,-12 219,69 23,44 60,155 81,245 36,156 35,169 -15,240 -75,105 -768,630 -1031,782 -129,73 -235,154 -253,192 -18,37 -58,122 -89,190 -37,83 -101,158 -193,228 -107,80 -158,146 -229,293 -50,104 -102,189 -116,189 -43,0 5,-275 76,-436 37,-84 64,-156 60,-159 -4,-4 -115,64 -246,150 z m 7571,-1063 -59,172 -198,5 c -236,5 -353,-25 -410,-105 l -41,-59 179,-13 179,-13 -180,-63 c -135,-46 -178,-73 -171,-105 6,-33 46,-47 158,-57 197,-18 218,-46 51,-68 -142,-19 -204,-64 -179,-130 11,-30 59,-41 181,-42 163,-3 165,-3 87,-39 -43,-20 -105,-37 -137,-38 -71,-1 -96,-37 -74,-107 15,-48 40,-52 329,-52 261,0 316,6 329,41 40,104 14,503 -44,673 z m 51,-808 c -8,23 -28,42 -44,42 -43,0 -63,-79 -30,-113 40,-40 96,14 74,71 z m -537,-71 c 25,47 35,86 22,86 -41,0 -88,-75 -77,-124 8,-38 19,-30 55,38 z"
     id="path256" /><path
     fill="#7b3d00"
     stroke="none"
     d="m 3755,20614 142,-127 -117,-47 c -313,-125 -573,-104 -775,63 -69,57 -167,129 -218,161 -56,34 -89,74 -85,100 12,60 201,105 446,108 163,1 225,-10 332,-64 73,-36 196,-123 275,-194 z"
     id="path263"
     inkscape:label="path263" /><path
     fill="#cccccc"
     stroke="none"
     d="m 6575,20075 c 48,-383 112,-869 142,-1080 30,-211 91,-686 135,-1057 45,-371 98,-749 119,-841 21,-91 91,-600 157,-1129 66,-530 172,-1366 237,-1858 64,-492 136,-1067 159,-1278 24,-211 83,-681 132,-1045 49,-364 97,-729 106,-810 l 17,-149 -114,-95 c -76,-63 -119,-84 -129,-63 -30,57 -101,476 -130,760 -15,152 -75,693 -133,1203 -57,509 -123,1099 -146,1310 -23,211 -58,527 -79,701 -109,905 -175,1496 -211,1869 -21,227 -56,496 -78,597 -21,101 -51,313 -67,473 -16,159 -63,587 -105,950 -42,363 -84,738 -94,833 -9,94 -39,362 -67,595 -70,596 -90,913 -59,913 14,0 47,-23 72,-52 37,-40 67,-206 136,-747 z"
     id="path270" /><path
     fill="#7b3d00"
     stroke="none"
     d="m 9034,20751 55,-35 -65,-198 c -36,-109 -75,-192 -86,-185 -12,7 -81,-20 -154,-60 l -133,-74 -166,87 c -92,47 -195,108 -231,135 l -64,50 89,112 c 192,243 377,314 611,234 49,-17 114,-47 144,-66 z"
     id="path277" /><path
     fill="#000000"
     stroke="none"
     d="m 5774,18559 c 0,-87 5,-120 11,-72 6,47 6,119 0,158 -6,40 -11,1 -11,-86 z"
     id="path284" /><path
     fill="#000000"
     stroke="none"
     d="m 5744,18136 c 1,-44 7,-59 14,-33 6,26 6,61 -1,79 -8,18 -13,-3 -13,-46 z"
     id="path291" /><path
     fill="#000000"
     stroke="none"
     d="m 5721,17831 c 0,-80 5,-112 11,-72 6,40 6,105 0,145 -6,40 -11,7 -11,-73 z"
     id="path298" /><path
     fill="#000000"
     stroke="none"
     d="m 5692,17593 c 0,-51 6,-72 13,-46 6,25 6,67 0,92 -7,26 -13,5 -13,-46 z"
     id="path305" /><path
     fill="#ffbf00"
     stroke="none"
     d="m 9843,19412 c 113,-220 163,-532 161,-1012 -2,-909 -126,-1179 -1046,-2285 -253,-304 -687,-725 -822,-796 l -108,-58 79,71 c 44,39 170,153 282,253 111,100 306,307 432,461 300,365 775,1049 845,1216 30,73 63,137 74,141 33,15 151,419 193,659 49,281 49,475 0,817 -44,307 -113,512 -230,676 l -82,115 85,-79 c 47,-44 109,-124 137,-179 z"
     id="path312" /><path
     fill="#ffbf00"
     stroke="none"
     d="m 2512,16483 c -28,-756 -27,-908 10,-1257 99,-933 130,-1634 106,-2381 -33,-1026 -36,-975 106,-1435 178,-575 228,-838 228,-1195 l 1,-303 -60,55 c -33,30 -205,127 -383,214 -177,87 -358,184 -401,214 -92,66 -129,69 -189,15 -42,-37 -46,-31 -61,86 -8,70 -23,341 -31,603 -18,513 -63,948 -146,1389 -102,551 -132,935 -132,1741 0,753 13,927 109,1540 29,185 225,918 314,1176 30,86 89,229 131,317 42,88 124,261 182,385 59,124 134,260 168,304 l 62,79 9,-344 c 5,-189 -5,-730 -23,-1203 z"
     id="path319" /><path
     fill="#ffbf00"
     stroke="none"
     d="m 9916,16952 c 2,-98 -26,-420 -62,-714 -143,-1164 -178,-2073 -171,-4345 7,-1917 6,-1932 -160,-2633 -43,-182 -104,-473 -135,-648 -46,-261 -80,-370 -195,-611 -311,-655 -498,-939 -888,-1347 -98,-102 -209,-248 -249,-326 -79,-157 -125,-269 -109,-269 5,0 76,92 157,205 178,249 301,392 320,372 29,-28 -473,-1595 -622,-1942 l -54,-126 -107,104 c -160,155 -164,170 -75,304 123,185 96,282 -125,449 -137,104 -141,105 -141,42 0,-51 -23,-73 -112,-108 -155,-62 -273,-183 -312,-320 -30,-109 -28,-185 16,-621 14,-129 8,-154 -49,-215 -46,-50 -103,-75 -202,-89 -130,-17 -153,-11 -368,101 -126,65 -321,145 -432,178 l -203,59 -33,119 c -29,103 -28,123 8,150 23,16 401,375 840,796 725,695 1224,1227 1834,1954 183,218 204,258 290,532 109,348 128,602 122,1597 -6,853 -10,924 -59,1023 -68,137 -161,843 -228,1733 -28,371 -70,817 -93,992 -55,421 -146,1417 -146,1601 v 147 l 245,267 c 134,146 283,299 330,338 152,127 665,802 861,1130 25,43 75,109 110,147 35,38 85,116 111,175 46,100 49,103 66,42 10,-35 19,-144 20,-243 z"
     id="path326" /><path
     fill="#ffbf00"
     stroke="none"
     d="m 8014,14839 c 0,-68 12,-181 25,-252 14,-71 50,-397 81,-724 70,-743 165,-1542 266,-2259 83,-586 96,-773 51,-705 -61,94 -135,525 -185,1085 -36,405 -93,888 -182,1548 -124,910 -189,1673 -140,1643 16,-10 42,-62 57,-116 15,-54 27,-153 27,-220 z"
     id="path333" /><path
     fill="#cccccc"
     stroke="none"
     d="m 7369,10670 c -6,-7 -59,-18 -116,-26 -123,-17 -217,26 -217,99 0,68 80,67 98,-1 16,-61 36,-66 81,-21 48,47 39,121 -19,152 -127,68 -240,-6 -240,-157 0,-108 67,-189 194,-237 167,-63 268,-32 651,205 166,103 222,124 358,132 145,9 171,3 245,-59 98,-83 201,-331 176,-427 -27,-110 -181,-223 -304,-223 -149,0 -262,111 -262,259 0,123 48,173 165,173 90,0 179,-85 179,-171 0,-48 -4,-49 -78,-11 -102,53 -133,51 -133,-7 0,-125 174,-153 262,-41 96,121 63,268 -77,340 -138,71 -241,51 -460,-92 -417,-273 -556,-300 -801,-160 -203,117 -255,195 -241,364 22,264 242,383 418,225 74,-65 156,-281 121,-316 z"
     id="path340" /><path
     fill="#706e0c"
     stroke="none"
     d="m 7872,10140 c -23,-23 -179,80 -224,148 -41,61 -40,62 23,44 36,-10 99,-55 140,-99 41,-43 69,-86 61,-93 z"
     id="path347" /><path
     fill="#706e0c"
     stroke="none"
     d="m 7790,10013 c -53,44 -65,66 -37,66 23,1 69,-28 104,-65 79,-85 37,-85 -67,-1 z"
     id="path354" /><path
     fill="#ffbf00"
     stroke="none"
     d="m 8614,9167 c -10,-587 -20,-718 -68,-899 -66,-254 -209,-551 -421,-873 -220,-337 -861,-1032 -1463,-1588 -282,-260 -623,-589 -757,-730 -245,-257 -366,-341 -493,-341 -38,0 -69,-12 -69,-27 0,-14 24,-26 53,-26 55,0 159,-86 159,-132 0,-15 -53,-27 -119,-27 -101,0 -119,-8 -119,-53 0,-66 -32,-67 -90,-2 -51,56 -41,67 83,94 152,32 134,75 -23,54 l -142,-20 64,52 65,53 -97,18 c -53,10 -132,47 -174,84 -78,65 -331,404 -453,607 -168,280 -568,810 -719,955 -190,182 -313,251 -745,418 -482,186 -722,321 -787,443 -34,64 -27,60 161,-72 177,-126 323,-193 516,-237 743,-173 1071,-442 1597,-1317 290,-481 440,-692 517,-727 39,-18 142,-32 230,-32 h 159 l 476,456 c 262,251 552,525 645,610 93,84 303,303 467,486 993,1104 986,1095 1234,1583 198,392 221,524 213,1270 -8,743 -8,749 32,797 33,39 39,31 58,-72 12,-64 17,-426 10,-805 z"
     id="path361" /><path
     fill="#706e0c"
     stroke="none"
     d="m 7931,9724 c -13,-13 -287,164 -287,185 0,23 55,13 127,-24 79,-41 179,-142 160,-161 z"
     id="path368" /><path
     fill="#706e0c"
     stroke="none"
     d="m 7907,9565 c 30,-36 25,-37 -46,-13 -44,15 -100,51 -126,79 -55,61 -36,65 64,13 41,-20 89,-56 108,-79 z"
     id="path375" /><path
     fill="#706e0c"
     stroke="none"
     d="m 7816,9418 c 0,-56 -77,-48 -88,10 -7,35 4,46 39,39 27,-5 49,-27 49,-49 z"
     id="path382" /><path
     fill="#706e0c"
     stroke="none"
     d="m 8012,8014 c -102,-54 -167,66 -102,189 26,48 31,49 112,8 47,-24 89,-47 94,-51 19,-17 -53,-119 -104,-146 z"
     id="path389" /><path
     fill="#ffbf00"
     stroke="none"
     d="m 4342,5611 c 298,-477 465,-705 614,-842 99,-92 117,-125 131,-243 14,-115 9,-139 -29,-150 -109,-32 -327,-154 -426,-239 l -109,-93 v 142 c 0,280 -294,691 -628,881 -103,58 -205,135 -227,172 -38,64 -46,65 -234,49 -106,-9 -219,-25 -249,-35 -50,-17 -61,0 -114,175 -33,107 -99,325 -149,485 -191,618 -277,909 -277,938 0,37 96,15 304,-71 684,-281 1004,-550 1393,-1169 z"
     id="path396" /><path
     fill="#b85c00"
     stroke="none"
     d="m 7379,5354 c 0,-47 -120,-201 -225,-286 -151,-124 -177,-174 -199,-385 -17,-160 -18,-153 -22,107 l -3,279 112,108 c 146,141 337,241 337,177 z"
     id="path403" /><path
     fill="#b85c00"
     stroke="none"
     d="m 7351,4999 c 72,37 115,84 150,166 46,110 48,111 58,39 14,-110 -47,-181 -231,-269 l -165,-79 15,-186 c 9,-102 23,-245 31,-318 12,-105 2,-156 -46,-250 -85,-162 -152,-203 -471,-281 -431,-106 -567,-216 -647,-526 -55,-209 -52,-346 11,-547 28,-91 48,-170 43,-174 -4,-5 -47,76 -94,180 -109,236 -131,447 -70,684 89,345 211,457 584,532 271,54 336,79 431,165 57,53 59,53 61,4 1,-42 7,-39 29,15 17,41 20,150 8,291 -34,386 -36,380 186,612 109,114 200,222 202,241 2,18 9,-2 16,-45 10,-66 -8,-97 -108,-192 -136,-128 -135,-134 7,-62 z"
     id="path410" /><path
     fill="#b85c00"
     stroke="none"
     d="m 3661,5052 c 11,-64 54,-131 135,-211 125,-122 181,-254 155,-368 -8,-37 -64,-168 -125,-290 -155,-313 -151,-400 31,-682 143,-222 235,-328 199,-231 -10,28 -67,128 -126,222 -90,145 -107,194 -106,307 1,119 20,165 161,384 88,137 168,271 178,299 32,88 44,29 20,-99 -22,-115 -49,-164 -229,-412 -76,-104 -84,-224 -26,-364 50,-118 75,-105 39,19 -48,169 -32,250 77,388 153,194 196,293 199,462 2,101 11,142 29,125 43,-43 29,-369 -23,-522 -27,-77 -41,-147 -33,-156 30,-30 117,218 137,390 19,161 22,166 41,79 22,-105 9,-206 -45,-351 -85,-227 -3,-456 218,-608 261,-181 296,-346 121,-578 -131,-173 -139,-249 -56,-495 52,-156 53,-171 13,-288 -59,-172 -53,-242 30,-406 66,-127 90,-149 233,-210 88,-37 207,-96 264,-132 l 105,-65 -92,-15 c -74,-12 -105,-3 -149,43 -31,32 -123,96 -205,142 -163,92 -272,205 -298,309 -9,37 -7,158 5,269 38,355 27,442 -80,596 -56,82 -89,156 -80,180 9,23 65,80 124,128 102,83 106,91 95,211 -14,146 -95,274 -213,334 -81,42 -81,41 28,-83 162,-184 163,-322 5,-466 -88,-80 -105,-113 -105,-198 v -101 l -44,61 c -40,58 -39,74 17,255 l 61,193 -70,119 c -72,124 -226,293 -247,273 -7,-7 42,-85 109,-176 83,-112 121,-190 121,-247 0,-80 -79,-309 -106,-307 -25,2 -185,298 -185,342 0,24 -16,65 -35,92 -30,40 -45,43 -93,17 -52,-27 -72,-17 -191,103 -155,155 -284,409 -307,605 -9,75 -2,226 16,336 l 32,200 -85,162 c -59,114 -84,197 -82,276 2,113 57,254 111,288 51,31 57,-7 14,-90 -65,-125 -50,-218 65,-408 141,-234 152,-301 80,-498 -32,-88 -54,-165 -48,-171 6,-6 39,40 74,101 45,80 64,155 64,258 1,126 -13,167 -101,300 -63,96 -106,196 -114,264 -11,104 -10,107 29,59 23,-28 42,-62 42,-74 0,-37 162,-263 177,-248 8,8 -23,80 -68,160 -97,172 -102,222 -28,316 64,81 95,88 113,23 7,-25 20,-88 28,-140 z"
     id="path417" /><path
     fill="#b85c00"
     stroke="none"
     d="m 3671,4425 c 7,-140 -3,-207 -48,-311 -142,-329 -122,-528 71,-725 131,-134 127,-102 -10,66 -128,159 -132,224 -35,600 73,288 80,342 54,439 -16,60 -32,110 -36,110 -3,0 -2,-81 4,-179 z"
     id="path424" /><path
     fill="#000000"
     stroke="none"
     d="m 4154,3610 c 0,-15 16,-51 38,-79 21,-29 40,-39 40,-24 1,16 -17,51 -38,80 -22,28 -39,39 -40,23 z"
     id="path431" /><path
     fill="#b85c00"
     stroke="none"
     d="m 3071,4893 c 48,-111 54,-159 38,-323 -10,-107 -27,-209 -39,-228 -38,-61 -57,91 -39,308 13,159 8,228 -26,307 -49,118 -54,176 -16,176 15,0 26,-25 26,-55 0,-30 26,-113 56,-185 z"
     id="path438" /><path
     fill="#b85c00"
     stroke="none"
     d="m 4071,4879 c 67,-85 73,-245 17,-405 -40,-114 -196,-359 -216,-339 -6,6 20,75 59,152 109,216 112,332 13,469 -45,62 -94,112 -108,112 -23,0 -133,186 -133,224 0,28 42,13 176,-64 75,-43 161,-110 192,-149 z"
     id="path445" /><path
     fill="#b85c00"
     stroke="none"
     d="m 3128,4094 c 53,-85 81,-178 102,-339 36,-277 96,-420 215,-510 126,-96 154,-88 53,16 -81,84 -190,289 -191,360 0,20 62,-45 138,-144 77,-99 215,-234 308,-300 178,-127 305,-307 337,-474 13,-71 27,-85 68,-75 38,10 62,-9 95,-79 42,-88 41,-96 -16,-203 -32,-60 -81,-139 -107,-173 l -48,-63 -33,209 c -70,448 -116,529 -412,724 -280,184 -352,279 -423,556 -26,103 -90,242 -160,349 -65,98 -129,229 -143,291 -41,174 -34,435 14,527 62,121 75,73 39,-149 -35,-219 -45,-187 164,-523 z"
     id="path452" /><path
     fill="#000000"
     stroke="none"
     d="m 4134,2447 c 0,-72 5,-99 12,-59 6,40 5,100 -1,132 -6,33 -11,0 -11,-73 z"
     id="path459" /><path
     fill="#b85c00"
     stroke="none"
     d="m 7300,4709 c 0,-136 -40,-179 -67,-71 -14,57 24,204 53,204 8,0 14,-60 14,-133 z"
     id="path466" /><path
     fill="#b85c00"
     stroke="none"
     d="m 7519,4558 c 116,-132 121,-143 93,-225 -37,-111 -45,-119 -73,-74 -18,28 -28,18 -40,-40 -73,-342 -128,-409 -434,-529 -261,-102 -472,-278 -569,-475 -85,-171 -118,-376 -73,-454 24,-40 29,-25 30,83 3,358 355,739 734,796 62,10 113,25 113,36 0,10 19,41 41,69 39,48 41,45 25,-54 -26,-157 -112,-341 -200,-425 -43,-41 -78,-93 -78,-116 -1,-23 -59,-111 -130,-196 -171,-207 -291,-461 -338,-718 -57,-310 -157,-658 -231,-804 l -65,-127 -219,-18 c -121,-9 -302,-17 -403,-17 -179,0 -182,1 -136,52 26,28 136,96 245,152 282,142 309,183 288,435 -18,225 18,393 67,306 18,-32 17,-108 -2,-230 -15,-101 -28,-225 -28,-276 0,-82 -17,-106 -139,-196 -76,-57 -157,-125 -178,-151 -58,-71 164,56 280,159 85,77 89,89 115,371 22,236 20,318 -11,435 -21,79 -34,149 -29,154 5,5 35,-27 67,-72 77,-108 94,-236 58,-447 -48,-286 -56,-437 -21,-402 16,16 38,110 47,207 10,98 26,250 37,339 17,149 11,178 -75,370 -131,293 -151,384 -151,692 v 271 l 93,103 c 95,105 271,196 436,224 l 93,16 -93,-72 c -149,-114 -283,-261 -362,-396 -104,-178 -95,-361 36,-747 55,-162 105,-282 110,-266 5,15 -24,149 -64,299 -102,377 -109,518 -37,668 116,240 334,407 710,543 182,66 311,174 339,284 16,62 -6,205 -60,403 l -18,66 70,-64 c 84,-77 89,-38 15,108 -70,137 -38,123 115,-50 z"
     id="path473" /><path
     fill="#000000"
     stroke="none"
     d="m 7185,3477 c -43,-65 -162,-170 -296,-261 -269,-183 -330,-254 -328,-382 4,-180 42,-214 56,-49 16,184 50,225 358,432 209,141 316,264 292,336 -6,17 -43,-17 -82,-76 z"
     id="path480" /><path
     fill="#000000"
     stroke="none"
     d="m 6864,3031 c -47,-50 -93,-117 -101,-149 -9,-32 -6,-48 5,-35 12,13 72,80 135,149 128,143 92,175 -39,35 z"
     id="path487" /><path
     fill="#b85c00"
     stroke="none"
     d="m 3221,4064 c -14,9 -21,54 -14,100 6,45 -4,126 -22,180 -25,71 -28,124 -9,192 34,124 68,119 104,-15 34,-126 -12,-485 -59,-457 z"
     id="path494" /><path
     fill="#b85c00"
     stroke="none"
     d="m 7795,4275 c -62,-135 -302,-428 -329,-401 -15,15 72,285 103,318 14,15 23,-6 24,-53 1,-75 2,-76 42,-25 23,29 77,116 121,193 103,179 126,159 39,-32 z"
     id="path501" /><path
     fill="#b85c00"
     stroke="none"
     d="m 7336,4130 c -17,-70 -134,-214 -174,-214 -13,0 7,51 44,114 48,82 68,156 70,258 l 3,144 36,-117 c 21,-64 30,-147 21,-185 z"
     id="path508" /><path
     fill="#ffff00"
     stroke="none"
     d="m 6181,4104 c 17,-24 28,-46 25,-49 -4,-4 -107,38 -230,92 -216,96 -232,99 -527,98 -418,-1 -565,-54 -774,-282 -160,-174 -195,-166 -86,20 70,120 249,250 456,331 162,63 500,67 697,9 178,-53 398,-162 439,-219 z"
     id="path515" /><path
     fill="#ffff00"
     stroke="none"
     d="m 6088,3948 c -17,-25 -59,-14 -179,47 -275,142 -588,152 -876,27 -178,-77 -262,-171 -306,-342 -31,-121 -39,-133 -54,-79 -31,115 -18,173 61,282 177,245 553,370 892,296 193,-43 488,-190 462,-231 z"
     id="path522" /><path
     fill="#000000"
     stroke="none"
     d="m 5275,2898 c -48,-36 -42,-39 77,-40 112,0 125,5 96,39 -41,50 -107,51 -173,1 z"
     id="path529" /><path
     fill="#000000"
     stroke="none"
     d="m 5184,2747 c 0,-38 308,-15 349,26 24,24 2,31 -99,28 -72,-2 -158,-9 -191,-15 -32,-6 -59,-24 -59,-39 z"
     id="path536" /><path
     fill="#000000"
     stroke="none"
     d="m 5243,2525 c -33,-22 -59,-51 -59,-64 0,-33 161,17 209,65 36,36 33,40 -26,40 -36,0 -92,-18 -124,-41 z"
     id="path543" /><path
     fill="#000000"
     stroke="none"
     d="m 5480,2485 c 6,-19 27,-40 46,-46 20,-7 30,3 23,23 -6,19 -27,40 -46,46 -20,7 -30,-3 -23,-23 z"
     id="path550" /><path
     fill="#000000"
     stroke="none"
     d="m 5687,2113 c -70,-42 -79,-58 -53,-90 18,-21 56,-39 86,-39 70,0 241,107 213,134 -48,48 -164,45 -246,-5 z"
     id="path557" /><path
     fill="#000000"
     stroke="none"
     d="m 5248,2043 c -10,-55 -28,-119 -40,-142 -24,-45 -207,-102 -334,-104 -66,0 -69,-3 -24,-29 58,-34 302,-15 384,29 47,25 56,54 56,187 0,181 -16,203 -42,59 z"
     id="path564" /><path
     fill="#000000"
     stroke="none"
     d="m 4861,2040 c -41,-29 -45,-41 -16,-59 48,-30 162,-29 248,4 59,22 65,33 39,66 -40,47 -197,41 -271,-11 z"
     id="path571" /><path
     fill="#000000"
     stroke="none"
     d="m 5872,1826 c 52,16 38,21 -70,23 -74,2 -176,11 -225,21 -81,16 -86,13 -53,-27 39,-47 225,-57 348,-17 z"
     id="path578" /><path
     fill="#b85c00"
     stroke="none"
     d="m 4431,2143 c -46,-129 -50,-162 -13,-106 18,28 25,-5 26,-113 0,-84 16,-191 36,-238 44,-105 202,-247 384,-344 76,-40 131,-85 122,-99 -9,-14 -105,-26 -214,-26 h -199 l -144,136 c -162,153 -302,407 -302,546 0,85 82,284 171,411 22,31 40,113 40,183 0,69 5,126 11,126 6,0 36,-40 66,-89 65,-105 70,-232 16,-387 z"
     id="path585" /><path
     fill="#000000"
     stroke="none"
     d="m 4329,2258 c -9,-10 -17,-41 -17,-70 0,-43 6,-46 39,-18 22,18 40,49 40,69 0,38 -32,48 -62,19 z"
     id="path592" /><path
     fill="#000000"
     stroke="none"
     d="m 4223,1993 c -10,-10 -17,-54 -16,-99 l 3,-82 25,89 c 26,89 21,125 -12,92 z"
     id="path599" /><path
     fill="#b85c00"
     stroke="none"
     d="m 4330,1820 c -15,-71 -9,-122 22,-180 53,-104 216,-285 288,-322 30,-15 1,30 -65,101 -181,194 -195,217 -211,364 l -14,135 z"
     id="path606" /><path
     fill="#ffff00"
     stroke="none"
     d="m 5885,1166 c -233,-18 -427,-37 -432,-42 -5,-4 3,-32 19,-60 15,-28 20,-59 11,-68 -28,-28 -123,-17 -193,21 l -67,37 73,18 c 170,43 20,67 -346,55 -602,-20 -248,31 511,73 823,46 902,48 872,21 -14,-13 -215,-38 -448,-55 z"
     id="path613" /><path
     fill="#ffff00"
     stroke="none"
     d="m 6348,1070 c 0,-44 -42,-51 -66,-12 -22,35 10,85 41,65 14,-8 25,-32 25,-53 z"
     id="path620" /><path
     fill="#ffff00"
     stroke="none"
     d="m 5950,1091 c 0,-11 -11,-37 -26,-59 -20,-32 -25,-28 -26,20 0,32 11,59 26,59 14,0 27,-9 26,-20 z"
     id="path627" /><path
     fill="#ffff00"
     stroke="none"
     d="m 6110,1072 c 0,-23 -24,-40 -53,-40 -30,0 -53,17 -53,40 0,22 23,39 53,39 29,0 53,-17 53,-39 z"
     id="path634" /><path
     fill="#ffff00"
     stroke="none"
     d="m 5761,1041 c -13,-67 -75,-76 -75,-11 0,32 17,55 42,55 25,0 38,-18 33,-44 z"
     id="path641" /><path
     fill="#ffff00"
     stroke="none"
     d="m 4788,1002 c 0,-51 -11,-55 -99,-40 -55,9 -123,18 -152,20 -30,2 6,19 79,37 178,46 172,47 172,-17 z"
     id="path648" /><path
     fill="#ffff00"
     stroke="none"
     d="m 4908,981 c -41,-35 -83,5 -55,51 20,33 58,34 78,3 8,-13 -3,-37 -23,-54 z"
     id="path655" /><path
     fill="#ffff00"
     stroke="none"
     d="m 5158,991 c 0,-44 -42,-51 -66,-12 -21,35 10,84 42,65 13,-8 24,-32 24,-53 z"
     id="path662" /><path
     fill="#ffff00"
     stroke="none"
     d="m 6348,955 c 0,-41 -78,-55 -305,-55 -270,0 -327,46 -73,59 99,5 224,12 279,15 54,3 99,-6 99,-19 z"
     id="path669" /><path
     fill="#ffff00"
     stroke="none"
     d="m 5727,900 c -9,-15 -66,-27 -126,-27 -83,0 -102,-7 -78,-31 23,-23 117,-24 381,-3 193,16 375,19 404,8 59,-22 -77,-34 -885,-79 -269,-15 -585,-26 -701,-24 l -212,3 146,29 145,28 -124,16 c -200,25 -175,47 76,65 128,10 251,22 273,26 105,23 716,13 701,-11 z"
     id="path676" /><path
     fill="#ffff00"
     stroke="none"
     d="m 6586,426 c 32,-62 32,-62 -29,-19 -37,26 -118,44 -208,45 -129,2 -138,5 -73,29 75,27 87,72 46,167 -20,47 -23,45 -24,-20 -2,-54 -15,-72 -55,-72 -42,0 -53,-18 -53,-86 -1,-137 -26,-197 -96,-229 -92,-41 -108,-37 -125,30 -9,33 -45,95 -80,139 -60,74 -68,76 -113,37 -89,-77 -110,-78 -192,-8 -101,85 -106,126 -9,76 106,-55 217,-10 218,89 0,23 -26,16 -81,-23 l -81,-58 -15,57 c -9,36 -30,52 -58,45 -140,-39 -188,-55 -312,-101 -132,-48 -139,-56 -179,-194 -39,-131 -49,-144 -135,-160 -52,-10 -100,-11 -108,-3 -8,8 -21,86 -29,173 -14,154 -18,161 -110,198 -112,45 -148,8 -61,-63 62,-50 51,-78 -33,-78 -30,0 -100,-24 -154,-53 -54,-29 -99,-46 -99,-37 0,42 194,354 221,354 17,0 96,-27 176,-59 125,-51 144,-68 137,-122 -12,-85 16,-189 52,-189 19,0 24,34 14,95 -14,87 -10,94 39,81 39,-10 59,1 68,35 7,27 38,55 69,64 53,13 53,18 14,57 -36,36 -52,37 -95,10 -43,-27 -63,-25 -111,8 -55,39 -47,42 149,57 482,36 1013,48 1013,23 0,-15 -18,-77 -40,-140 -44,-125 -41,-140 23,-116 24,9 44,45 44,78 0,43 17,64 57,70 77,12 91,66 23,88 -94,30 -58,66 65,66 116,0 123,-5 208,-139 49,-76 103,-167 122,-202 z"
     id="path683" /><path
     fill="#000000"
     stroke="none"
     d="m 5895,669 c -54,-8 -67,-22 -56,-62 8,-33 36,-51 76,-51 50,0 63,14 63,66 0,36 -3,64 -6,62 -4,-2 -38,-9 -77,-15 z"
     id="path690" /><path
     fill="#ffff00"
     stroke="none"
     d="m 5567,397 c 66,-69 72,-86 45,-145 -39,-86 -73,-84 -122,6 l -40,73 -1,-79 -1,-79 -43,63 c -41,57 -41,64 0,86 24,14 43,51 42,83 v 58 l -50,-60 c -34,-40 -64,-53 -98,-41 -129,48 -76,109 98,112 72,2 113,-17 170,-77 z"
     id="path697" /><path
     fill="#2a6099"
     stroke="none"
     d="m 6256,20199 c -24,232 -51,441 -61,465 -15,39 -40,34 -211,-48 l -194,-92 -256,31 c -141,16 -357,37 -482,47 -246,18 -295,3 -509,-152 -59,-43 -203,-109 -320,-148 -192,-64 -251,-71 -558,-69 -397,4 -527,28 -814,155 -255,112 -356,119 -379,24 -37,-144 108,-528 214,-568 38,-15 220,-54 405,-89 220,-41 319,-70 288,-83 -26,-11 -109,-11 -185,-1 -316,42 -556,65 -572,55 -21,-13 8,-431 52,-725 25,-176 47,-238 105,-304 70,-79 72,-87 33,-160 -64,-123 -111,-797 -140,-2012 -27,-1130 -25,-1244 41,-1852 28,-256 36,-659 32,-1575 -6,-1195 -5,-1235 51,-1428 32,-109 83,-252 113,-318 l 56,-119 -14,384 c -7,211 -25,610 -39,886 -40,776 -44,3686 -7,4749 43,1199 59,1383 137,1533 133,258 193,325 363,402 109,49 188,107 237,174 40,55 140,171 222,258 82,88 169,196 192,241 24,47 86,103 143,130 55,25 148,70 206,99 152,75 81,13 -103,-91 -119,-66 -164,-109 -186,-175 -16,-47 -89,-142 -161,-211 -73,-68 -169,-181 -215,-248 -54,-79 -139,-156 -238,-213 -125,-73 -181,-130 -294,-301 -76,-115 -145,-244 -153,-288 -18,-102 -57,-794 -94,-1654 -31,-731 -15,-2817 29,-3810 47,-1057 81,-1700 105,-1971 13,-145 38,-467 54,-714 38,-556 138,-1149 238,-1414 260,-687 331,-848 377,-848 39,0 19,166 -58,471 -72,287 -296,1740 -333,2161 -8,102 -33,340 -54,530 -25,225 -36,567 -32,992 3,356 -8,809 -26,1005 -97,1068 -140,2590 -88,3069 23,212 40,-482 30,-1257 -5,-457 15,-802 107,-1785 14,-153 36,-653 49,-1112 24,-903 44,-1090 257,-2421 137,-860 144,-895 249,-1236 82,-267 112,-299 195,-208 92,103 83,314 -39,968 -30,160 -66,410 -79,556 -41,443 -104,1091 -144,1468 -21,197 -51,685 -67,1085 -16,400 -41,904 -56,1119 -14,215 -25,626 -24,913 1,286 -12,862 -30,1279 -32,766 -31,805 56,1782 16,188 18,107 5,-278 -39,-1197 3,-3004 104,-4445 74,-1072 122,-1568 249,-2579 34,-277 82,-676 105,-887 66,-590 96,-831 106,-841 5,-5 90,14 190,42 l 181,51 -5,407 c -2,224 -18,604 -34,844 -33,478 -31,449 -91,1720 -39,835 -83,1566 -151,2513 -29,411 -37,2886 -10,3136 8,72 32,374 53,669 38,521 70,705 202,1151 85,289 81,190 -6,-142 -85,-324 -110,-538 -163,-1348 -52,-801 -28,-2081 73,-3863 21,-371 50,-1037 66,-1481 29,-839 52,-1263 121,-2223 54,-755 88,-1158 107,-1263 18,-97 41,-101 261,-50 l 132,30 18,238 c 10,131 25,1364 33,2739 8,1375 21,2625 30,2778 8,153 50,498 92,767 42,269 95,644 116,833 22,190 59,517 83,728 26,230 62,426 91,489 43,92 49,98 51,40 1,-36 -28,-326 -64,-644 -36,-317 -78,-722 -93,-899 -15,-177 -44,-411 -64,-521 -71,-377 -89,-948 -98,-3055 -15,-3431 -15,-3425 30,-3454 61,-38 438,-32 470,8 36,43 77,254 124,641 74,596 91,715 170,1151 122,673 231,1719 334,3188 23,335 58,787 78,1006 l 37,396 -12,-317 c -23,-646 -65,-1519 -91,-1892 -86,-1244 -109,-1523 -145,-1791 -22,-163 -58,-495 -79,-737 -21,-243 -65,-608 -97,-814 -71,-452 -80,-776 -22,-811 48,-30 315,-66 335,-45 8,8 55,298 106,645 70,477 94,736 99,1066 7,369 16,459 63,582 60,156 193,856 255,1335 72,565 76,791 18,1245 -29,233 -67,559 -83,727 -16,167 -46,442 -67,609 -21,167 -80,679 -132,1138 -52,458 -117,964 -144,1124 -28,160 -64,422 -79,582 -15,160 -46,428 -67,595 -21,168 -50,435 -65,595 -14,160 -44,410 -65,555 -21,146 -58,454 -82,686 z m 1989,50 c -219,163 -859,497 -1041,543 -234,59 -563,55 -563,-7 0,-18 11,-97 25,-176 14,-80 44,-311 67,-515 22,-203 64,-521 94,-705 29,-184 64,-457 78,-608 45,-484 185,-1484 238,-1705 29,-118 65,-338 81,-489 31,-304 49,-407 65,-390 32,31 97,540 118,921 28,506 120,1422 228,2270 8,62 1,154 -15,203 -37,112 -275,335 -504,475 -206,124 -197,117 -177,137 29,29 441,-210 585,-338 78,-69 156,-160 173,-203 44,-106 -20,-1242 -170,-3020 -121,-1446 -119,-1711 26,-2751 51,-371 98,-686 103,-701 14,-38 36,58 111,489 37,211 78,443 91,515 17,90 12,238 -14,476 -47,414 -50,613 -10,637 16,10 54,73 83,139 50,113 54,203 76,1538 12,779 35,1530 49,1668 l 26,252 178,167 c 161,152 273,237 273,207 0,-7 -71,-97 -157,-200 -123,-148 -163,-217 -185,-327 -18,-88 -26,-684 -25,-1654 l 4,-1516 56,47 c 154,128 316,295 353,365 36,70 42,269 44,1588 l 3,1508 115,215 c 64,119 109,227 100,242 -9,14 -114,31 -235,38 -281,15 -388,63 -795,361 -378,276 -431,305 -633,347 -211,43 -234,93 -31,68 224,-28 327,-77 649,-309 308,-222 487,-322 624,-352 138,-30 425,-23 510,12 78,32 162,142 197,257 17,58 17,59 -82,17 -200,-83 -417,-11 -786,264 z m 1497,-1172 c -57,197 -168,371 -346,542 -68,65 -136,118 -151,118 -58,0 -193,-154 -211,-240 -10,-50 -55,-147 -99,-217 l -80,-126 -35,-668 c -37,-678 -24,-2188 18,-2188 58,0 617,756 719,974 33,68 65,130 73,137 8,7 42,102 74,212 122,410 140,1098 38,1456 z m -2553,-8929 -122,58 c -68,32 -129,59 -136,60 -40,4 -282,-1537 -249,-1590 8,-12 47,-40 87,-60 l 73,-38 102,468 c 56,257 134,610 173,785 z m 283,-361 c 23,47 41,147 41,240 0,136 -7,160 -47,157 -113,-7 -132,-27 -149,-150 -9,-69 -57,-305 -106,-524 -138,-616 -189,-933 -155,-967 21,-21 40,-7 70,51 46,89 180,560 256,897 27,119 67,253 90,296 z m 147,-324 c 0,91 -10,172 -22,180 -12,7 -44,-78 -69,-190 -26,-112 -87,-341 -138,-508 -121,-401 -138,-540 -75,-610 48,-53 49,-51 113,98 42,102 72,244 90,431 14,153 43,314 63,356 21,42 38,151 38,243 z m 370,3908 c -47,322 -64,350 -116,179 -44,-149 -133,-766 -133,-929 -1,-158 63,-742 95,-866 20,-83 36,-107 51,-81 11,21 62,240 112,486 99,492 99,455 -9,1211 z m -741,-1716 c -16,174 -38,377 -49,450 l -21,133 -30,-106 c -17,-58 -49,-255 -71,-437 -23,-182 -47,-369 -55,-417 l -14,-86 h 146 c 144,0 146,1 134,73 -7,40 -25,215 -40,390 z m 888,103 c 7,41 5,139 -4,218 -16,133 -63,203 -63,93 0,-27 -30,-181 -66,-342 -65,-291 -91,-720 -43,-720 13,0 41,69 64,152 35,133 56,246 112,599 z"
     id="path704" /><path
     fill="#ff0000"
     stroke="none"
     d="m 6098,8599 c -258,29 -450,29 -899,0 -573,-36 -1350,-350 -1404,-567 -19,-73 15,-268 83,-491 25,-80 51,-195 57,-257 9,-76 27,-116 59,-126 34,-11 62,-81 103,-259 31,-134 59,-267 63,-295 6,-44 34,-51 222,-58 213,-7 420,-62 579,-153 l 79,-45 -145,15 c -80,8 -202,22 -271,31 -206,27 -448,-68 -341,-134 12,-7 121,-180 241,-384 164,-276 279,-434 456,-622 211,-225 247,-253 329,-253 149,0 143,-4 806,607 180,166 401,372 492,458 l 165,156 -58,78 c -110,149 -466,176 -855,63 -127,-37 -282,-74 -343,-83 -135,-18 -186,32 -59,58 47,10 247,72 443,138 l 357,120 278,-18 c 153,-9 316,-24 364,-32 79,-15 89,-9 125,79 25,60 40,180 40,328 0,167 11,249 41,291 64,92 171,478 171,620 0,70 12,127 27,127 36,0 -33,127 -117,216 -172,181 -605,337 -1088,392 z m -3927,1608 c -80,48 -158,87 -174,87 -34,0 -298,-364 -376,-518 l -55,-108 188,-108 c 184,-105 190,-106 293,-70 135,48 257,46 383,-4 84,-34 127,-83 258,-297 l 157,-258 -2,-238 c -1,-173 -17,-281 -59,-397 -92,-254 -154,-282 -504,-221 -192,34 -197,37 -476,376 -93,113 -175,199 -182,191 -17,-16 34,-280 88,-462 36,-123 53,-140 243,-257 284,-174 333,-171 665,50 243,162 262,181 290,293 40,160 37,420 -6,599 -47,192 -247,688 -303,751 -25,27 -110,83 -190,124 -80,42 -184,101 -231,132 l -85,55 -126,-115 c -175,-159 -219,-191 -219,-158 0,45 117,171 245,263 l 120,85 207,-104 c 277,-138 355,-226 472,-530 184,-479 204,-555 208,-820 5,-326 -40,-413 -313,-599 -73,-49 -174,-121 -225,-158 -83,-62 -110,-67 -271,-56 -98,6 -179,5 -179,-2 0,-8 31,-53 68,-102 95,-126 246,-124 479,4 93,50 222,106 288,122 137,35 217,122 297,325 31,81 58,118 70,98 11,-17 -22,-120 -74,-230 l -95,-198 -205,-94 c -114,-51 -270,-137 -348,-190 l -141,-97 88,-73 c 119,-100 315,-169 615,-217 294,-48 440,-94 684,-216 98,-50 190,-90 205,-90 50,0 27,196 -38,330 -36,73 -127,270 -203,437 -76,168 -142,310 -147,316 -6,7 -93,-70 -194,-171 -205,-203 -255,-191 -63,15 118,126 125,141 173,413 56,312 62,277 -109,666 -100,229 -129,330 -172,592 -11,69 -40,116 -96,155 -44,32 -85,52 -92,45 -7,-7 53,-193 134,-414 135,-370 183,-611 123,-611 -12,0 -30,55 -39,122 -10,67 -82,284 -160,483 -79,198 -169,447 -200,552 -56,192 -57,193 -207,267 -83,41 -193,91 -244,111 -51,20 -158,76 -238,124 z m 322,-912 c -78,69 -105,81 -200,79 -135,-2 -175,-15 -175,-54 0,-47 486,-289 522,-260 26,22 -56,152 -147,235 z m 5862,616 c -8,8 -58,22 -110,30 -84,14 -98,8 -120,-51 -49,-128 -60,-250 -31,-355 23,-86 56,-125 174,-203 l 145,-97 -2,192 c -2,204 -31,460 -56,484 z M 7810,7616 c -83,114 -169,336 -201,520 -19,111 -40,207 -47,214 -26,26 -101,-180 -101,-279 0,-126 94,-486 154,-589 52,-88 99,-84 173,15 45,61 49,82 22,119 z m 223,297 c -119,0 -154,10 -181,53 -55,89 -72,58 -31,-61 21,-62 70,-146 108,-187 77,-84 89,-78 192,96 l 59,99 z m -651,-939 c 65,62 71,81 48,142 -15,38 -42,140 -60,227 l -32,157 -33,-167 c -20,-98 -26,-223 -15,-299 l 18,-131 z m 105,438 c -33,86 -64,157 -71,157 -26,0 27,-256 65,-317 68,-107 71,-14 6,160 z"
     id="path711" /></g>
</svg>
