<svg width="1366" height="947" viewBox="0 0 1366 947" fill="none" xmlns="http://www.w3.org/2000/svg">
<g clip-path="url(#clip0_2489_2178)">
<rect y="947" width="947" height="1366" rx="13" transform="rotate(-90 0 947)" fill="#0374ED"/>
<rect x="-165.301" y="-20.5977" width="408.214" height="365.605" rx="27" transform="rotate(-35.92 -165.301 -20.5977)" fill="url(#paint0_linear_2489_2178)"/>
<rect x="-57.5889" y="-20.5977" width="408.214" height="365.605" rx="27" transform="rotate(-35.92 -57.5889 -20.5977)" fill="url(#paint1_linear_2489_2178)"/>
<rect x="50.1229" y="-20.5977" width="408.214" height="365.605" rx="27" transform="rotate(-35.92 50.1229 -20.5977)" fill="url(#paint2_linear_2489_2178)"/>
<g clip-path="url(#clip1_2489_2178)">
<path d="M0 228C0 193.116 0 175.674 10.837 164.837C21.6741 154 39.1161 154 74 154H1292C1326.88 154 1344.33 154 1355.16 164.837C1366 175.674 1366 193.116 1366 228V947H0V228Z" fill="white"/>
<path fill-rule="evenodd" clip-rule="evenodd" d="M34.2996 270.438V303.221C19.186 303.292 6.8093 303.395 -2.02594 303.534C-6.56468 303.606 -10.1714 303.687 -12.7354 303.779C-14.017 303.824 -15.0418 303.873 -15.7937 303.925C-16.1694 303.95 -16.4813 303.977 -16.7251 304.005C-16.9566 304.032 -17.1622 304.064 -17.303 304.108L-17.0047 305.062C-16.9643 305.05 -16.8448 305.026 -16.6103 304.999C-16.3882 304.973 -16.0935 304.948 -15.7252 304.922C-14.9893 304.872 -13.9771 304.824 -12.6997 304.778C-10.1458 304.687 -6.54689 304.605 -2.01019 304.534C6.81859 304.395 19.1893 304.292 34.2996 304.221V348.759C19.186 348.83 6.8093 348.933 -2.02594 349.072C-6.56468 349.144 -10.1714 349.225 -12.7354 349.317C-14.017 349.362 -15.0418 349.411 -15.7937 349.463C-16.1694 349.489 -16.4813 349.515 -16.7251 349.544C-16.9566 349.57 -17.1622 349.602 -17.303 349.646L-17.0047 350.6C-16.9643 350.588 -16.8448 350.564 -16.6103 350.537C-16.3882 350.511 -16.0935 350.486 -15.7252 350.46C-14.9893 350.41 -13.9771 350.362 -12.6997 350.316C-10.1458 350.225 -6.54689 350.144 -2.01019 350.072C6.81859 349.933 19.1893 349.83 34.2996 349.759V394.297C19.186 394.369 6.8093 394.471 -2.02594 394.61C-6.56468 394.682 -10.1714 394.763 -12.7354 394.855C-14.017 394.901 -15.0418 394.949 -15.7937 395.001C-16.1694 395.027 -16.4813 395.053 -16.7251 395.082C-16.9566 395.108 -17.1622 395.14 -17.303 395.184L-17.0047 396.138C-16.9643 396.126 -16.8448 396.102 -16.6103 396.075C-16.3882 396.049 -16.0935 396.024 -15.7252 395.998C-14.9893 395.948 -13.9771 395.9 -12.6997 395.854C-10.1458 395.763 -6.54689 395.682 -2.01019 395.61C6.81859 395.471 19.1893 395.369 34.2996 395.297V439.835C19.186 439.907 6.8093 440.009 -2.02594 440.148C-6.56468 440.22 -10.1714 440.301 -12.7354 440.393C-14.017 440.439 -15.0418 440.487 -15.7937 440.539C-16.1694 440.565 -16.4813 440.592 -16.7251 440.62C-16.9566 440.646 -17.1622 440.678 -17.303 440.722L-17.0047 441.676C-16.9643 441.664 -16.8448 441.64 -16.6103 441.613C-16.3882 441.587 -16.0935 441.562 -15.7252 441.537C-14.9893 441.486 -13.9771 441.438 -12.6997 441.392C-10.1458 441.301 -6.54689 441.22 -2.01019 441.148C6.81859 441.009 19.1893 440.907 34.2996 440.835V485.373C19.186 485.445 6.8093 485.547 -2.02594 485.686C-6.56468 485.758 -10.1714 485.839 -12.7354 485.931C-14.017 485.977 -15.0418 486.025 -15.7937 486.077C-16.1694 486.103 -16.4813 486.13 -16.7251 486.158C-16.9566 486.185 -17.1622 486.216 -17.303 486.26L-17.0047 487.215C-16.9643 487.202 -16.8448 487.178 -16.6103 487.151C-16.3882 487.126 -16.0935 487.1 -15.7252 487.075C-14.9893 487.024 -13.9771 486.976 -12.6997 486.93C-10.1458 486.839 -6.54689 486.758 -2.01019 486.686C6.81859 486.547 19.1893 486.445 34.2996 486.373V530.911C19.186 530.983 6.8093 531.085 -2.02594 531.225C-6.56468 531.296 -10.1714 531.377 -12.7354 531.469C-14.017 531.515 -15.0418 531.563 -15.7937 531.615C-16.1694 531.641 -16.4813 531.668 -16.7251 531.696C-16.9566 531.723 -17.1622 531.754 -17.303 531.798L-17.0047 532.753C-16.9643 532.74 -16.8448 532.716 -16.6103 532.689C-16.3882 532.664 -16.0935 532.638 -15.7252 532.613C-14.9893 532.562 -13.9771 532.514 -12.6997 532.468C-10.1458 532.377 -6.54689 532.296 -2.01019 532.224C6.81859 532.085 19.1893 531.983 34.2996 531.911V576.449C19.186 576.521 6.8093 576.623 -2.02594 576.763C-6.56468 576.834 -10.1714 576.915 -12.7354 577.007C-14.017 577.053 -15.0418 577.102 -15.7937 577.153C-16.1694 577.179 -16.4813 577.206 -16.7251 577.234C-16.9566 577.261 -17.1622 577.292 -17.303 577.336L-17.0047 578.291C-16.9643 578.278 -16.8448 578.254 -16.6103 578.227C-16.3882 578.202 -16.0935 578.176 -15.7252 578.151C-14.9893 578.1 -13.9771 578.052 -12.6997 578.006C-10.1458 577.915 -6.54689 577.834 -2.01019 577.762C6.81859 577.623 19.1893 577.521 34.2996 577.449V621.987C19.186 622.059 6.8093 622.161 -2.02594 622.301C-6.56468 622.372 -10.1714 622.453 -12.7354 622.545C-14.017 622.591 -15.0418 622.64 -15.7937 622.691C-16.1694 622.717 -16.4813 622.744 -16.7251 622.772C-16.9566 622.799 -17.1622 622.83 -17.303 622.874L-17.0047 623.829C-16.9643 623.816 -16.8448 623.793 -16.6103 623.765C-16.3882 623.74 -16.0935 623.714 -15.7252 623.689C-14.9893 623.638 -13.9771 623.59 -12.6997 623.544C-10.1458 623.453 -6.54689 623.372 -2.01019 623.301C6.81859 623.161 19.1893 623.059 34.2996 622.987V667.525C19.186 667.597 6.8093 667.7 -2.02594 667.839C-6.56468 667.91 -10.1714 667.991 -12.7354 668.083C-14.017 668.129 -15.0418 668.178 -15.7937 668.229C-16.1694 668.255 -16.4813 668.282 -16.7251 668.31C-16.9566 668.337 -17.1622 668.368 -17.303 668.412L-17.0047 669.367C-16.9643 669.354 -16.8448 669.331 -16.6103 669.304C-16.3882 669.278 -16.0935 669.252 -15.7252 669.227C-14.9893 669.176 -13.9771 669.128 -12.6997 669.083C-10.1458 668.991 -6.54689 668.91 -2.01019 668.839C6.81859 668.7 19.1893 668.597 34.2996 668.525V713.063C19.186 713.135 6.8093 713.238 -2.02594 713.377C-6.56468 713.448 -10.1714 713.53 -12.7354 713.621C-14.017 713.667 -15.0418 713.716 -15.7937 713.767C-16.1694 713.793 -16.4813 713.82 -16.7251 713.848C-16.9566 713.875 -17.1622 713.907 -17.303 713.951L-17.0047 714.905C-16.9643 714.892 -16.8448 714.869 -16.6103 714.842C-16.3882 714.816 -16.0935 714.79 -15.7252 714.765C-14.9893 714.715 -13.9771 714.666 -12.6997 714.621C-10.1458 714.529 -6.54689 714.448 -2.01019 714.377C6.81859 714.238 19.1893 714.135 34.2996 714.063V758.602C19.186 758.673 6.8093 758.776 -2.02594 758.915C-6.56468 758.986 -10.1714 759.068 -12.7354 759.159C-14.017 759.205 -15.0418 759.254 -15.7937 759.306C-16.1694 759.331 -16.4813 759.358 -16.7251 759.386C-16.9566 759.413 -17.1622 759.445 -17.303 759.489L-17.0047 760.443C-16.9643 760.43 -16.8448 760.407 -16.6103 760.38C-16.3882 760.354 -16.0935 760.328 -15.7252 760.303C-14.9893 760.253 -13.9771 760.204 -12.6997 760.159C-10.1458 760.067 -6.54689 759.986 -2.01019 759.915C6.81859 759.776 19.1893 759.673 34.2996 759.602V804.14C19.186 804.211 6.8093 804.314 -2.02594 804.453C-6.56468 804.525 -10.1714 804.606 -12.7354 804.697C-14.017 804.743 -15.0418 804.792 -15.7937 804.844C-16.1694 804.869 -16.4813 804.896 -16.7251 804.924C-16.9566 804.951 -17.1622 804.983 -17.303 805.027L-17.0047 805.981C-16.9643 805.969 -16.8448 805.945 -16.6103 805.918C-16.3882 805.892 -16.0935 805.867 -15.7252 805.841C-14.9893 805.791 -13.9771 805.743 -12.6997 805.697C-10.1458 805.605 -6.54689 805.524 -2.01019 805.453C6.81859 805.314 19.1893 805.211 34.2996 805.14V854.92H35.2996V805.135C35.3856 805.134 35.4716 805.134 35.5577 805.134C49.7144 805.069 66.2083 805.03 84.3981 805.014V854.92H85.3981V805.013C100.706 804.999 117.198 805.001 134.497 805.016V854.92H135.497V805.017C142.571 805.023 149.779 805.032 157.094 805.042C166.114 805.054 175.297 805.07 184.595 805.088V854.92H185.595V805.09C201.705 805.121 218.155 805.161 234.694 805.206V854.92H235.694V805.209C252.058 805.253 268.505 805.304 284.792 805.359V854.92H285.792V805.362C302.416 805.418 318.868 805.478 334.891 805.54V854.92H335.891V805.544C352.847 805.61 369.316 805.679 384.989 805.748V854.92H385.989V805.753C405.149 805.837 423.106 805.922 439.296 806.004L439.301 805.004C423.11 804.922 405.151 804.837 385.989 804.753V760.214C405.149 760.299 423.106 760.384 439.296 760.466L439.301 759.466C423.11 759.384 405.151 759.299 385.989 759.214V714.676C405.149 714.761 423.106 714.846 439.296 714.928L439.301 713.928C423.11 713.846 405.151 713.761 385.989 713.676V669.138C405.149 669.223 423.106 669.308 439.296 669.39L439.301 668.39C423.11 668.308 405.151 668.223 385.989 668.138V623.6C405.149 623.685 423.106 623.77 439.296 623.852L439.301 622.852C423.11 622.77 405.151 622.685 385.989 622.6V578.062C405.149 578.147 423.106 578.232 439.296 578.313L439.301 577.313C423.11 577.232 405.151 577.147 385.989 577.062V532.524C405.149 532.609 423.106 532.694 439.296 532.775L439.301 531.775C423.11 531.694 405.151 531.609 385.989 531.524V486.986C405.149 487.071 423.106 487.156 439.296 487.237L439.301 486.237C423.11 486.156 405.151 486.071 385.989 485.986V441.448C405.149 441.533 423.106 441.618 439.296 441.699L439.301 440.699C423.11 440.618 405.151 440.532 385.989 440.448V395.91C405.149 395.994 423.106 396.08 439.296 396.161L439.301 395.161C423.11 395.08 405.151 394.994 385.989 394.91V350.372C405.149 350.456 423.106 350.541 439.296 350.623L439.301 349.623C423.11 349.541 405.151 349.456 385.989 349.372V304.834C405.149 304.918 423.106 305.003 439.296 305.085L439.301 304.085C423.11 304.003 405.151 303.918 385.989 303.834V270.438H384.989V303.829C369.316 303.76 352.847 303.691 335.891 303.625V270.438H334.891V303.621C318.868 303.559 302.416 303.499 285.792 303.443V270.438H284.792V303.44C268.505 303.385 252.058 303.334 235.694 303.29V270.438H234.694V303.287C218.155 303.242 201.705 303.202 185.595 303.171V270.438H184.595V303.169C175.297 303.151 166.115 303.135 157.096 303.123C149.78 303.113 142.572 303.104 135.497 303.098V270.438H134.497V303.097C117.198 303.083 100.706 303.081 85.3981 303.094V270.438H84.3981V303.095C66.2069 303.111 49.7115 303.15 35.5532 303.215L35.2996 303.216V270.438H34.2996ZM384.989 804.748V760.21C369.316 760.141 352.847 760.072 335.891 760.006V804.544C352.847 804.61 369.316 804.679 384.989 804.748ZM334.891 804.54V760.002C318.868 759.94 302.416 759.88 285.792 759.824V804.362C302.416 804.418 318.868 804.478 334.891 804.54ZM284.792 804.359V759.821C268.505 759.766 252.058 759.715 235.694 759.67V804.209C252.058 804.253 268.505 804.304 284.792 804.359ZM234.694 804.206V759.668C218.155 759.623 201.705 759.583 185.595 759.552V804.09C201.705 804.121 218.155 804.161 234.694 804.206ZM184.595 804.088V759.55C175.297 759.532 166.114 759.516 157.094 759.504C149.779 759.493 142.571 759.485 135.497 759.479V804.017C142.572 804.023 149.78 804.032 157.096 804.042C166.115 804.054 175.297 804.07 184.595 804.088ZM134.497 804.016V759.478C117.198 759.463 100.706 759.461 85.3981 759.475V804.013C100.706 803.999 117.198 804.001 134.497 804.016ZM84.3981 804.014V759.476C66.2083 759.492 49.7144 759.531 35.5577 759.596L35.2996 759.597V804.135C35.384 804.135 35.4686 804.134 35.5532 804.134C49.7115 804.069 66.2069 804.03 84.3981 804.014ZM35.5532 758.596L35.2996 758.597V714.059L35.5577 714.058C49.7144 713.993 66.2083 713.954 84.3981 713.938V758.476C66.2069 758.492 49.7115 758.531 35.5532 758.596ZM134.497 758.478C117.198 758.463 100.706 758.461 85.3981 758.475V713.937C100.706 713.923 117.198 713.925 134.497 713.94V758.478ZM157.096 758.504C149.78 758.493 142.572 758.485 135.497 758.479V713.941C142.571 713.947 149.779 713.955 157.094 713.966C166.114 713.978 175.297 713.994 184.595 714.012V758.55C175.297 758.532 166.115 758.516 157.096 758.504ZM234.694 758.668C218.155 758.623 201.705 758.583 185.595 758.552V714.014C201.705 714.045 218.155 714.085 234.694 714.13V758.668ZM284.792 758.821C268.505 758.766 252.058 758.715 235.694 758.67V714.132C252.058 714.177 268.505 714.228 284.792 714.282V758.821ZM334.891 759.002C318.868 758.94 302.416 758.88 285.792 758.824V714.286C302.416 714.342 318.868 714.402 334.891 714.464V759.002ZM384.989 759.21C369.316 759.141 352.847 759.072 335.891 759.006V714.468C352.847 714.534 369.316 714.603 384.989 714.672V759.21ZM384.989 713.672V669.134C369.316 669.065 352.847 668.996 335.891 668.93V713.468C352.847 713.534 369.316 713.603 384.989 713.672ZM334.891 713.464V668.926C318.868 668.864 302.416 668.804 285.792 668.748V713.286C302.416 713.342 318.868 713.402 334.891 713.464ZM284.792 713.282V668.744C268.505 668.69 252.058 668.639 235.694 668.594V713.132C252.058 713.177 268.505 713.228 284.792 713.282ZM234.694 713.13V668.592C218.155 668.546 201.705 668.507 185.595 668.476V713.014C201.705 713.045 218.155 713.084 234.694 713.13ZM184.595 713.012V668.474C175.297 668.456 166.114 668.44 157.094 668.427C149.779 668.417 142.571 668.409 135.497 668.403V712.941C142.572 712.947 149.78 712.955 157.096 712.966C166.115 712.978 175.297 712.994 184.595 713.012ZM134.497 712.94V668.402C117.198 668.387 100.706 668.385 85.3981 668.398V712.937C100.706 712.923 117.198 712.925 134.497 712.94ZM84.3981 712.938V668.399C66.2083 668.416 49.7144 668.455 35.5577 668.519L35.2996 668.521V713.059L35.5532 713.058C49.7115 712.993 66.2069 712.954 84.3981 712.938ZM35.5532 667.519L35.2996 667.521V622.983L35.5577 622.981C49.7144 622.916 66.2083 622.878 84.3981 622.861V667.399C66.2069 667.416 49.7115 667.455 35.5532 667.519ZM134.497 667.402C117.198 667.387 100.706 667.385 85.3981 667.398V622.86C100.706 622.847 117.198 622.849 134.497 622.864V667.402ZM157.096 667.427C149.78 667.417 142.572 667.409 135.497 667.403V622.865C142.571 622.871 149.779 622.879 157.094 622.889C166.114 622.902 175.297 622.917 184.595 622.936V667.474C175.297 667.456 166.115 667.44 157.096 667.427ZM234.694 667.592C218.155 667.546 201.705 667.507 185.595 667.476V622.938C201.705 622.969 218.155 623.008 234.694 623.053V667.592ZM284.792 667.744C268.505 667.69 252.058 667.639 235.694 667.594V623.056C252.058 623.101 268.505 623.152 284.792 623.206V667.744ZM334.891 667.926C318.868 667.864 302.416 667.804 285.792 667.748V623.21C302.416 623.266 318.868 623.326 334.891 623.388V667.926ZM384.989 668.134C369.316 668.065 352.847 667.996 335.891 667.93V623.392C352.847 623.458 369.316 623.527 384.989 623.596V668.134ZM384.989 622.596V578.058C369.316 577.989 352.847 577.92 335.891 577.854V622.392C352.847 622.458 369.316 622.527 384.989 622.596ZM334.891 622.388V577.85C318.868 577.788 302.416 577.727 285.792 577.672V622.21C302.416 622.266 318.868 622.326 334.891 622.388ZM284.792 622.206V577.668C268.505 577.614 252.058 577.563 235.694 577.518V622.056C252.058 622.101 268.505 622.152 284.792 622.206ZM234.694 622.053V577.515C218.155 577.47 201.705 577.431 185.595 577.399V621.938C201.705 621.969 218.155 622.008 234.694 622.053ZM184.595 621.936V577.397C175.297 577.379 166.114 577.364 157.094 577.351C149.779 577.341 142.571 577.333 135.497 577.327V621.865C142.572 621.871 149.78 621.879 157.096 621.889C166.115 621.902 175.297 621.917 184.595 621.936ZM134.497 621.864V577.326C117.198 577.311 100.706 577.309 85.3981 577.322V621.86C100.706 621.847 117.198 621.849 134.497 621.864ZM84.3981 621.861V577.323C66.2083 577.34 49.7144 577.378 35.5577 577.443L35.2996 577.444V621.983L35.5532 621.981C49.7115 621.916 66.2069 621.878 84.3981 621.861ZM35.5532 576.443L35.2996 576.444V531.906L35.5577 531.905C49.7144 531.84 66.2083 531.802 84.3981 531.785V576.323C66.2069 576.34 49.7115 576.378 35.5532 576.443ZM134.497 576.326C117.198 576.311 100.706 576.309 85.3981 576.322V531.784C100.706 531.771 117.198 531.773 134.497 531.788V576.326ZM157.096 576.351C149.78 576.341 142.572 576.333 135.497 576.327V531.789C142.571 531.795 149.779 531.803 157.094 531.813C166.114 531.826 175.297 531.841 184.595 531.859V576.397C175.297 576.379 166.115 576.364 157.096 576.351ZM234.694 576.515C218.155 576.47 201.705 576.431 185.595 576.399V531.861C201.705 531.893 218.155 531.932 234.694 531.977V576.515ZM284.792 576.668C268.505 576.614 252.058 576.563 235.694 576.518V531.98C252.058 532.025 268.505 532.076 284.792 532.13V576.668ZM334.891 576.85C318.868 576.788 302.416 576.727 285.792 576.672V532.133C302.416 532.189 318.868 532.249 334.891 532.312V576.85ZM384.989 577.058C369.316 576.989 352.847 576.92 335.891 576.854V532.316C352.847 532.382 369.316 532.451 384.989 532.52V577.058ZM384.989 531.52V486.982C369.316 486.912 352.847 486.844 335.891 486.778V531.316C352.847 531.382 369.316 531.451 384.989 531.52ZM334.891 531.312V486.774C318.868 486.711 302.416 486.651 285.792 486.595V531.133C302.416 531.189 318.868 531.249 334.891 531.312ZM284.792 531.13V486.592C268.505 486.537 252.058 486.487 235.694 486.442V530.98C252.058 531.025 268.505 531.076 284.792 531.13ZM234.694 530.977V486.439C218.155 486.394 201.705 486.355 185.595 486.323V530.861C201.705 530.893 218.155 530.932 234.694 530.977ZM184.595 530.859V486.321C175.297 486.303 166.114 486.288 157.094 486.275C149.779 486.265 142.571 486.257 135.497 486.25V530.789C142.572 530.795 149.78 530.803 157.096 530.813C166.115 530.826 175.297 530.841 184.595 530.859ZM134.497 530.788V486.25C117.198 486.235 100.706 486.233 85.3981 486.246V530.784C100.706 530.771 117.198 530.773 134.497 530.788ZM84.3981 530.785V486.247C66.2083 486.264 49.7144 486.302 35.5577 486.367L35.2996 486.368V530.906L35.5532 530.905C49.7115 530.84 66.2069 530.802 84.3981 530.785ZM35.5532 485.367L35.2996 485.368V440.83L35.5577 440.829C49.7144 440.764 66.2083 440.726 84.3981 440.709V485.247C66.2069 485.264 49.7115 485.302 35.5532 485.367ZM134.497 485.25C117.198 485.235 100.706 485.233 85.3981 485.246V440.708C100.706 440.695 117.198 440.697 134.497 440.712V485.25ZM157.096 485.275C149.78 485.265 142.572 485.257 135.497 485.25V440.712C142.571 440.719 149.779 440.727 157.094 440.737C166.114 440.75 175.297 440.765 184.595 440.783V485.321C175.297 485.303 166.115 485.288 157.096 485.275ZM234.694 485.439C218.155 485.394 201.705 485.355 185.595 485.323V440.785C201.705 440.817 218.155 440.856 234.694 440.901V485.439ZM284.792 485.592C268.505 485.537 252.058 485.487 235.694 485.442V440.904C252.058 440.949 268.505 440.999 284.792 441.054V485.592ZM334.891 485.774C318.868 485.711 302.416 485.651 285.792 485.595V441.057C302.416 441.113 318.868 441.173 334.891 441.236V485.774ZM384.989 485.982C369.316 485.912 352.847 485.844 335.891 485.778V441.24C352.847 441.306 369.316 441.374 384.989 441.443V485.982ZM384.989 440.443V395.905C369.316 395.836 352.847 395.768 335.891 395.701V440.239C352.847 440.306 369.316 440.374 384.989 440.443ZM334.891 440.236V395.698C318.868 395.635 302.416 395.575 285.792 395.519V440.057C302.416 440.113 318.868 440.173 334.891 440.236ZM284.792 440.054V395.516C268.505 395.461 252.058 395.411 235.694 395.366V439.904C252.058 439.949 268.505 439.999 284.792 440.054ZM234.694 439.901V395.363C218.155 395.318 201.705 395.279 185.595 395.247V439.785C201.705 439.817 218.155 439.856 234.694 439.901ZM184.595 439.783V395.245C175.297 395.227 166.114 395.212 157.094 395.199C149.779 395.189 142.571 395.18 135.497 395.174V439.712C142.572 439.719 149.78 439.727 157.096 439.737C166.115 439.75 175.297 439.765 184.595 439.783ZM134.497 439.712V395.173C117.198 395.159 100.706 395.157 85.3981 395.17V439.708C100.706 439.695 117.198 439.697 134.497 439.712ZM84.3981 439.709V395.171C66.2083 395.188 49.7144 395.226 35.5577 395.291L35.2996 395.292V439.83L35.5532 439.829C49.7115 439.764 66.2069 439.726 84.3981 439.709ZM35.5532 394.291L35.2996 394.292V349.754L35.5577 349.753C49.7144 349.688 66.2083 349.649 84.3981 349.633V394.171C66.2069 394.188 49.7115 394.226 35.5532 394.291ZM134.497 394.173C117.198 394.159 100.706 394.157 85.3981 394.17V349.632C100.706 349.619 117.198 349.621 134.497 349.635V394.173ZM157.096 394.199C149.78 394.189 142.572 394.18 135.497 394.174V349.636C142.571 349.642 149.779 349.651 157.094 349.661C166.114 349.673 175.297 349.689 184.595 349.707V394.245C175.297 394.227 166.115 394.212 157.096 394.199ZM234.694 394.363C218.155 394.318 201.705 394.279 185.595 394.247V349.709C201.705 349.741 218.155 349.78 234.694 349.825V394.363ZM284.792 394.516C268.505 394.461 252.058 394.411 235.694 394.366V349.828C252.058 349.873 268.505 349.923 284.792 349.978V394.516ZM334.891 394.698C318.868 394.635 302.416 394.575 285.792 394.519V349.981C302.416 350.037 318.868 350.097 334.891 350.159V394.698ZM384.989 394.905C369.316 394.836 352.847 394.768 335.891 394.701V350.163C352.847 350.229 369.316 350.298 384.989 350.367V394.905ZM384.989 349.367V304.829C369.316 304.76 352.847 304.691 335.891 304.625V349.163C352.847 349.229 369.316 349.298 384.989 349.367ZM334.891 349.159V304.621C318.868 304.559 302.416 304.499 285.792 304.443V348.981C302.416 349.037 318.868 349.097 334.891 349.159ZM284.792 348.978V304.44C268.505 304.385 252.058 304.334 235.694 304.29V348.828C252.058 348.873 268.505 348.923 284.792 348.978ZM234.694 348.825V304.287C218.155 304.242 201.705 304.202 185.595 304.171V348.709C201.705 348.741 218.155 348.78 234.694 348.825ZM184.595 348.707V304.169C175.297 304.151 166.114 304.135 157.094 304.123C149.779 304.113 142.571 304.104 135.497 304.098V348.636C142.572 348.642 149.78 348.651 157.096 348.661C166.115 348.673 175.297 348.689 184.595 348.707ZM134.497 348.635V304.097C117.198 304.083 100.706 304.081 85.3981 304.094V348.632C100.706 348.619 117.198 348.621 134.497 348.635ZM84.3981 348.633V304.095C66.2083 304.111 49.7144 304.15 35.5577 304.215L35.2996 304.216V348.754L35.5532 348.753C49.7115 348.688 66.2069 348.649 84.3981 348.633Z" fill="url(#paint3_radial_2489_2178)"/>
<path fill-rule="evenodd" clip-rule="evenodd" d="M1074.47 192.07V215.668C1063.59 215.72 1054.68 215.794 1048.32 215.894C1045.05 215.945 1042.45 216.004 1040.61 216.07C1039.69 216.103 1038.95 216.138 1038.41 216.175C1038.14 216.193 1037.91 216.213 1037.74 216.233C1037.57 216.252 1037.42 216.275 1037.32 216.307L1037.53 216.994C1037.56 216.985 1037.65 216.968 1037.82 216.948C1037.98 216.93 1038.19 216.911 1038.46 216.893C1038.99 216.857 1039.71 216.822 1040.63 216.789C1042.47 216.723 1045.06 216.665 1048.33 216.613C1054.68 216.513 1063.59 216.44 1074.47 216.388V248.448C1063.59 248.5 1054.68 248.574 1048.32 248.674C1045.05 248.725 1042.45 248.784 1040.61 248.85C1039.69 248.883 1038.95 248.918 1038.41 248.955C1038.14 248.973 1037.91 248.993 1037.74 249.013C1037.57 249.032 1037.42 249.055 1037.32 249.087L1037.53 249.774C1037.56 249.765 1037.65 249.748 1037.82 249.728C1037.98 249.71 1038.19 249.691 1038.46 249.673C1038.99 249.637 1039.71 249.602 1040.63 249.569C1042.47 249.503 1045.06 249.445 1048.33 249.393C1054.68 249.293 1063.59 249.22 1074.47 249.168V281.228C1063.59 281.28 1054.68 281.353 1048.32 281.454C1045.05 281.505 1042.45 281.564 1040.61 281.63C1039.69 281.663 1038.95 281.698 1038.41 281.735C1038.14 281.753 1037.91 281.773 1037.74 281.793C1037.57 281.812 1037.42 281.835 1037.32 281.867L1037.53 282.554C1037.56 282.545 1037.65 282.528 1037.82 282.508C1037.98 282.49 1038.19 282.471 1038.46 282.453C1038.99 282.417 1039.71 282.382 1040.63 282.349C1042.47 282.283 1045.06 282.225 1048.33 282.173C1054.68 282.073 1063.59 281.999 1074.47 281.948V314.008C1063.59 314.06 1054.68 314.133 1048.32 314.234C1045.05 314.285 1042.45 314.344 1040.61 314.41C1039.69 314.443 1038.95 314.478 1038.41 314.515C1038.14 314.533 1037.91 314.553 1037.74 314.573C1037.57 314.592 1037.42 314.615 1037.32 314.647L1037.53 315.334C1037.56 315.325 1037.65 315.307 1037.82 315.288C1037.98 315.27 1038.19 315.251 1038.46 315.233C1038.99 315.197 1039.71 315.162 1040.63 315.129C1042.47 315.063 1045.06 315.005 1048.33 314.953C1054.68 314.853 1063.59 314.779 1074.47 314.728V346.788C1063.59 346.84 1054.68 346.913 1048.32 347.014C1045.05 347.065 1042.45 347.123 1040.61 347.19C1039.69 347.223 1038.95 347.258 1038.41 347.295C1038.14 347.313 1037.91 347.333 1037.74 347.353C1037.57 347.372 1037.42 347.395 1037.32 347.426L1037.53 348.114C1037.56 348.104 1037.65 348.087 1037.82 348.068C1037.98 348.049 1038.19 348.031 1038.46 348.013C1038.99 347.976 1039.71 347.942 1040.63 347.909C1042.47 347.843 1045.06 347.785 1048.33 347.733C1054.68 347.633 1063.59 347.559 1074.47 347.508V379.568C1063.59 379.62 1054.68 379.693 1048.32 379.794C1045.05 379.845 1042.45 379.903 1040.61 379.969C1039.69 380.003 1038.95 380.037 1038.41 380.075C1038.14 380.093 1037.91 380.113 1037.74 380.133C1037.57 380.152 1037.42 380.175 1037.32 380.206L1037.53 380.894C1037.56 380.884 1037.65 380.867 1037.82 380.848C1037.98 380.829 1038.19 380.811 1038.46 380.793C1038.99 380.756 1039.71 380.722 1040.63 380.689C1042.47 380.623 1045.06 380.565 1048.33 380.513C1054.68 380.413 1063.59 380.339 1074.47 380.288V412.348C1063.59 412.399 1054.68 412.473 1048.32 412.574C1045.05 412.625 1042.45 412.683 1040.61 412.749C1039.69 412.782 1038.95 412.817 1038.41 412.855C1038.14 412.873 1037.91 412.893 1037.74 412.913C1037.57 412.932 1037.42 412.955 1037.32 412.986L1037.53 413.673C1037.56 413.664 1037.65 413.647 1037.82 413.628C1037.98 413.609 1038.19 413.591 1038.46 413.573C1038.99 413.536 1039.71 413.502 1040.63 413.469C1042.47 413.403 1045.06 413.345 1048.33 413.293C1054.68 413.193 1063.59 413.119 1074.47 413.068V445.128C1063.59 445.179 1054.68 445.253 1048.32 445.353C1045.05 445.405 1042.45 445.463 1040.61 445.529C1039.69 445.562 1038.95 445.597 1038.41 445.635C1038.14 445.653 1037.91 445.672 1037.74 445.693C1037.57 445.712 1037.42 445.735 1037.32 445.766L1037.53 446.453C1037.56 446.444 1037.65 446.427 1037.82 446.408C1037.98 446.389 1038.19 446.371 1038.46 446.353C1038.99 446.316 1039.71 446.282 1040.63 446.249C1042.47 446.183 1045.06 446.125 1048.33 446.073C1054.68 445.973 1063.59 445.899 1074.47 445.848V477.908C1063.59 477.959 1054.68 478.033 1048.32 478.133C1045.05 478.185 1042.45 478.243 1040.61 478.309C1039.69 478.342 1038.95 478.377 1038.41 478.415C1038.14 478.433 1037.91 478.452 1037.74 478.473C1037.57 478.492 1037.42 478.515 1037.32 478.546L1037.53 479.233C1037.56 479.224 1037.65 479.207 1037.82 479.188C1037.98 479.169 1038.19 479.151 1038.46 479.133C1038.99 479.096 1039.71 479.062 1040.63 479.029C1042.47 478.963 1045.06 478.905 1048.33 478.853C1054.68 478.753 1063.59 478.679 1074.47 478.628V510.688C1063.59 510.739 1054.68 510.813 1048.32 510.913C1045.05 510.965 1042.45 511.023 1040.61 511.089C1039.69 511.122 1038.95 511.157 1038.41 511.195C1038.14 511.213 1037.91 511.232 1037.74 511.253C1037.57 511.272 1037.42 511.295 1037.32 511.326L1037.53 512.013C1037.56 512.004 1037.65 511.987 1037.82 511.968C1037.98 511.949 1038.19 511.931 1038.46 511.913C1038.99 511.876 1039.71 511.842 1040.63 511.809C1042.47 511.743 1045.06 511.685 1048.33 511.633C1054.68 511.533 1063.59 511.459 1074.47 511.408V543.468C1063.59 543.519 1054.68 543.593 1048.32 543.693C1045.05 543.745 1042.45 543.803 1040.61 543.869C1039.69 543.902 1038.95 543.937 1038.41 543.974C1038.14 543.993 1037.91 544.012 1037.74 544.033C1037.57 544.052 1037.42 544.075 1037.32 544.106L1037.53 544.793C1037.56 544.784 1037.65 544.767 1037.82 544.748C1037.98 544.729 1038.19 544.711 1038.46 544.693C1038.99 544.656 1039.71 544.622 1040.63 544.589C1042.47 544.523 1045.06 544.465 1048.33 544.413C1054.68 544.313 1063.59 544.239 1074.47 544.188V576.248C1063.59 576.299 1054.68 576.373 1048.32 576.473C1045.05 576.525 1042.45 576.583 1040.61 576.649C1039.69 576.682 1038.95 576.717 1038.41 576.754C1038.14 576.773 1037.91 576.792 1037.74 576.813C1037.57 576.832 1037.42 576.855 1037.32 576.886L1037.53 577.573C1037.56 577.564 1037.65 577.547 1037.82 577.528C1037.98 577.509 1038.19 577.491 1038.46 577.473C1038.99 577.436 1039.71 577.402 1040.63 577.369C1042.47 577.303 1045.06 577.244 1048.33 577.193C1054.68 577.093 1063.59 577.019 1074.47 576.967V612.802H1075.19V576.964C1075.25 576.964 1075.31 576.964 1075.37 576.963C1085.56 576.917 1097.43 576.889 1110.53 576.877V612.802H1111.25V576.876C1122.27 576.867 1134.14 576.868 1146.59 576.879V612.802H1147.31V576.879C1152.4 576.884 1157.59 576.89 1162.86 576.897C1169.35 576.906 1175.96 576.917 1182.65 576.93V612.802H1183.37V576.932C1194.97 576.954 1206.81 576.983 1218.72 577.015V612.802H1219.44V577.017C1231.22 577.049 1243.05 577.086 1254.78 577.125V612.802H1255.5V577.128C1267.47 577.168 1279.31 577.211 1290.84 577.256V612.802H1291.56V577.259C1303.77 577.306 1315.62 577.356 1326.9 577.406V612.802H1327.62V577.409C1341.42 577.47 1354.34 577.531 1366 577.59L1366 576.87C1354.35 576.811 1341.42 576.75 1327.62 576.689V544.629C1341.42 544.69 1354.34 544.751 1366 544.81L1366 544.09C1354.35 544.031 1341.42 543.97 1327.62 543.909V511.849C1341.42 511.91 1354.34 511.971 1366 512.03L1366 511.31C1354.35 511.251 1341.42 511.19 1327.62 511.129V479.069C1341.42 479.13 1354.34 479.191 1366 479.25L1366 478.53C1354.35 478.471 1341.42 478.41 1327.62 478.349V446.289C1341.42 446.35 1354.34 446.411 1366 446.47L1366 445.75C1354.35 445.691 1341.42 445.63 1327.62 445.569V413.509C1341.42 413.57 1354.34 413.631 1366 413.69L1366 412.97C1354.35 412.911 1341.42 412.85 1327.62 412.789V380.729C1341.42 380.79 1354.34 380.851 1366 380.91L1366 380.19C1354.35 380.131 1341.42 380.07 1327.62 380.009V347.949C1341.42 348.01 1354.34 348.071 1366 348.13L1366 347.41C1354.35 347.351 1341.42 347.29 1327.62 347.229V315.169C1341.42 315.23 1354.34 315.291 1366 315.35L1366 314.63C1354.35 314.571 1341.42 314.51 1327.62 314.449V282.389C1341.42 282.45 1354.34 282.511 1366 282.57L1366 281.85C1354.35 281.791 1341.42 281.73 1327.62 281.669V249.609C1341.42 249.67 1354.34 249.731 1366 249.79L1366 249.07C1354.35 249.011 1341.42 248.95 1327.62 248.889V216.829C1341.42 216.89 1354.34 216.951 1366 217.01L1366 216.29C1354.35 216.232 1341.42 216.17 1327.62 216.109V192.07H1326.9V216.106C1315.62 216.056 1303.77 216.007 1291.56 215.959V192.07H1290.84V215.957C1279.31 215.912 1267.47 215.868 1255.5 215.828V192.07H1254.78V215.826C1243.05 215.786 1231.22 215.75 1219.44 215.718V192.07H1218.72V215.716C1206.81 215.683 1194.97 215.655 1183.37 215.632V192.07H1182.65V215.631C1175.96 215.618 1169.35 215.607 1162.86 215.598C1157.59 215.59 1152.4 215.584 1147.31 215.58V192.07H1146.59V215.579C1134.14 215.569 1122.27 215.567 1111.25 215.577V192.07H1110.53V215.577C1097.43 215.589 1085.56 215.617 1075.37 215.664L1075.19 215.665V192.07H1074.47ZM1326.9 576.686V544.626C1315.62 544.576 1303.77 544.526 1291.56 544.479V576.539C1303.77 576.587 1315.62 576.636 1326.9 576.686ZM1290.84 576.536V544.476C1279.31 544.431 1267.47 544.388 1255.5 544.348V576.408C1267.47 576.448 1279.31 576.491 1290.84 576.536ZM1254.78 576.405V544.345C1243.05 544.306 1231.22 544.269 1219.44 544.237V576.297C1231.22 576.33 1243.05 576.366 1254.78 576.405ZM1218.72 576.295V544.235C1206.81 544.203 1194.97 544.174 1183.37 544.152V576.212C1194.97 576.235 1206.81 576.263 1218.72 576.295ZM1182.65 576.21V544.15C1175.96 544.137 1169.35 544.126 1162.86 544.117C1157.59 544.11 1152.4 544.104 1147.31 544.099V576.159C1152.4 576.164 1157.59 576.17 1162.86 576.177C1169.35 576.186 1175.96 576.197 1182.65 576.21ZM1146.59 576.159V544.099C1134.14 544.088 1122.27 544.087 1111.25 544.096V576.156C1122.27 576.147 1134.14 576.148 1146.59 576.159ZM1110.53 576.157V544.097C1097.43 544.109 1085.56 544.137 1075.37 544.183L1075.19 544.184V576.244C1075.25 576.244 1075.31 576.244 1075.37 576.243C1085.56 576.197 1097.43 576.169 1110.53 576.157ZM1075.37 543.463L1075.19 543.464V511.404L1075.37 511.403C1085.56 511.357 1097.43 511.329 1110.53 511.317V543.377C1097.43 543.389 1085.56 543.417 1075.37 543.463ZM1146.59 543.379C1134.14 543.368 1122.27 543.367 1111.25 543.376V511.316C1122.27 511.307 1134.14 511.308 1146.59 511.319V543.379ZM1162.86 543.397C1157.59 543.39 1152.4 543.384 1147.31 543.38V511.319C1152.4 511.324 1157.59 511.33 1162.86 511.337C1169.35 511.346 1175.96 511.357 1182.65 511.37V543.43C1175.96 543.417 1169.35 543.406 1162.86 543.397ZM1218.72 543.515C1206.81 543.483 1194.97 543.455 1183.37 543.432V511.372C1194.97 511.395 1206.81 511.423 1218.72 511.455V543.515ZM1254.78 543.625C1243.05 543.586 1231.22 543.55 1219.44 543.517V511.457C1231.22 511.49 1243.05 511.526 1254.78 511.565V543.625ZM1290.84 543.756C1279.31 543.711 1267.47 543.668 1255.5 543.628V511.568C1267.47 511.608 1279.31 511.651 1290.84 511.696V543.756ZM1326.9 543.906C1315.62 543.856 1303.77 543.807 1291.56 543.759V511.699C1303.77 511.746 1315.62 511.796 1326.9 511.846V543.906ZM1326.9 511.126V479.066C1315.62 479.016 1303.77 478.966 1291.56 478.919V510.979C1303.77 511.027 1315.62 511.076 1326.9 511.126ZM1290.84 510.976V478.916C1279.31 478.871 1267.47 478.828 1255.5 478.788V510.848C1267.47 510.888 1279.31 510.931 1290.84 510.976ZM1254.78 510.845V478.785C1243.05 478.746 1231.22 478.71 1219.44 478.677V510.737C1231.22 510.77 1243.05 510.806 1254.78 510.845ZM1218.72 510.735V478.675C1206.81 478.643 1194.97 478.615 1183.37 478.592V510.652C1194.97 510.675 1206.81 510.703 1218.72 510.735ZM1182.65 510.651V478.59C1175.96 478.577 1169.35 478.566 1162.86 478.557C1157.59 478.55 1152.4 478.544 1147.31 478.539V510.6C1152.4 510.604 1157.59 510.61 1162.86 510.617C1169.35 510.626 1175.96 510.638 1182.65 510.651ZM1146.59 510.599V478.539C1134.14 478.528 1122.27 478.527 1111.25 478.536V510.596C1122.27 510.587 1134.14 510.588 1146.59 510.599ZM1110.53 510.597V478.537C1097.43 478.549 1085.56 478.577 1075.37 478.623L1075.19 478.624V510.684L1075.37 510.684C1085.56 510.637 1097.43 510.609 1110.53 510.597ZM1075.37 477.904L1075.19 477.904V445.844L1075.37 445.843C1085.56 445.797 1097.43 445.769 1110.53 445.757V477.817C1097.43 477.829 1085.56 477.857 1075.37 477.904ZM1146.59 477.819C1134.14 477.808 1122.27 477.807 1111.25 477.816V445.756C1122.27 445.747 1134.14 445.748 1146.59 445.759V477.819ZM1162.86 477.837C1157.59 477.83 1152.4 477.824 1147.31 477.82V445.759C1152.4 445.764 1157.59 445.77 1162.86 445.777C1169.35 445.786 1175.96 445.797 1182.65 445.81V477.871C1175.96 477.858 1169.35 477.846 1162.86 477.837ZM1218.72 477.955C1206.81 477.923 1194.97 477.895 1183.37 477.872V445.812C1194.97 445.835 1206.81 445.863 1218.72 445.895V477.955ZM1254.78 478.065C1243.05 478.026 1231.22 477.99 1219.44 477.957V445.897C1231.22 445.93 1243.05 445.966 1254.78 446.005V478.065ZM1290.84 478.196C1279.31 478.151 1267.47 478.108 1255.5 478.068V446.008C1267.47 446.048 1279.31 446.091 1290.84 446.136V478.196ZM1326.9 478.346C1315.62 478.296 1303.77 478.247 1291.56 478.199V446.139C1303.77 446.187 1315.62 446.236 1326.9 446.286V478.346ZM1326.9 445.566V413.506C1315.62 413.456 1303.77 413.407 1291.56 413.359V445.419C1303.77 445.467 1315.62 445.516 1326.9 445.566ZM1290.84 445.416V413.356C1279.31 413.311 1267.47 413.268 1255.5 413.228V445.288C1267.47 445.328 1279.31 445.371 1290.84 445.416ZM1254.78 445.285V413.225C1243.05 413.186 1231.22 413.15 1219.44 413.117V445.177C1231.22 445.21 1243.05 445.246 1254.78 445.285ZM1218.72 445.175V413.115C1206.81 413.083 1194.97 413.055 1183.37 413.032V445.092C1194.97 445.115 1206.81 445.143 1218.72 445.175ZM1182.65 445.091V413.031C1175.96 413.018 1169.35 413.006 1162.86 412.997C1157.59 412.99 1152.4 412.984 1147.31 412.98V445.04C1152.4 445.044 1157.59 445.05 1162.86 445.057C1169.35 445.066 1175.96 445.078 1182.65 445.091ZM1146.59 445.039V412.979C1134.14 412.968 1122.27 412.967 1111.25 412.976V445.037C1122.27 445.027 1134.14 445.028 1146.59 445.039ZM1110.53 445.037V412.977C1097.43 412.989 1085.56 413.017 1075.37 413.063L1075.19 413.064V445.124L1075.37 445.124C1085.56 445.077 1097.43 445.049 1110.53 445.037ZM1075.37 412.344L1075.19 412.344V380.284L1075.37 380.284C1085.56 380.237 1097.43 380.209 1110.53 380.197V412.257C1097.43 412.269 1085.56 412.297 1075.37 412.344ZM1146.59 412.259C1134.14 412.248 1122.27 412.247 1111.25 412.257V380.196C1122.27 380.187 1134.14 380.188 1146.59 380.199V412.259ZM1162.86 412.277C1157.59 412.27 1152.4 412.264 1147.31 412.26V380.2C1152.4 380.204 1157.59 380.21 1162.86 380.217C1169.35 380.226 1175.96 380.238 1182.65 380.251V412.311C1175.96 412.298 1169.35 412.287 1162.86 412.277ZM1218.72 412.396C1206.81 412.363 1194.97 412.335 1183.37 412.312V380.252C1194.97 380.275 1206.81 380.303 1218.72 380.335V412.396ZM1254.78 412.506C1243.05 412.466 1231.22 412.43 1219.44 412.398V380.337C1231.22 380.37 1243.05 380.406 1254.78 380.445V412.506ZM1290.84 412.636C1279.31 412.591 1267.47 412.548 1255.5 412.508V380.448C1267.47 380.488 1279.31 380.531 1290.84 380.576V412.636ZM1326.9 412.786C1315.62 412.736 1303.77 412.687 1291.56 412.639V380.579C1303.77 380.627 1315.62 380.676 1326.9 380.726V412.786ZM1326.9 380.006V347.946C1315.62 347.896 1303.77 347.847 1291.56 347.799V379.859C1303.77 379.907 1315.62 379.956 1326.9 380.006ZM1290.84 379.856V347.796C1279.31 347.751 1267.47 347.708 1255.5 347.668V379.728C1267.47 379.768 1279.31 379.811 1290.84 379.856ZM1254.78 379.726V347.665C1243.05 347.626 1231.22 347.59 1219.44 347.557V379.618C1231.22 379.65 1243.05 379.686 1254.78 379.726ZM1218.72 379.616V347.555C1206.81 347.523 1194.97 347.495 1183.37 347.472V379.532C1194.97 379.555 1206.81 379.583 1218.72 379.616ZM1182.65 379.531V347.471C1175.96 347.458 1169.35 347.446 1162.86 347.437C1157.59 347.43 1152.4 347.424 1147.31 347.42V379.48C1152.4 379.484 1157.59 379.49 1162.86 379.497C1169.35 379.507 1175.96 379.518 1182.65 379.531ZM1146.59 379.479V347.419C1134.14 347.408 1122.27 347.407 1111.25 347.417V379.477C1122.27 379.467 1134.14 379.469 1146.59 379.479ZM1110.53 379.477V347.417C1097.43 347.429 1085.56 347.457 1075.37 347.504L1075.19 347.504V379.565L1075.37 379.564C1085.56 379.517 1097.43 379.489 1110.53 379.477ZM1075.37 346.784L1075.19 346.785V314.724L1075.37 314.724C1085.56 314.677 1097.43 314.649 1110.53 314.637V346.697C1097.43 346.709 1085.56 346.737 1075.37 346.784ZM1146.59 346.699C1134.14 346.689 1122.27 346.687 1111.25 346.697V314.637C1122.27 314.627 1134.14 314.628 1146.59 314.639V346.699ZM1162.86 346.718C1157.59 346.71 1152.4 346.704 1147.31 346.7V314.64C1152.4 314.644 1157.59 314.65 1162.86 314.657C1169.35 314.666 1175.96 314.678 1182.65 314.691V346.751C1175.96 346.738 1169.35 346.727 1162.86 346.718ZM1218.72 346.836C1206.81 346.803 1194.97 346.775 1183.37 346.752V314.692C1194.97 314.715 1206.81 314.743 1218.72 314.775V346.836ZM1254.78 346.946C1243.05 346.906 1231.22 346.87 1219.44 346.838V314.777C1231.22 314.81 1243.05 314.846 1254.78 314.885V346.946ZM1290.84 347.076C1279.31 347.031 1267.47 346.988 1255.5 346.948V314.888C1267.47 314.928 1279.31 314.971 1290.84 315.016V347.076ZM1326.9 347.226C1315.62 347.176 1303.77 347.127 1291.56 347.079V315.019C1303.77 315.067 1315.62 315.116 1326.9 315.166V347.226ZM1326.9 314.446V282.386C1315.62 282.336 1303.77 282.287 1291.56 282.239V314.299C1303.77 314.347 1315.62 314.396 1326.9 314.446ZM1290.84 314.296V282.236C1279.31 282.191 1267.47 282.148 1255.5 282.108V314.168C1267.47 314.208 1279.31 314.252 1290.84 314.296ZM1254.78 314.166V282.106C1243.05 282.066 1231.22 282.03 1219.44 281.997V314.058C1231.22 314.09 1243.05 314.126 1254.78 314.166ZM1218.72 314.056V281.996C1206.81 281.963 1194.97 281.935 1183.37 281.912V313.972C1194.97 313.995 1206.81 314.023 1218.72 314.056ZM1182.65 313.971V281.911C1175.96 281.898 1169.35 281.886 1162.86 281.877C1157.59 281.87 1152.4 281.864 1147.31 281.86V313.92C1152.4 313.924 1157.59 313.93 1162.86 313.938C1169.35 313.947 1175.96 313.958 1182.65 313.971ZM1146.59 313.919V281.859C1134.14 281.848 1122.27 281.847 1111.25 281.857V313.917C1122.27 313.907 1134.14 313.909 1146.59 313.919ZM1110.53 313.917V281.857C1097.43 281.869 1085.56 281.897 1075.37 281.944L1075.19 281.944V314.005L1075.37 314.004C1085.56 313.957 1097.43 313.929 1110.53 313.917ZM1075.37 281.224L1075.19 281.225V249.165L1075.37 249.164C1085.56 249.117 1097.43 249.089 1110.53 249.077V281.137C1097.43 281.149 1085.56 281.177 1075.37 281.224ZM1146.59 281.139C1134.14 281.129 1122.27 281.127 1111.25 281.137V249.077C1122.27 249.067 1134.14 249.069 1146.59 249.079V281.139ZM1162.86 281.158C1157.59 281.15 1152.4 281.144 1147.31 281.14V249.08C1152.4 249.084 1157.59 249.09 1162.86 249.097C1169.35 249.107 1175.96 249.118 1182.65 249.131V281.191C1175.96 281.178 1169.35 281.167 1162.86 281.158ZM1218.72 281.276C1206.81 281.243 1194.97 281.215 1183.37 281.192V249.132C1194.97 249.155 1206.81 249.183 1218.72 249.216V281.276ZM1254.78 281.386C1243.05 281.346 1231.22 281.31 1219.44 281.278V249.218C1231.22 249.25 1243.05 249.286 1254.78 249.326V281.386ZM1290.84 281.516C1279.31 281.472 1267.47 281.428 1255.5 281.388V249.328C1267.47 249.368 1279.31 249.411 1290.84 249.456V281.516ZM1326.9 281.666C1315.62 281.616 1303.77 281.567 1291.56 281.519V249.459C1303.77 249.507 1315.62 249.556 1326.9 249.606V281.666ZM1326.9 248.886V216.826C1315.62 216.776 1303.77 216.727 1291.56 216.679V248.739C1303.77 248.787 1315.62 248.836 1326.9 248.886ZM1290.84 248.736V216.676C1279.31 216.631 1267.47 216.588 1255.5 216.548V248.608C1267.47 248.648 1279.31 248.692 1290.84 248.736ZM1254.78 248.606V216.546C1243.05 216.506 1231.22 216.47 1219.44 216.438V248.498C1231.22 248.53 1243.05 248.566 1254.78 248.606ZM1218.72 248.496V216.436C1206.81 216.403 1194.97 216.375 1183.37 216.352V248.412C1194.97 248.435 1206.81 248.463 1218.72 248.496ZM1182.65 248.411V216.351C1175.96 216.338 1169.35 216.327 1162.86 216.318C1157.59 216.31 1152.4 216.304 1147.31 216.3V248.36C1152.4 248.364 1157.59 248.37 1162.86 248.378C1169.35 248.387 1175.96 248.398 1182.65 248.411ZM1146.59 248.359V216.299C1134.14 216.289 1122.27 216.287 1111.25 216.297V248.357C1122.27 248.347 1134.14 248.349 1146.59 248.359ZM1110.53 248.357V216.297C1097.43 216.309 1085.56 216.337 1075.37 216.384L1075.19 216.385V248.445L1075.37 248.444C1085.56 248.397 1097.43 248.369 1110.53 248.357Z" fill="url(#paint4_radial_2489_2178)"/>
<g filter="url(#filter0_b_2489_2178)">
<rect x="174.316" y="1202.5" width="350.993" height="314.357" rx="27" transform="rotate(-122.548 174.316 1202.5)" fill="url(#paint5_linear_2489_2178)"/>
</g>
<g filter="url(#filter1_b_2489_2178)">
<rect x="1047.54" y="57.0664" width="309.675" height="277.352" rx="27" transform="rotate(57.452 1047.54 57.0664)" fill="url(#paint6_linear_2489_2178)"/>
</g>
<rect x="1151.16" y="510.503" width="309.675" height="277.352" rx="27" transform="rotate(60 1151.16 510.503)" fill="url(#paint7_linear_2489_2178)"/>
<g filter="url(#filter2_b_2489_2178)">
<rect x="140.694" y="77.459" width="309.675" height="277.352" rx="27" transform="rotate(60 140.694 77.459)" fill="url(#paint8_linear_2489_2178)"/>
</g>
</g>
</g>
<defs>
<filter id="filter0_b_2489_2178" x="-14.2378" y="737.795" width="453.256" height="464.428" filterUnits="userSpaceOnUse" color-interpolation-filters="sRGB">
<feFlood flood-opacity="0" result="BackgroundImageFix"/>
<feGaussianBlur in="BackgroundImageFix" stdDeviation="5"/>
<feComposite in2="SourceAlpha" operator="in" result="effect1_backgroundBlur_2489_2178"/>
<feBlend mode="normal" in="SourceGraphic" in2="effect1_backgroundBlur_2489_2178" result="shape"/>
</filter>
<filter id="filter1_b_2489_2178" x="814.026" y="57.3486" width="399.834" height="409.69" filterUnits="userSpaceOnUse" color-interpolation-filters="sRGB">
<feFlood flood-opacity="0" result="BackgroundImageFix"/>
<feGaussianBlur in="BackgroundImageFix" stdDeviation="5"/>
<feComposite in2="SourceAlpha" operator="in" result="effect1_backgroundBlur_2489_2178"/>
<feBlend mode="normal" in="SourceGraphic" in2="effect1_backgroundBlur_2489_2178" result="shape"/>
</filter>
<filter id="filter2_b_2489_2178" x="-99.6218" y="77.3369" width="395.275" height="407.106" filterUnits="userSpaceOnUse" color-interpolation-filters="sRGB">
<feFlood flood-opacity="0" result="BackgroundImageFix"/>
<feGaussianBlur in="BackgroundImageFix" stdDeviation="5"/>
<feComposite in2="SourceAlpha" operator="in" result="effect1_backgroundBlur_2489_2178"/>
<feBlend mode="normal" in="SourceGraphic" in2="effect1_backgroundBlur_2489_2178" result="shape"/>
</filter>
<linearGradient id="paint0_linear_2489_2178" x1="234.753" y1="327.127" x2="21.6368" y2="274.576" gradientUnits="userSpaceOnUse">
<stop stop-color="white" stop-opacity="0.13"/>
<stop offset="1" stop-color="white" stop-opacity="0"/>
</linearGradient>
<linearGradient id="paint1_linear_2489_2178" x1="342.465" y1="327.127" x2="129.349" y2="274.576" gradientUnits="userSpaceOnUse">
<stop stop-color="white" stop-opacity="0.13"/>
<stop offset="1" stop-color="white" stop-opacity="0"/>
</linearGradient>
<linearGradient id="paint2_linear_2489_2178" x1="450.177" y1="327.127" x2="237.06" y2="274.576" gradientUnits="userSpaceOnUse">
<stop stop-color="white" stop-opacity="0.13"/>
<stop offset="1" stop-color="white" stop-opacity="0"/>
</linearGradient>
<radialGradient id="paint3_radial_2489_2178" cx="0" cy="0" r="1" gradientUnits="userSpaceOnUse" gradientTransform="translate(210.999 545.68) rotate(90) scale(235.43 183.921)">
<stop stop-color="#0374ED"/>
<stop offset="1" stop-color="#0374ED" stop-opacity="0"/>
</radialGradient>
<radialGradient id="paint4_radial_2489_2178" cx="0" cy="0" r="1" gradientUnits="userSpaceOnUse" gradientTransform="translate(1201.66 390.199) rotate(90) scale(169.471 132.393)">
<stop stop-color="#0374ED"/>
<stop offset="1" stop-color="#0374ED" stop-opacity="0"/>
</radialGradient>
<linearGradient id="paint5_linear_2489_2178" x1="518.293" y1="1501.49" x2="335.05" y2="1456.3" gradientUnits="userSpaceOnUse">
<stop stop-color="#0374ED" stop-opacity="0.13"/>
<stop offset="1" stop-color="white" stop-opacity="0"/>
</linearGradient>
<linearGradient id="paint6_linear_2489_2178" x1="1351.02" y1="320.854" x2="1189.35" y2="280.988" gradientUnits="userSpaceOnUse">
<stop stop-color="#0374ED" stop-opacity="0.13"/>
<stop offset="1" stop-color="white" stop-opacity="0"/>
</linearGradient>
<linearGradient id="paint7_linear_2489_2178" x1="1454.65" y1="774.291" x2="1292.98" y2="734.425" gradientUnits="userSpaceOnUse">
<stop stop-color="#0374ED" stop-opacity="0.13"/>
<stop offset="1" stop-color="white" stop-opacity="0"/>
</linearGradient>
<linearGradient id="paint8_linear_2489_2178" x1="444.179" y1="341.247" x2="282.506" y2="301.38" gradientUnits="userSpaceOnUse">
<stop stop-color="#0374ED" stop-opacity="0.13"/>
<stop offset="1" stop-color="white" stop-opacity="0"/>
</linearGradient>
<clipPath id="clip0_2489_2178">
<rect y="947" width="947" height="1366" rx="13" transform="rotate(-90 0 947)" fill="white"/>
</clipPath>
<clipPath id="clip1_2489_2178">
<path d="M0 228C0 193.116 0 175.674 10.837 164.837C21.6741 154 39.1161 154 74 154H1292C1326.88 154 1344.33 154 1355.16 164.837C1366 175.674 1366 193.116 1366 228V947H0V228Z" fill="white"/>
</clipPath>
</defs>
</svg>
