<svg width="18" height="19" viewBox="0 0 18 19" fill="none" xmlns="http://www.w3.org/2000/svg">
<path d="M17.4523 14.1327C16.7154 13.1216 15.7096 12.3343 14.7472 11.662L14.1775 11.271L13.6335 10.9022C13.364 10.7177 13.0359 10.6388 12.712 10.6805C12.388 10.7223 12.0907 10.8818 11.8767 11.1286L10.595 12.8544C10.5348 12.9378 10.4463 12.9965 10.3461 13.0196C10.2459 13.0427 10.1407 13.0287 10.0501 12.9801C9.33976 12.5891 8.2818 11.8938 7.48567 11.0977C6.68955 10.3007 5.94826 9.19315 5.51305 8.4333C5.45957 8.33802 5.44462 8.22588 5.47127 8.11993C5.49793 8.01397 5.56416 7.92225 5.65635 7.86362L7.36625 6.7402C7.64061 6.53367 7.82441 6.22898 7.87915 5.88996C7.93389 5.55095 7.85534 5.2039 7.65993 4.9215L7.25391 4.33502C6.49317 3.23902 5.62893 2.06164 4.47632 1.16114C4.2925 1.01833 4.07372 0.927476 3.84282 0.898067C3.61191 0.868659 3.37734 0.901773 3.1636 0.993951C1.43601 1.73435 -0.0350564 3.60789 0.036595 5.55663L0.0516325 5.82201L0.0693231 6.02811L0.095862 6.25634L0.129477 6.5049L0.173705 6.7747C0.182221 6.82194 0.191067 6.86912 0.200244 6.91624L0.263934 7.21346C0.275349 7.26544 0.287144 7.31733 0.299315 7.36914L0.382466 7.6929L0.479771 8.03346L0.594765 8.38907C1.14852 10.022 2.23655 12.0946 4.36309 14.2211C6.48874 16.3468 8.56132 17.4348 10.1943 17.9886L10.5499 18.1036L10.8904 18.2009L11.2142 18.284L11.5203 18.353C11.6161 18.3729 11.7122 18.3915 11.8086 18.4087L12.0784 18.453L12.327 18.4884L12.5552 18.514L12.7613 18.5317L13.0267 18.5459C14.9692 18.6175 16.8561 17.1305 17.5929 15.4109C17.6823 15.2039 17.7163 14.9773 17.6917 14.7532C17.667 14.5291 17.5845 14.3153 17.4523 14.1327ZM14.2722 6.93658L14.2607 6.83397C14.1471 6.19007 13.8326 5.59867 13.3622 5.14451C12.8919 4.69035 12.2898 4.39677 11.6423 4.30583C11.4184 4.27341 11.1905 4.32805 11.0056 4.45851C10.8207 4.58898 10.6928 4.78534 10.6483 5.00721C10.6038 5.22908 10.646 5.45958 10.7662 5.65129C10.8864 5.84299 11.0756 5.98133 11.2947 6.03785L11.3964 6.05819C11.6502 6.09378 11.8883 6.2021 12.0818 6.37007C12.2754 6.53803 12.4161 6.75845 12.4871 7.00469L12.5181 7.1418C12.5574 7.36393 12.6802 7.56262 12.8612 7.69723C13.0422 7.83185 13.2678 7.89223 13.4919 7.86602C13.7159 7.8398 13.9215 7.72898 14.0665 7.55621C14.2116 7.38345 14.2852 7.16179 14.2722 6.93658ZM16.9613 6.92951C16.9613 5.52187 16.4021 4.17188 15.4068 3.17654C14.4114 2.18119 13.0615 1.62201 11.6538 1.62201C11.4284 1.62226 11.2115 1.70859 11.0476 1.86336C10.8836 2.01814 10.785 2.22967 10.7717 2.45475C10.7585 2.67982 10.8318 2.90145 10.9765 3.07434C11.1212 3.24724 11.3264 3.35835 11.5503 3.38498L11.6538 3.39117C12.5522 3.39084 13.417 3.73241 14.0727 4.34653C14.7284 4.96065 15.1258 5.80128 15.1842 6.69774L15.1922 6.92951C15.1922 7.16411 15.2854 7.38911 15.4513 7.555C15.6171 7.72089 15.8421 7.81409 16.0767 7.81409C16.3114 7.81409 16.5363 7.72089 16.7022 7.555C16.8681 7.38911 16.9613 7.16411 16.9613 6.92951Z" fill="#0374ED"/>
</svg>
