<svg width="25" height="25" viewBox="0 0 25 25" fill="none" xmlns="http://www.w3.org/2000/svg">
<path d="M21.374 4.07097C20.5841 3.28103 19.3033 3.28103 18.5134 4.07097L9.82987 12.7545L9.82987 15.6151H12.6905L21.374 6.93159C22.1639 6.14165 22.1639 4.86091 21.374 4.07097Z" fill="#0374ED"/>
<path d="M11.8526 5.50129H6.79572C5.67857 5.50129 4.77295 6.40691 4.77295 7.52405V18.6493C4.77295 19.7664 5.67857 20.672 6.79572 20.672H17.9209C19.0381 20.672 19.9437 19.7664 19.9437 18.6493V13.5924M18.5134 4.07097C19.3033 3.28103 20.5841 3.28103 21.374 4.07097C22.1639 4.86091 22.1639 6.14165 21.374 6.93159L12.6905 15.6151H9.82987L9.82987 12.7545L18.5134 4.07097Z" stroke="#0374ED" stroke-width="2.02277" stroke-linecap="round" stroke-linejoin="round"/>
</svg>
