<svg width="25" height="25" viewBox="0 0 25 25" fill="none" xmlns="http://www.w3.org/2000/svg">
<path d="M17.8577 17.2571C16.9252 18.1897 14.9908 20.124 13.6304 21.4844C12.8047 22.3101 11.4682 22.3101 10.6426 21.4845C9.306 20.1479 7.40895 18.2509 6.41523 17.2571C3.25547 14.0974 3.25547 8.9744 6.41523 5.81464C9.57499 2.65488 14.698 2.65488 17.8577 5.81464C21.0175 8.9744 21.0175 14.0974 17.8577 17.2571Z" fill="#0374ED"/>
<path d="M15.1706 11.5359C15.1706 13.2116 13.8122 14.57 12.1365 14.57C10.4608 14.57 9.10233 13.2116 9.10233 11.5359C9.10233 9.86018 10.4608 8.50174 12.1365 8.50174C13.8122 8.50174 15.1706 9.86018 15.1706 11.5359Z" fill="#0374ED"/>
<path d="M17.8577 17.2571C16.9252 18.1897 14.9908 20.124 13.6304 21.4844C12.8047 22.3101 11.4682 22.3101 10.6426 21.4845C9.306 20.1479 7.40895 18.2509 6.41523 17.2571C3.25547 14.0974 3.25547 8.9744 6.41523 5.81464C9.57499 2.65488 14.698 2.65488 17.8577 5.81464C21.0175 8.9744 21.0175 14.0974 17.8577 17.2571Z" stroke="white" stroke-width="2.02277" stroke-linecap="round" stroke-linejoin="round"/>
<path d="M15.1706 11.5359C15.1706 13.2116 13.8122 14.57 12.1365 14.57C10.4608 14.57 9.10233 13.2116 9.10233 11.5359C9.10233 9.86018 10.4608 8.50174 12.1365 8.50174C13.8122 8.50174 15.1706 9.86018 15.1706 11.5359Z" stroke="white" stroke-width="2.02277" stroke-linecap="round" stroke-linejoin="round"/>
</svg>
