<svg width="430" height="932" viewBox="0 0 430 932" fill="none" xmlns="http://www.w3.org/2000/svg">
<g clip-path="url(#clip0_3312_1704)">
<rect width="430" height="932" rx="19" fill="#0374ED"/>
<path fill-rule="evenodd" clip-rule="evenodd" d="M244.603 -206.361V-173.579C229.489 -173.507 217.112 -173.404 208.277 -173.265C203.738 -173.194 200.132 -173.113 197.568 -173.021C196.286 -172.975 195.261 -172.926 194.509 -172.875C194.134 -172.849 193.822 -172.822 193.578 -172.794C193.346 -172.767 193.141 -172.736 193 -172.692L193.298 -171.737C193.339 -171.75 193.458 -171.773 193.693 -171.8C193.915 -171.826 194.21 -171.852 194.578 -171.877C195.314 -171.928 196.326 -171.976 197.603 -172.021C200.157 -172.113 203.756 -172.194 208.293 -172.265C217.122 -172.404 229.492 -172.507 244.603 -172.579V-128.041C229.489 -127.969 217.112 -127.866 208.277 -127.727C203.738 -127.656 200.132 -127.574 197.568 -127.483C196.286 -127.437 195.261 -127.388 194.509 -127.337C194.134 -127.311 193.822 -127.284 193.578 -127.256C193.346 -127.229 193.141 -127.197 193 -127.154L193.298 -126.199C193.339 -126.212 193.458 -126.235 193.693 -126.262C193.915 -126.288 194.21 -126.314 194.578 -126.339C195.314 -126.389 196.326 -126.438 197.603 -126.483C200.157 -126.575 203.756 -126.656 208.293 -126.727C217.122 -126.866 229.492 -126.969 244.603 -127.041V-82.5025C229.489 -82.4308 217.112 -82.3282 208.277 -82.1891C203.738 -82.1176 200.132 -82.0364 197.568 -81.9446C196.286 -81.8988 195.261 -81.8501 194.509 -81.7985C194.134 -81.7727 193.822 -81.7458 193.578 -81.7177C193.346 -81.6909 193.141 -81.6594 193 -81.6154L193.298 -80.6609C193.339 -80.6736 193.458 -80.6972 193.693 -80.7243C193.915 -80.7499 194.21 -80.7756 194.578 -80.8008C195.314 -80.8514 196.326 -80.8995 197.603 -80.9453C200.157 -81.0366 203.756 -81.1177 208.293 -81.1892C217.122 -81.3283 229.492 -81.4308 244.603 -81.5025V-36.9644C229.489 -36.8927 217.112 -36.7901 208.277 -36.651C203.738 -36.5795 200.132 -36.4983 197.568 -36.4065C196.286 -36.3607 195.261 -36.3121 194.509 -36.2604C194.134 -36.2346 193.822 -36.2078 193.578 -36.1796C193.346 -36.1529 193.141 -36.1213 193 -36.0773L193.298 -35.1228C193.339 -35.1355 193.458 -35.1591 193.693 -35.1862C193.915 -35.2119 194.21 -35.2375 194.578 -35.2628C195.314 -35.3133 196.326 -35.3615 197.603 -35.4072C200.157 -35.4986 203.756 -35.5796 208.293 -35.6511C217.122 -35.7902 229.492 -35.8927 244.603 -35.9644V8.57367C229.489 8.64536 217.112 8.74794 208.277 8.88712C203.738 8.95862 200.132 9.03981 197.568 9.13156C196.286 9.17741 195.261 9.22603 194.509 9.27768C194.134 9.30348 193.822 9.33032 193.578 9.35849C193.346 9.38522 193.141 9.41676 193 9.46074L193.298 10.4152C193.339 10.4026 193.458 10.379 193.693 10.3519C193.915 10.3262 194.21 10.3006 194.578 10.2753C195.314 10.2248 196.326 10.1766 197.603 10.1309C200.157 10.0395 203.756 9.95847 208.293 9.88699C217.122 9.74791 229.492 9.64537 244.603 9.57368V54.1118C229.489 54.1834 217.112 54.286 208.277 54.4252C203.738 54.4967 200.132 54.5779 197.568 54.6696C196.286 54.7155 195.261 54.7641 194.509 54.8158C194.134 54.8416 193.822 54.8684 193.578 54.8966C193.346 54.9233 193.141 54.9549 193 54.9988L193.298 55.9533C193.339 55.9407 193.458 55.9171 193.693 55.89C193.915 55.8643 194.21 55.8387 194.578 55.8134C195.314 55.7629 196.326 55.7147 197.603 55.669C200.157 55.5776 203.756 55.4966 208.293 55.4251C217.122 55.286 229.492 55.1834 244.603 55.1118V99.6498C229.489 99.7215 217.112 99.8241 208.277 99.9633C203.738 100.035 200.132 100.116 197.568 100.208C196.286 100.254 195.261 100.302 194.509 100.354C194.134 100.38 193.822 100.406 193.578 100.435C193.346 100.461 193.141 100.493 193 100.537L193.298 101.491C193.339 101.479 193.458 101.455 193.693 101.428C193.915 101.402 194.21 101.377 194.578 101.352C195.314 101.301 196.326 101.253 197.603 101.207C200.157 101.116 203.756 101.035 208.293 100.963C217.122 100.824 229.492 100.722 244.603 100.65V145.188C229.489 145.26 217.112 145.362 208.277 145.501C203.738 145.573 200.132 145.654 197.568 145.746C196.286 145.792 195.261 145.84 194.509 145.892C194.134 145.918 193.822 145.945 193.578 145.973C193.346 145.999 193.141 146.031 193 146.075L193.298 147.029C193.339 147.017 193.458 146.993 193.693 146.966C193.915 146.94 194.21 146.915 194.578 146.89C195.314 146.839 196.326 146.791 197.603 146.745C200.157 146.654 203.756 146.573 208.293 146.501C217.122 146.362 229.492 146.26 244.603 146.188V190.726C229.489 190.798 217.112 190.9 208.277 191.039C203.738 191.111 200.132 191.192 197.568 191.284C196.286 191.33 195.261 191.378 194.509 191.43C194.134 191.456 193.822 191.483 193.578 191.511C193.346 191.538 193.141 191.569 193 191.613L193.298 192.568C193.339 192.555 193.458 192.531 193.693 192.504C193.915 192.479 194.21 192.453 194.578 192.428C195.314 192.377 196.326 192.329 197.603 192.283C200.157 192.192 203.756 192.111 208.293 192.039C217.122 191.9 229.492 191.798 244.603 191.726V236.264C229.489 236.336 217.112 236.438 208.277 236.578C203.738 236.649 200.132 236.73 197.568 236.822C196.286 236.868 195.261 236.916 194.509 236.968C194.134 236.994 193.822 237.021 193.578 237.049C193.346 237.076 193.141 237.107 193 237.151L193.298 238.106C193.339 238.093 193.458 238.069 193.693 238.042C193.915 238.017 194.21 237.991 194.578 237.966C195.314 237.915 196.326 237.867 197.603 237.821C200.157 237.73 203.756 237.649 208.293 237.577C217.122 237.438 229.492 237.336 244.603 237.264V281.802C229.489 281.874 217.112 281.976 208.277 282.116C203.738 282.187 200.132 282.268 197.568 282.36C196.286 282.406 195.261 282.455 194.509 282.506C194.134 282.532 193.822 282.559 193.578 282.587C193.346 282.614 193.141 282.645 193 282.689L193.298 283.644C193.339 283.631 193.458 283.607 193.693 283.58C193.915 283.555 194.21 283.529 194.578 283.504C195.314 283.453 196.326 283.405 197.603 283.359C200.157 283.268 203.756 283.187 208.293 283.116C217.122 282.976 229.492 282.874 244.603 282.802V327.34C229.489 327.412 217.112 327.515 208.277 327.654C203.738 327.725 200.132 327.806 197.568 327.898C196.286 327.944 195.261 327.993 194.509 328.044C194.134 328.07 193.822 328.097 193.578 328.125C193.346 328.152 193.141 328.183 193 328.227L193.298 329.182C193.339 329.169 193.458 329.146 193.693 329.118C193.915 329.093 194.21 329.067 194.578 329.042C195.314 328.991 196.326 328.943 197.603 328.898C200.157 328.806 203.756 328.725 208.293 328.654C217.122 328.515 229.492 328.412 244.603 328.34V378.121H245.603V328.336C245.689 328.335 245.775 328.335 245.861 328.334C260.017 328.269 276.511 328.231 294.701 328.214V378.121H295.701V328.213C311.009 328.2 327.501 328.202 344.8 328.217V378.121H345.8V328.218C352.874 328.224 360.082 328.232 367.397 328.242C376.417 328.255 385.6 328.271 394.898 328.289V378.121H395.898V328.291C412.008 328.322 428.458 328.361 444.997 328.406V378.121H445.997V328.409C462.361 328.454 478.808 328.505 495.095 328.559V378.121H496.095V328.563C512.719 328.619 529.171 328.679 545.194 328.741V378.121H546.194V328.745C563.15 328.811 579.619 328.88 595.292 328.949V378.121H596.292V328.953C615.452 329.038 633.409 329.123 649.599 329.205L649.604 328.205C633.413 328.123 615.454 328.038 596.292 327.953V283.415C615.452 283.5 633.409 283.585 649.599 283.667L649.604 282.667C633.413 282.585 615.454 282.5 596.292 282.415V237.877C615.452 237.962 633.409 238.047 649.599 238.128L649.604 237.128C633.413 237.047 615.454 236.962 596.292 236.877V192.339C615.452 192.424 633.409 192.509 649.599 192.59L649.604 191.59C633.413 191.509 615.454 191.424 596.292 191.339V146.801C615.452 146.886 633.409 146.971 649.599 147.052L649.604 146.052C633.413 145.971 615.454 145.886 596.292 145.801V101.263C615.452 101.347 633.409 101.433 649.599 101.514L649.604 100.514C633.413 100.433 615.454 100.347 596.292 100.263V55.7247C615.452 55.8094 633.409 55.8945 649.599 55.9761L649.604 54.9761C633.413 54.8945 615.454 54.8094 596.292 54.7247V10.1866C615.452 10.2713 633.409 10.3564 649.599 10.438L649.604 9.43799C633.413 9.3564 615.454 9.27126 596.292 9.18661V-35.3515C615.452 -35.2668 633.409 -35.1817 649.599 -35.1001L649.604 -36.1001C633.413 -36.1817 615.454 -36.2668 596.292 -36.3515V-80.8895C615.452 -80.8049 633.409 -80.7198 649.599 -80.6382L649.604 -81.6382C633.413 -81.7198 615.454 -81.8049 596.292 -81.8895V-126.428C615.452 -126.343 633.409 -126.258 649.599 -126.176L649.604 -127.176C633.413 -127.258 615.454 -127.343 596.292 -127.428V-171.966C615.452 -171.881 633.409 -171.796 649.599 -171.714L649.604 -172.714C633.413 -172.796 615.454 -172.881 596.292 -172.966V-206.361H595.292V-172.97C579.619 -173.039 563.15 -173.108 546.194 -173.174V-206.361H545.194V-173.178C529.171 -173.24 512.719 -173.3 496.095 -173.356V-206.361H495.095V-173.36C478.808 -173.414 462.361 -173.465 445.997 -173.51V-206.361H444.997V-173.512C428.458 -173.558 412.008 -173.597 395.898 -173.628V-206.361H394.898V-173.63C385.6 -173.648 376.418 -173.664 367.399 -173.676C360.083 -173.687 352.875 -173.695 345.8 -173.701V-206.361H344.8V-173.702C327.501 -173.717 311.009 -173.719 295.701 -173.705V-206.361H294.701V-173.705C276.51 -173.688 260.014 -173.649 245.856 -173.585L245.603 -173.583V-206.361H244.603ZM595.292 327.949V283.411C579.619 283.342 563.15 283.273 546.194 283.207V327.745C563.15 327.811 579.619 327.88 595.292 327.949ZM545.194 327.741V283.203C529.171 283.141 512.719 283.08 496.095 283.025V327.563C512.719 327.619 529.171 327.679 545.194 327.741ZM495.095 327.559V283.021C478.808 282.967 462.361 282.916 445.997 282.871V327.409C462.361 327.454 478.808 327.505 495.095 327.559ZM444.997 327.406V282.868C428.458 282.823 412.008 282.784 395.898 282.752V327.291C412.008 327.322 428.458 327.361 444.997 327.406ZM394.898 327.289V282.75C385.6 282.732 376.417 282.717 367.397 282.704C360.082 282.694 352.874 282.686 345.8 282.68V327.218C352.875 327.224 360.083 327.232 367.399 327.242C376.418 327.255 385.6 327.271 394.898 327.289ZM344.8 327.217V282.679C327.501 282.664 311.009 282.662 295.701 282.675V327.213C311.009 327.2 327.501 327.202 344.8 327.217ZM294.701 327.214V282.676C276.511 282.693 260.017 282.731 245.861 282.796L245.603 282.798V327.336C245.687 327.335 245.772 327.335 245.856 327.334C260.014 327.269 276.51 327.231 294.701 327.214ZM245.856 281.796L245.603 281.797V237.259L245.861 237.258C260.017 237.193 276.511 237.155 294.701 237.138V281.676C276.51 281.693 260.014 281.731 245.856 281.796ZM344.8 281.679C327.501 281.664 311.009 281.662 295.701 281.675V237.137C311.009 237.124 327.501 237.126 344.8 237.141V281.679ZM367.399 281.704C360.083 281.694 352.875 281.686 345.8 281.68V237.142C352.874 237.148 360.082 237.156 367.397 237.166C376.417 237.179 385.6 237.194 394.898 237.212V281.75C385.6 281.732 376.418 281.717 367.399 281.704ZM444.997 281.868C428.458 281.823 412.008 281.784 395.898 281.752V237.214C412.008 237.246 428.458 237.285 444.997 237.33V281.868ZM495.095 282.021C478.808 281.967 462.361 281.916 445.997 281.871V237.333C462.361 237.378 478.808 237.429 495.095 237.483V282.021ZM545.194 282.203C529.171 282.141 512.719 282.08 496.095 282.025V237.486C512.719 237.542 529.171 237.602 545.194 237.665V282.203ZM595.292 282.411C579.619 282.342 563.15 282.273 546.194 282.207V237.669C563.15 237.735 579.619 237.804 595.292 237.873V282.411ZM595.292 236.873V192.335C579.619 192.266 563.15 192.197 546.194 192.131V236.669C563.15 236.735 579.619 236.804 595.292 236.873ZM545.194 236.665V192.127C529.171 192.064 512.719 192.004 496.095 191.948V236.486C512.719 236.542 529.171 236.602 545.194 236.665ZM495.095 236.483V191.945C478.808 191.89 462.361 191.84 445.997 191.795V236.333C462.361 236.378 478.808 236.429 495.095 236.483ZM444.997 236.33V191.792C428.458 191.747 412.008 191.708 395.898 191.676V236.214C412.008 236.246 428.458 236.285 444.997 236.33ZM394.898 236.212V191.674C385.6 191.656 376.417 191.641 367.397 191.628C360.082 191.618 352.874 191.61 345.8 191.603V236.142C352.875 236.148 360.083 236.156 367.399 236.166C376.418 236.179 385.6 236.194 394.898 236.212ZM344.8 236.141V191.603C327.501 191.588 311.009 191.586 295.701 191.599V236.137C311.009 236.124 327.501 236.126 344.8 236.141ZM294.701 236.138V191.6C276.511 191.617 260.017 191.655 245.861 191.72L245.603 191.721V236.259L245.856 236.258C260.014 236.193 276.51 236.155 294.701 236.138ZM245.856 190.72L245.603 190.721V146.183L245.861 146.182C260.017 146.117 276.511 146.079 294.701 146.062V190.6C276.51 190.617 260.014 190.655 245.856 190.72ZM344.8 190.603C327.501 190.588 311.009 190.586 295.701 190.599V146.061C311.009 146.048 327.501 146.05 344.8 146.065V190.603ZM367.399 190.628C360.083 190.618 352.875 190.61 345.8 190.603V146.065C352.874 146.072 360.082 146.08 367.397 146.09C376.417 146.103 385.6 146.118 394.898 146.136V190.674C385.6 190.656 376.418 190.641 367.399 190.628ZM444.997 190.792C428.458 190.747 412.008 190.708 395.898 190.676V146.138C412.008 146.17 428.458 146.209 444.997 146.254V190.792ZM495.095 190.945C478.808 190.89 462.361 190.84 445.997 190.795V146.257C462.361 146.302 478.808 146.352 495.095 146.407V190.945ZM545.194 191.127C529.171 191.064 512.719 191.004 496.095 190.948V146.41C512.719 146.466 529.171 146.526 545.194 146.589V191.127ZM595.292 191.335C579.619 191.265 563.15 191.197 546.194 191.131V146.593C563.15 146.659 579.619 146.727 595.292 146.796V191.335ZM595.292 145.796V101.258C579.619 101.189 563.15 101.121 546.194 101.054V145.592C563.15 145.659 579.619 145.727 595.292 145.796ZM545.194 145.589V101.051C529.171 100.988 512.719 100.928 496.095 100.872V145.41C512.719 145.466 529.171 145.526 545.194 145.589ZM495.095 145.407V100.869C478.808 100.814 462.361 100.764 445.997 100.719V145.257C462.361 145.302 478.808 145.352 495.095 145.407ZM444.997 145.254V100.716C428.458 100.671 412.008 100.632 395.898 100.6V145.138C412.008 145.17 428.458 145.209 444.997 145.254ZM394.898 145.136V100.598C385.6 100.58 376.417 100.565 367.397 100.552C360.082 100.542 352.874 100.534 345.8 100.527V145.065C352.875 145.072 360.083 145.08 367.399 145.09C376.418 145.103 385.6 145.118 394.898 145.136ZM344.8 145.065V100.526C327.501 100.512 311.009 100.51 295.701 100.523V145.061C311.009 145.048 327.501 145.05 344.8 145.065ZM294.701 145.062V100.524C276.511 100.541 260.017 100.579 245.861 100.644L245.603 100.645V145.183L245.856 145.182C260.014 145.117 276.51 145.079 294.701 145.062ZM245.856 99.644L245.603 99.6451V55.1071L245.861 55.1059C260.017 55.041 276.511 55.0025 294.701 54.9858V99.5239C276.51 99.5406 260.014 99.579 245.856 99.644ZM344.8 99.5265C327.501 99.5118 311.009 99.5097 295.701 99.523V54.9849C311.009 54.9716 327.501 54.9737 344.8 54.9884V99.5265ZM367.399 99.552C360.083 99.5418 352.875 99.5335 345.8 99.5273V54.9892C352.874 54.9954 360.082 55.0037 367.397 55.0139C376.417 55.0265 385.6 55.042 394.898 55.0601V99.5981C385.6 99.5801 376.418 99.5646 367.399 99.552ZM444.997 99.716C428.458 99.6709 412.008 99.6317 395.898 99.6001V55.062C412.008 55.0936 428.458 55.1328 444.997 55.178V99.716ZM495.095 99.8689C478.808 99.8143 462.361 99.7636 445.997 99.7188V55.1807C462.361 55.2256 478.808 55.2762 495.095 55.3308V99.8689ZM545.194 100.051C529.171 99.9882 512.719 99.9281 496.095 99.8722V55.3341C512.719 55.39 529.171 55.4501 545.194 55.5125V100.051ZM595.292 100.258C579.619 100.189 563.15 100.121 546.194 100.054V55.5164C563.15 55.5825 579.619 55.6512 595.292 55.7203V100.258ZM595.292 54.7203V10.1822C579.619 10.1131 563.15 10.0444 546.194 9.97827V54.5163C563.15 54.5825 579.619 54.6512 595.292 54.7203ZM545.194 54.5125V9.97437C529.171 9.912 512.719 9.85197 496.095 9.79605V54.3341C512.719 54.39 529.171 54.4501 545.194 54.5125ZM495.095 54.3308V9.79269C478.808 9.7381 462.361 9.6875 445.997 9.64262V54.1807C462.361 54.2256 478.808 54.2762 495.095 54.3308ZM444.997 54.1779V9.63988C428.458 9.59476 412.008 9.55551 395.898 9.52393V54.062C412.008 54.0936 428.458 54.1328 444.997 54.1779ZM394.898 54.0601V9.52197C385.6 9.50391 376.417 9.48843 367.397 9.47585C360.082 9.46564 352.874 9.45735 345.8 9.45116V53.9892C352.875 53.9954 360.083 54.0037 367.399 54.0139C376.418 54.0265 385.6 54.042 394.898 54.0601ZM344.8 53.9884V9.4503C327.501 9.43562 311.009 9.43358 295.701 9.44685V53.9849C311.009 53.9716 327.501 53.9737 344.8 53.9884ZM294.701 53.9858V9.44775C276.511 9.46439 260.017 9.50288 245.861 9.56781L245.603 9.569V54.1071L245.856 54.1059C260.014 54.041 276.51 54.0025 294.701 53.9858ZM245.856 8.56783L245.603 8.56898V-35.9691L245.861 -35.9703C260.017 -36.0352 276.511 -36.0737 294.701 -36.0903V8.44775C276.51 8.46439 260.014 8.50288 245.856 8.56783ZM344.8 8.4503C327.501 8.43562 311.009 8.43358 295.701 8.44685V-36.0912C311.009 -36.1045 327.501 -36.1025 344.8 -36.0878V8.4503ZM367.399 8.47585C360.083 8.46564 352.875 8.45735 345.8 8.45116V-36.0869C352.874 -36.0807 360.082 -36.0724 367.397 -36.0622C376.417 -36.0497 385.6 -36.0342 394.898 -36.0161V8.52197C385.6 8.50391 376.418 8.48843 367.399 8.47585ZM444.997 8.63989C428.458 8.59477 412.008 8.55551 395.898 8.52393V-36.0142C412.008 -35.9826 428.458 -35.9433 444.997 -35.8982V8.63989ZM495.095 8.79269C478.808 8.7381 462.361 8.6875 445.997 8.64262V-35.8955C462.361 -35.8506 478.808 -35.8 495.095 -35.7454V8.79269ZM545.194 8.97437C529.171 8.91202 512.719 8.85196 496.095 8.79605V-35.742C512.719 -35.6861 529.171 -35.6261 545.194 -35.5637V8.97437ZM595.292 9.18221C579.619 9.11313 563.15 9.04442 546.194 8.97826V-35.5598C563.15 -35.4937 579.619 -35.4249 595.292 -35.3559V9.18221ZM595.292 -36.3559V-80.894C579.619 -80.963 563.15 -81.0317 546.194 -81.0979V-36.5598C563.15 -36.4937 579.619 -36.425 595.292 -36.3559ZM545.194 -36.5637V-81.1018C529.171 -81.1642 512.719 -81.2242 496.095 -81.2801V-36.742C512.719 -36.6861 529.171 -36.6261 545.194 -36.5637ZM495.095 -36.7454V-81.2835C478.808 -81.3381 462.361 -81.3887 445.997 -81.4335V-36.8955C462.361 -36.8506 478.808 -36.8 495.095 -36.7454ZM444.997 -36.8982V-81.4363C428.458 -81.4814 412.008 -81.5207 395.898 -81.5522V-37.0142C412.008 -36.9826 428.458 -36.9433 444.997 -36.8982ZM394.898 -37.0161V-81.5542C385.6 -81.5723 376.417 -81.5877 367.397 -81.6003C360.082 -81.6105 352.874 -81.6188 345.8 -81.625V-37.0869C352.875 -37.0807 360.083 -37.0724 367.399 -37.0622C376.418 -37.0497 385.6 -37.0342 394.898 -37.0161ZM344.8 -37.0878V-81.6259C327.501 -81.6406 311.009 -81.6426 295.701 -81.6293V-37.0912C311.009 -37.1045 327.501 -37.1025 344.8 -37.0878ZM294.701 -37.0903V-81.6284C276.511 -81.6118 260.017 -81.5733 245.861 -81.5084L245.603 -81.5072V-36.9691L245.856 -36.9703C260.014 -37.0352 276.51 -37.0737 294.701 -37.0903ZM245.856 -82.5084L245.603 -82.5072V-127.045L245.861 -127.046C260.017 -127.111 276.511 -127.15 294.701 -127.167V-82.6284C276.51 -82.6118 260.014 -82.5733 245.856 -82.5084ZM344.8 -82.6259C327.501 -82.6406 311.009 -82.6426 295.701 -82.6293V-127.167C311.009 -127.181 327.501 -127.179 344.8 -127.164V-82.6259ZM367.399 -82.6003C360.083 -82.6105 352.875 -82.6188 345.8 -82.625V-127.163C352.874 -127.157 360.082 -127.149 367.397 -127.138C376.417 -127.126 385.6 -127.11 394.898 -127.092V-82.5542C385.6 -82.5723 376.418 -82.5877 367.399 -82.6003ZM444.997 -82.4363C428.458 -82.4814 412.008 -82.5207 395.898 -82.5522V-127.09C412.008 -127.059 428.458 -127.02 444.997 -126.974V-82.4363ZM495.095 -82.2835C478.808 -82.3381 462.361 -82.3887 445.997 -82.4336V-126.972C462.361 -126.927 478.808 -126.876 495.095 -126.822V-82.2835ZM545.194 -82.1018C529.171 -82.1642 512.719 -82.2242 496.095 -82.2801V-126.818C512.719 -126.762 529.171 -126.702 545.194 -126.64V-82.1018ZM595.292 -81.894C579.619 -81.963 563.15 -82.0317 546.194 -82.0979V-126.636C563.15 -126.57 579.619 -126.501 595.292 -126.432V-81.894ZM595.292 -127.432V-171.97C579.619 -172.039 563.15 -172.108 546.194 -172.174V-127.636C563.15 -127.57 579.619 -127.501 595.292 -127.432ZM545.194 -127.64V-172.178C529.171 -172.24 512.719 -172.3 496.095 -172.356V-127.818C512.719 -127.762 529.171 -127.702 545.194 -127.64ZM495.095 -127.822V-172.36C478.808 -172.414 462.361 -172.465 445.997 -172.51V-127.972C462.361 -127.927 478.808 -127.876 495.095 -127.822ZM444.997 -127.974V-172.512C428.458 -172.558 412.008 -172.597 395.898 -172.628V-128.09C412.008 -128.059 428.458 -128.02 444.997 -127.974ZM394.898 -128.092V-172.63C385.6 -172.648 376.417 -172.664 367.397 -172.677C360.082 -172.687 352.874 -172.695 345.8 -172.701V-128.163C352.875 -128.157 360.083 -128.149 367.399 -128.138C376.418 -128.126 385.6 -128.11 394.898 -128.092ZM344.8 -128.164V-172.702C327.501 -172.717 311.009 -172.719 295.701 -172.705V-128.167C311.009 -128.181 327.501 -128.179 344.8 -128.164ZM294.701 -128.167V-172.705C276.511 -172.688 260.017 -172.649 245.861 -172.585L245.603 -172.583V-128.045L245.856 -128.046C260.014 -128.111 276.51 -128.15 294.701 -128.167Z" fill="url(#paint0_radial_3312_1704)"/>
<path fill-rule="evenodd" clip-rule="evenodd" d="M-99.6993 188.93V221.712C-114.813 221.784 -127.19 221.886 -136.025 222.025C-140.564 222.097 -144.17 222.178 -146.734 222.27C-148.016 222.316 -149.041 222.364 -149.793 222.416C-150.168 222.442 -150.48 222.469 -150.724 222.497C-150.955 222.523 -151.161 222.555 -151.302 222.599L-151.004 223.553C-150.963 223.541 -150.844 223.517 -150.609 223.49C-150.387 223.464 -150.092 223.439 -149.724 223.414C-148.988 223.363 -147.976 223.315 -146.699 223.269C-144.145 223.178 -140.546 223.097 -136.009 223.025C-127.18 222.886 -114.81 222.784 -99.6993 222.712V267.25C-114.813 267.322 -127.19 267.424 -136.025 267.563C-140.564 267.635 -144.17 267.716 -146.734 267.808C-148.016 267.854 -149.041 267.902 -149.793 267.954C-150.168 267.98 -150.48 268.007 -150.724 268.035C-150.955 268.061 -151.161 268.093 -151.302 268.137L-151.004 269.091C-150.963 269.079 -150.844 269.055 -150.609 269.028C-150.387 269.002 -150.092 268.977 -149.724 268.952C-148.988 268.901 -147.976 268.853 -146.699 268.807C-144.145 268.716 -140.546 268.635 -136.009 268.563C-127.18 268.424 -114.81 268.322 -99.6993 268.25V312.788C-114.813 312.86 -127.19 312.962 -136.025 313.101C-140.564 313.173 -144.17 313.254 -146.734 313.346C-148.016 313.392 -149.041 313.44 -149.793 313.492C-150.168 313.518 -150.48 313.545 -150.724 313.573C-150.955 313.6 -151.161 313.631 -151.302 313.675L-151.004 314.63C-150.963 314.617 -150.844 314.593 -150.609 314.566C-150.387 314.541 -150.092 314.515 -149.724 314.49C-148.988 314.439 -147.976 314.391 -146.699 314.345C-144.145 314.254 -140.546 314.173 -136.009 314.101C-127.18 313.962 -114.81 313.86 -99.6993 313.788V358.326C-114.813 358.398 -127.19 358.5 -136.025 358.64C-140.564 358.711 -144.17 358.792 -146.734 358.884C-148.016 358.93 -149.041 358.978 -149.793 359.03C-150.168 359.056 -150.48 359.083 -150.724 359.111C-150.955 359.138 -151.161 359.169 -151.302 359.213L-151.004 360.168C-150.963 360.155 -150.844 360.131 -150.609 360.104C-150.387 360.079 -150.092 360.053 -149.724 360.028C-148.988 359.977 -147.976 359.929 -146.699 359.883C-144.145 359.792 -140.546 359.711 -136.009 359.639C-127.18 359.5 -114.81 359.398 -99.6993 359.326V403.864C-114.813 403.936 -127.19 404.038 -136.025 404.178C-140.564 404.249 -144.17 404.33 -146.734 404.422C-148.016 404.468 -149.041 404.517 -149.793 404.568C-150.168 404.594 -150.48 404.621 -150.724 404.649C-150.955 404.676 -151.161 404.707 -151.302 404.751L-151.004 405.706C-150.963 405.693 -150.844 405.669 -150.609 405.642C-150.387 405.617 -150.092 405.591 -149.724 405.566C-148.988 405.515 -147.976 405.467 -146.699 405.421C-144.145 405.33 -140.546 405.249 -136.009 405.178C-127.18 405.038 -114.81 404.936 -99.6993 404.864V449.402C-114.813 449.474 -127.19 449.577 -136.025 449.716C-140.564 449.787 -144.17 449.868 -146.734 449.96C-148.016 450.006 -149.041 450.055 -149.793 450.106C-150.168 450.132 -150.48 450.159 -150.724 450.187C-150.955 450.214 -151.161 450.245 -151.302 450.289L-151.004 451.244C-150.963 451.231 -150.844 451.208 -150.609 451.18C-150.387 451.155 -150.092 451.129 -149.724 451.104C-148.988 451.053 -147.976 451.005 -146.699 450.96C-144.145 450.868 -140.546 450.787 -136.009 450.716C-127.18 450.577 -114.81 450.474 -99.6993 450.402V494.94C-114.813 495.012 -127.19 495.115 -136.025 495.254C-140.564 495.325 -144.17 495.407 -146.734 495.498C-148.016 495.544 -149.041 495.593 -149.793 495.644C-150.168 495.67 -150.48 495.697 -150.724 495.725C-150.955 495.752 -151.161 495.783 -151.302 495.827L-151.004 496.782C-150.963 496.769 -150.844 496.746 -150.609 496.719C-150.387 496.693 -150.092 496.667 -149.724 496.642C-148.988 496.591 -147.976 496.543 -146.699 496.498C-144.145 496.406 -140.546 496.325 -136.009 496.254C-127.18 496.115 -114.81 496.012 -99.6993 495.94V540.478C-114.813 540.55 -127.19 540.653 -136.025 540.792C-140.564 540.863 -144.17 540.945 -146.734 541.036C-148.016 541.082 -149.041 541.131 -149.793 541.182C-150.168 541.208 -150.48 541.235 -150.724 541.263C-150.955 541.29 -151.161 541.322 -151.302 541.366L-151.004 542.32C-150.963 542.307 -150.844 542.284 -150.609 542.257C-150.387 542.231 -150.092 542.205 -149.724 542.18C-148.988 542.13 -147.976 542.081 -146.699 542.036C-144.145 541.944 -140.546 541.863 -136.009 541.792C-127.18 541.653 -114.81 541.55 -99.6993 541.478V586.017C-114.813 586.088 -127.19 586.191 -136.025 586.33C-140.564 586.401 -144.17 586.483 -146.734 586.574C-148.016 586.62 -149.041 586.669 -149.793 586.721C-150.168 586.746 -150.48 586.773 -150.724 586.801C-150.955 586.828 -151.161 586.86 -151.302 586.904L-151.004 587.858C-150.963 587.845 -150.844 587.822 -150.609 587.795C-150.387 587.769 -150.092 587.743 -149.724 587.718C-148.988 587.668 -147.976 587.62 -146.699 587.574C-144.145 587.482 -140.546 587.401 -136.009 587.33C-127.18 587.191 -114.81 587.088 -99.6993 587.017V631.555C-114.813 631.626 -127.19 631.729 -136.025 631.868C-140.564 631.94 -144.17 632.021 -146.734 632.113C-148.016 632.158 -149.041 632.207 -149.793 632.259C-150.168 632.284 -150.48 632.311 -150.724 632.339C-150.955 632.366 -151.161 632.398 -151.302 632.442L-151.004 633.396C-150.963 633.384 -150.844 633.36 -150.609 633.333C-150.387 633.307 -150.092 633.282 -149.724 633.256C-148.988 633.206 -147.976 633.158 -146.699 633.112C-144.145 633.02 -140.546 632.939 -136.009 632.868C-127.18 632.729 -114.81 632.626 -99.6993 632.555V677.093C-114.813 677.164 -127.19 677.267 -136.025 677.406C-140.564 677.478 -144.17 677.559 -146.734 677.651C-148.016 677.696 -149.041 677.745 -149.793 677.797C-150.168 677.823 -150.48 677.849 -150.724 677.878C-150.955 677.904 -151.161 677.936 -151.302 677.98L-151.004 678.934C-150.963 678.922 -150.844 678.898 -150.609 678.871C-150.387 678.845 -150.092 678.82 -149.724 678.794C-148.988 678.744 -147.976 678.696 -146.699 678.65C-144.145 678.559 -140.546 678.478 -136.009 678.406C-127.18 678.267 -114.81 678.164 -99.6993 678.093V722.631C-114.813 722.703 -127.19 722.805 -136.025 722.944C-140.564 723.016 -144.17 723.097 -146.734 723.189C-148.016 723.235 -149.041 723.283 -149.793 723.335C-150.168 723.361 -150.48 723.387 -150.724 723.416C-150.955 723.442 -151.161 723.474 -151.302 723.518L-151.004 724.472C-150.963 724.46 -150.844 724.436 -150.609 724.409C-150.387 724.383 -150.092 724.358 -149.724 724.332C-148.988 724.282 -147.976 724.234 -146.699 724.188C-144.145 724.097 -140.546 724.016 -136.009 723.944C-127.18 723.805 -114.81 723.702 -99.6993 723.631V773.412H-98.6993V723.626C-98.6133 723.626 -98.5273 723.625 -98.4412 723.625C-84.2845 723.56 -67.7906 723.522 -49.6008 723.505V773.412H-48.6008V723.504C-33.2933 723.491 -16.801 723.493 0.497635 723.507V773.412H1.49763V723.508C8.57225 723.514 15.78 723.523 23.0953 723.533C32.115 723.546 41.298 723.561 50.5961 723.579V773.412H51.5961V723.581C67.7061 723.613 84.1557 723.652 100.695 723.697V773.412H101.695V723.7C118.059 723.745 134.506 723.795 150.793 723.85V773.412H151.793V723.853C168.417 723.909 184.869 723.969 200.892 724.031V773.412H201.892V724.035C218.848 724.102 235.317 724.17 250.99 724.239V773.412H251.99V724.244C271.15 724.328 289.107 724.414 305.297 724.495L305.302 723.495C289.111 723.414 271.152 723.328 251.99 723.244V678.706C271.15 678.79 289.107 678.875 305.297 678.957L305.302 677.957C289.111 677.875 271.152 677.79 251.99 677.706V633.168C271.15 633.252 289.107 633.337 305.297 633.419L305.302 632.419C289.111 632.337 271.152 632.252 251.99 632.168V587.63C271.15 587.714 289.107 587.799 305.297 587.881L305.302 586.881C289.111 586.799 271.152 586.714 251.99 586.629V542.091C271.15 542.176 289.107 542.261 305.297 542.343L305.302 541.343C289.111 541.261 271.152 541.176 251.99 541.091V496.553C271.15 496.638 289.107 496.723 305.297 496.805L305.302 495.805C289.111 495.723 271.152 495.638 251.99 495.553V451.015C271.15 451.1 289.107 451.185 305.297 451.267L305.302 450.267C289.111 450.185 271.152 450.1 251.99 450.015V405.477C271.15 405.562 289.107 405.647 305.297 405.729L305.302 404.729C289.111 404.647 271.152 404.562 251.99 404.477V359.939C271.15 360.024 289.107 360.109 305.297 360.19L305.302 359.19C289.111 359.109 271.152 359.024 251.99 358.939V314.401C271.15 314.486 289.107 314.571 305.297 314.652L305.302 313.652C289.111 313.571 271.152 313.486 251.99 313.401V268.863C271.15 268.948 289.107 269.033 305.297 269.114L305.302 268.114C289.111 268.033 271.152 267.948 251.99 267.863V223.325C271.15 223.409 289.107 223.495 305.297 223.576L305.302 222.576C289.111 222.495 271.152 222.409 251.99 222.325V188.93H250.99V222.32C235.317 222.251 218.848 222.183 201.892 222.116V188.93H200.892V222.113C184.869 222.05 168.417 221.99 151.793 221.934V188.93H150.793V221.931C134.506 221.876 118.059 221.826 101.695 221.781V188.93H100.695V221.778C84.1557 221.733 67.7061 221.694 51.5961 221.662V188.93H50.5961V221.66C41.2985 221.642 32.116 221.627 23.0967 221.614C15.781 221.604 8.57274 221.596 1.49763 221.589V188.93H0.497635V221.588C-16.8008 221.574 -33.293 221.572 -48.6008 221.585V188.93H-49.6008V221.586C-67.792 221.603 -84.2874 221.641 -98.4457 221.706L-98.6993 221.707V188.93H-99.6993ZM250.99 723.239V678.701C235.317 678.632 218.848 678.563 201.892 678.497V723.035C218.848 723.102 235.317 723.17 250.99 723.239ZM200.892 723.031V678.493C184.869 678.431 168.417 678.371 151.793 678.315V722.853C168.417 722.909 184.869 722.969 200.892 723.031ZM150.793 722.85V678.312C134.506 678.257 118.059 678.207 101.695 678.162V722.7C118.059 722.745 134.506 722.795 150.793 722.85ZM100.695 722.697V678.159C84.1557 678.114 67.7061 678.075 51.5961 678.043V722.581C67.7061 722.613 84.1557 722.652 100.695 722.697ZM50.5961 722.579V678.041C41.298 678.023 32.115 678.007 23.0953 677.995C15.78 677.985 8.57225 677.976 1.49763 677.97V722.508C8.57274 722.514 15.781 722.523 23.0967 722.533C32.116 722.546 41.2985 722.561 50.5961 722.579ZM0.497635 722.507V677.969C-16.801 677.955 -33.2933 677.953 -48.6008 677.966V722.504C-33.293 722.491 -16.8008 722.493 0.497635 722.507ZM-49.6008 722.505V677.967C-67.7906 677.983 -84.2845 678.022 -98.4412 678.087L-98.6993 678.088V722.626C-98.6149 722.626 -98.5303 722.625 -98.4457 722.625C-84.2874 722.56 -67.792 722.522 -49.6008 722.505ZM-98.4457 677.087L-98.6993 677.088V632.55L-98.4412 632.549C-84.2845 632.484 -67.7906 632.445 -49.6008 632.429V676.967C-67.792 676.983 -84.2874 677.022 -98.4457 677.087ZM0.497635 676.969C-16.8008 676.955 -33.293 676.953 -48.6008 676.966V632.428C-33.2933 632.415 -16.801 632.417 0.497635 632.431V676.969ZM23.0967 676.995C15.781 676.985 8.57274 676.976 1.49763 676.97V632.432C8.57225 632.438 15.78 632.447 23.0953 632.457C32.115 632.469 41.298 632.485 50.5961 632.503V677.041C41.2985 677.023 32.116 677.007 23.0967 676.995ZM100.695 677.159C84.1557 677.114 67.7061 677.075 51.5961 677.043V632.505C67.7061 632.536 84.1557 632.576 100.695 632.621V677.159ZM150.793 677.312C134.506 677.257 118.059 677.207 101.695 677.162V632.624C118.059 632.668 134.506 632.719 150.793 632.774V677.312ZM200.892 677.493C184.869 677.431 168.417 677.371 151.793 677.315V632.777C168.417 632.833 184.869 632.893 200.892 632.955V677.493ZM250.99 677.701C235.317 677.632 218.848 677.563 201.892 677.497V632.959C218.848 633.025 235.317 633.094 250.99 633.163V677.701ZM250.99 632.163V587.625C235.317 587.556 218.848 587.487 201.892 587.421V631.959C218.848 632.025 235.317 632.094 250.99 632.163ZM200.892 631.955V587.417C184.869 587.355 168.417 587.295 151.793 587.239V631.777C168.417 631.833 184.869 631.893 200.892 631.955ZM150.793 631.774V587.236C134.506 587.181 118.059 587.13 101.695 587.085V631.624C118.059 631.668 134.506 631.719 150.793 631.774ZM100.695 631.621V587.083C84.1557 587.038 67.7061 586.998 51.5961 586.967V631.505C67.7061 631.536 84.1557 631.576 100.695 631.621ZM50.5961 631.503V586.965C41.298 586.947 32.115 586.931 23.0953 586.919C15.78 586.909 8.57225 586.9 1.49763 586.894V631.432C8.57274 631.438 15.781 631.447 23.0967 631.457C32.116 631.469 41.2985 631.485 50.5961 631.503ZM0.497635 631.431V586.893C-16.801 586.878 -33.2933 586.876 -48.6008 586.89V631.428C-33.293 631.415 -16.8008 631.417 0.497635 631.431ZM-49.6008 631.429V586.891C-67.7906 586.907 -84.2845 586.946 -98.4412 587.011L-98.6993 587.012V631.55L-98.4457 631.549C-84.2874 631.484 -67.792 631.445 -49.6008 631.429ZM-98.4457 586.011L-98.6993 586.012V541.474L-98.4412 541.473C-84.2845 541.408 -67.7906 541.369 -49.6008 541.353V585.891C-67.792 585.907 -84.2874 585.946 -98.4457 586.011ZM0.497635 585.893C-16.8008 585.878 -33.293 585.876 -48.6008 585.89V541.352C-33.2933 541.338 -16.801 541.34 0.497635 541.355V585.893ZM23.0967 585.919C15.781 585.909 8.57274 585.9 1.49763 585.894V541.356C8.57225 541.362 15.78 541.37 23.0953 541.381C32.115 541.393 41.298 541.409 50.5961 541.427V585.965C41.2985 585.947 32.116 585.931 23.0967 585.919ZM100.695 586.083C84.1557 586.038 67.7061 585.998 51.5961 585.967V541.429C67.7061 541.46 84.1557 541.5 100.695 541.545V586.083ZM150.793 586.236C134.506 586.181 118.059 586.13 101.695 586.085V541.547C118.059 541.592 134.506 541.643 150.793 541.697V586.236ZM200.892 586.417C184.869 586.355 168.417 586.295 151.793 586.239V541.701C168.417 541.757 184.869 541.817 200.892 541.879V586.417ZM250.99 586.625C235.317 586.556 218.848 586.487 201.892 586.421V541.883C218.848 541.949 235.317 542.018 250.99 542.087V586.625ZM250.99 541.087V496.549C235.317 496.48 218.848 496.411 201.892 496.345V540.883C218.848 540.949 235.317 541.018 250.99 541.087ZM200.892 540.879V496.341C184.869 496.279 168.417 496.219 151.793 496.163V540.701C168.417 540.757 184.869 540.817 200.892 540.879ZM150.793 540.697V496.159C134.506 496.105 118.059 496.054 101.695 496.009V540.547C118.059 540.592 134.506 540.643 150.793 540.697ZM100.695 540.545V496.007C84.1557 495.961 67.7061 495.922 51.5961 495.891V540.429C67.7061 540.46 84.1557 540.5 100.695 540.545ZM50.5961 540.427V495.889C41.298 495.871 32.115 495.855 23.0953 495.843C15.78 495.832 8.57225 495.824 1.49763 495.818V540.356C8.57274 540.362 15.781 540.37 23.0967 540.381C32.116 540.393 41.2985 540.409 50.5961 540.427ZM0.497635 540.355V495.817C-16.801 495.802 -33.2933 495.8 -48.6008 495.814V540.352C-33.293 540.338 -16.8008 540.34 0.497635 540.355ZM-49.6008 540.353V495.814C-67.7906 495.831 -84.2845 495.87 -98.4412 495.935L-98.6993 495.936V540.474L-98.4457 540.473C-84.2874 540.408 -67.792 540.369 -49.6008 540.353ZM-98.4457 494.935L-98.6993 494.936V450.398L-98.4412 450.396C-84.2845 450.331 -67.7906 450.293 -49.6008 450.276V494.814C-67.792 494.831 -84.2874 494.87 -98.4457 494.935ZM0.497635 494.817C-16.8008 494.802 -33.293 494.8 -48.6008 494.814V450.275C-33.2933 450.262 -16.801 450.264 0.497635 450.279V494.817ZM23.0967 494.843C15.781 494.832 8.57274 494.824 1.49763 494.818V450.28C8.57225 450.286 15.78 450.294 23.0953 450.304C32.115 450.317 41.298 450.333 50.5961 450.351V494.889C41.2985 494.871 32.116 494.855 23.0967 494.843ZM100.695 495.007C84.1557 494.961 67.7061 494.922 51.5961 494.891V450.353C67.7061 450.384 84.1557 450.423 100.695 450.469V495.007ZM150.793 495.159C134.506 495.105 118.059 495.054 101.695 495.009V450.471C118.059 450.516 134.506 450.567 150.793 450.621V495.159ZM200.892 495.341C184.869 495.279 168.417 495.219 151.793 495.163V450.625C168.417 450.681 184.869 450.741 200.892 450.803V495.341ZM250.99 495.549C235.317 495.48 218.848 495.411 201.892 495.345V450.807C218.848 450.873 235.317 450.942 250.99 451.011V495.549ZM250.99 450.011V405.473C235.317 405.404 218.848 405.335 201.892 405.269V449.807C218.848 449.873 235.317 449.942 250.99 450.011ZM200.892 449.803V405.265C184.869 405.203 168.417 405.143 151.793 405.087V449.625C168.417 449.681 184.869 449.741 200.892 449.803ZM150.793 449.621V405.083C134.506 405.029 118.059 404.978 101.695 404.933V449.471C118.059 449.516 134.506 449.567 150.793 449.621ZM100.695 449.468V404.93C84.1557 404.885 67.7061 404.846 51.5961 404.814V449.353C67.7061 449.384 84.1557 449.423 100.695 449.468ZM50.5961 449.351V404.812C41.298 404.794 32.115 404.779 23.0953 404.766C15.78 404.756 8.57225 404.748 1.49763 404.742V449.28C8.57274 449.286 15.781 449.294 23.0967 449.304C32.116 449.317 41.2985 449.333 50.5961 449.351ZM0.497635 449.279V404.741C-16.801 404.726 -33.2933 404.724 -48.6008 404.737V449.275C-33.293 449.262 -16.8008 449.264 0.497635 449.279ZM-49.6008 449.276V404.738C-67.7906 404.755 -84.2845 404.793 -98.4412 404.858L-98.6993 404.86V449.398L-98.4457 449.396C-84.2874 449.331 -67.792 449.293 -49.6008 449.276ZM-98.4457 403.858L-98.6993 403.86V359.321L-98.4412 359.32C-84.2845 359.255 -67.7906 359.217 -49.6008 359.2V403.738C-67.792 403.755 -84.2874 403.793 -98.4457 403.858ZM0.497635 403.741C-16.8008 403.726 -33.293 403.724 -48.6008 403.737V359.199C-33.2933 359.186 -16.801 359.188 0.497635 359.203V403.741ZM23.0967 403.766C15.781 403.756 8.57274 403.748 1.49763 403.742V359.204C8.57225 359.21 15.78 359.218 23.0953 359.228C32.115 359.241 41.298 359.256 50.5961 359.274V403.812C41.2985 403.794 32.116 403.779 23.0967 403.766ZM100.695 403.93C84.1557 403.885 67.7061 403.846 51.5961 403.814V359.276C67.7061 359.308 84.1557 359.347 100.695 359.392V403.93ZM150.793 404.083C134.506 404.029 118.059 403.978 101.695 403.933V359.395C118.059 359.44 134.506 359.491 150.793 359.545V404.083ZM200.892 404.265C184.869 404.203 168.417 404.142 151.793 404.087V359.548C168.417 359.604 184.869 359.664 200.892 359.727V404.265ZM250.99 404.473C235.317 404.404 218.848 404.335 201.892 404.269V359.731C218.848 359.797 235.317 359.866 250.99 359.935V404.473ZM250.99 358.935V314.397C235.317 314.327 218.848 314.259 201.892 314.193V358.731C218.848 358.797 235.317 358.866 250.99 358.935ZM200.892 358.727V314.189C184.869 314.126 168.417 314.066 151.793 314.01V358.548C168.417 358.604 184.869 358.664 200.892 358.727ZM150.793 358.545V314.007C134.506 313.952 118.059 313.902 101.695 313.857V358.395C118.059 358.44 134.506 358.491 150.793 358.545ZM100.695 358.392V313.854C84.1557 313.809 67.7061 313.77 51.5961 313.738V358.276C67.7061 358.308 84.1557 358.347 100.695 358.392ZM50.5961 358.274V313.736C41.298 313.718 32.115 313.703 23.0953 313.69C15.78 313.68 8.57225 313.672 1.49763 313.666V358.204C8.57274 358.21 15.781 358.218 23.0967 358.228C32.116 358.241 41.2985 358.256 50.5961 358.274ZM0.497635 358.203V313.665C-16.801 313.65 -33.2933 313.648 -48.6008 313.661V358.199C-33.293 358.186 -16.8008 358.188 0.497635 358.203ZM-49.6008 358.2V313.662C-67.7906 313.679 -84.2845 313.717 -98.4412 313.782L-98.6993 313.783V358.321L-98.4457 358.32C-84.2874 358.255 -67.792 358.217 -49.6008 358.2ZM-98.4457 312.782L-98.6993 312.783V268.245L-98.4412 268.244C-84.2845 268.179 -67.7906 268.141 -49.6008 268.124V312.662C-67.792 312.679 -84.2874 312.717 -98.4457 312.782ZM0.497635 312.665C-16.8008 312.65 -33.293 312.648 -48.6008 312.661V268.123C-33.2933 268.11 -16.801 268.112 0.497635 268.127V312.665ZM23.0967 312.69C15.781 312.68 8.57274 312.672 1.49763 312.666V268.127C8.57225 268.134 15.78 268.142 23.0953 268.152C32.115 268.165 41.298 268.18 50.5961 268.198V312.736C41.2985 312.718 32.116 312.703 23.0967 312.69ZM100.695 312.854C84.1557 312.809 67.7061 312.77 51.5961 312.738V268.2C67.7061 268.232 84.1557 268.271 100.695 268.316V312.854ZM150.793 313.007C134.506 312.952 118.059 312.902 101.695 312.857V268.319C118.059 268.364 134.506 268.414 150.793 268.469V313.007ZM200.892 313.189C184.869 313.126 168.417 313.066 151.793 313.01V268.472C168.417 268.528 184.869 268.588 200.892 268.651V313.189ZM250.99 313.397C235.317 313.327 218.848 313.259 201.892 313.193V268.655C218.848 268.721 235.317 268.789 250.99 268.858V313.397ZM250.99 267.858V223.32C235.317 223.251 218.848 223.183 201.892 223.116V267.655C218.848 267.721 235.317 267.789 250.99 267.858ZM200.892 267.651V223.113C184.869 223.05 168.417 222.99 151.793 222.934V267.472C168.417 267.528 184.869 267.588 200.892 267.651ZM150.793 267.469V222.931C134.506 222.876 118.059 222.826 101.695 222.781V267.319C118.059 267.364 134.506 267.414 150.793 267.469ZM100.695 267.316V222.778C84.1557 222.733 67.7061 222.694 51.5961 222.662V267.2C67.7061 267.232 84.1557 267.271 100.695 267.316ZM50.5961 267.198V222.66C41.298 222.642 32.115 222.627 23.0953 222.614C15.78 222.604 8.57225 222.596 1.49763 222.589V267.127C8.57274 267.134 15.781 267.142 23.0967 267.152C32.116 267.165 41.2985 267.18 50.5961 267.198ZM0.497635 267.127V222.588C-16.801 222.574 -33.2933 222.572 -48.6008 222.585V267.123C-33.293 267.11 -16.8008 267.112 0.497635 267.127ZM-49.6008 267.124V222.586C-67.7906 222.603 -84.2845 222.641 -98.4412 222.706L-98.6993 222.707V267.245L-98.4457 267.244C-84.2874 267.179 -67.792 267.141 -49.6008 267.124Z" fill="url(#paint1_radial_3312_1704)"/>
<rect x="-197.742" y="157.096" width="225.168" height="201.666" rx="14.8931" transform="rotate(-35.92 -197.742 157.096)" fill="url(#paint2_linear_3312_1704)"/>
<rect x="-138.329" y="157.096" width="225.168" height="201.666" rx="14.8931" transform="rotate(-35.92 -138.329 157.096)" fill="url(#paint3_linear_3312_1704)"/>
<rect x="-78.9158" y="157.096" width="225.168" height="201.666" rx="14.8931" transform="rotate(-35.92 -78.9158 157.096)" fill="url(#paint4_linear_3312_1704)"/>
<rect width="225.168" height="201.666" rx="14.8931" transform="matrix(-0.809837 -0.586655 -0.586655 0.809837 649.604 440.479)" fill="url(#paint5_linear_3312_1704)"/>
<rect width="225.168" height="201.666" rx="14.8931" transform="matrix(-0.809837 -0.586655 -0.586655 0.809837 590.191 440.479)" fill="url(#paint6_linear_3312_1704)"/>
<rect width="225.168" height="201.666" rx="14.8931" transform="matrix(-0.809837 -0.586655 -0.586655 0.809837 530.777 440.479)" fill="url(#paint7_linear_3312_1704)"/>
</g>
<defs>
<radialGradient id="paint0_radial_3312_1704" cx="0" cy="0" r="1" gradientUnits="userSpaceOnUse" gradientTransform="translate(421.302 68.881) rotate(90) scale(235.43 183.921)">
<stop stop-color="white"/>
<stop offset="1" stop-color="#0374ED" stop-opacity="0"/>
</radialGradient>
<radialGradient id="paint1_radial_3312_1704" cx="0" cy="0" r="1" gradientUnits="userSpaceOnUse" gradientTransform="translate(77.0001 464.172) rotate(90) scale(235.43 183.921)">
<stop stop-color="white"/>
<stop offset="1" stop-color="#0374ED" stop-opacity="0"/>
</radialGradient>
<linearGradient id="paint2_linear_3312_1704" x1="22.9256" y1="348.899" x2="-94.6284" y2="319.912" gradientUnits="userSpaceOnUse">
<stop stop-color="white" stop-opacity="0.13"/>
<stop offset="1" stop-color="white" stop-opacity="0"/>
</linearGradient>
<linearGradient id="paint3_linear_3312_1704" x1="82.3387" y1="348.899" x2="-35.2153" y2="319.912" gradientUnits="userSpaceOnUse">
<stop stop-color="white" stop-opacity="0.13"/>
<stop offset="1" stop-color="white" stop-opacity="0"/>
</linearGradient>
<linearGradient id="paint4_linear_3312_1704" x1="141.752" y1="348.899" x2="24.1979" y2="319.912" gradientUnits="userSpaceOnUse">
<stop stop-color="white" stop-opacity="0.13"/>
<stop offset="1" stop-color="white" stop-opacity="0"/>
</linearGradient>
<linearGradient id="paint5_linear_3312_1704" x1="220.668" y1="191.803" x2="103.114" y2="162.816" gradientUnits="userSpaceOnUse">
<stop stop-color="white" stop-opacity="0.13"/>
<stop offset="1" stop-color="white" stop-opacity="0"/>
</linearGradient>
<linearGradient id="paint6_linear_3312_1704" x1="220.668" y1="191.803" x2="103.114" y2="162.816" gradientUnits="userSpaceOnUse">
<stop stop-color="white" stop-opacity="0.13"/>
<stop offset="1" stop-color="white" stop-opacity="0"/>
</linearGradient>
<linearGradient id="paint7_linear_3312_1704" x1="220.668" y1="191.803" x2="103.114" y2="162.816" gradientUnits="userSpaceOnUse">
<stop stop-color="white" stop-opacity="0.13"/>
<stop offset="1" stop-color="white" stop-opacity="0"/>
</linearGradient>
<clipPath id="clip0_3312_1704">
<rect width="430" height="932" rx="19" fill="white"/>
</clipPath>
</defs>
</svg>
