<svg width="102" height="100" viewBox="0 0 102 100" fill="none" xmlns="http://www.w3.org/2000/svg">
<g opacity="0.2">
<path fill-rule="evenodd" clip-rule="evenodd" d="M18.4424 13.7825C13.5959 18.6248 13.5959 26.4238 13.5959 42.0176V58.5583C13.5959 74.1522 13.5959 81.9511 18.4424 86.7934C23.2847 91.6399 31.0837 91.6399 46.6775 91.6399H54.9479C70.5417 91.6399 78.3407 91.6399 83.183 86.7934C88.0294 81.9511 88.0294 74.1522 88.0294 58.5583V42.0176C88.0294 26.4238 88.0294 18.6248 83.183 13.7825C78.3407 8.93603 70.5417 8.93604 54.9479 8.93604H46.6775C31.0837 8.93604 23.2847 8.93603 18.4424 13.7825ZM31.1705 33.7472C31.1705 32.9247 31.4973 32.1358 32.0789 31.5542C32.6605 30.9726 33.4494 30.6458 34.2719 30.6458H67.3535C68.176 30.6458 68.9648 30.9726 69.5465 31.5542C70.1281 32.1358 70.4548 32.9247 70.4548 33.7472C70.4548 34.5697 70.1281 35.3586 69.5465 35.9402C68.9648 36.5218 68.176 36.8486 67.3535 36.8486H34.2719C33.4494 36.8486 32.6605 36.5218 32.0789 35.9402C31.4973 35.3586 31.1705 34.5697 31.1705 33.7472ZM31.1705 50.288C31.1705 49.4654 31.4973 48.6766 32.0789 48.0949C32.6605 47.5133 33.4494 47.1866 34.2719 47.1866H67.3535C68.176 47.1866 68.9648 47.5133 69.5465 48.0949C70.1281 48.6766 70.4548 49.4654 70.4548 50.288C70.4548 51.1105 70.1281 51.8994 69.5465 52.481C68.9648 53.0626 68.176 53.3894 67.3535 53.3894H34.2719C33.4494 53.3894 32.6605 53.0626 32.0789 52.481C31.4973 51.8994 31.1705 51.1105 31.1705 50.288ZM34.2719 63.7273C33.4494 63.7273 32.6605 64.0541 32.0789 64.6357C31.4973 65.2173 31.1705 66.0062 31.1705 66.8287C31.1705 67.6513 31.4973 68.4401 32.0789 69.0218C32.6605 69.6034 33.4494 69.9301 34.2719 69.9301H54.9479C55.7704 69.9301 56.5593 69.6034 57.1409 69.0218C57.7225 68.4401 58.0493 67.6513 58.0493 66.8287C58.0493 66.0062 57.7225 65.2173 57.1409 64.6357C56.5593 64.0541 55.7704 63.7273 54.9479 63.7273H34.2719Z" fill="#DD2025"/>
</g>
<path opacity="0.4" d="M12.5122 64.4405L18.2962 74.4587L17.3401 75.0107C17.1923 75.096 17.0543 75.145 16.926 75.1574C16.7997 75.1626 16.657 75.1342 16.498 75.072L7.41116 71.4132C7.61488 71.7021 7.7914 71.9758 7.94073 72.2345L11.4927 78.3867L9.85075 79.3347L4.06675 69.3165L5.04363 68.7525C5.12214 68.7072 5.19178 68.6731 5.25254 68.6504C5.31525 68.6203 5.37406 68.6049 5.42896 68.604C5.48582 68.5958 5.54703 68.6005 5.6126 68.618C5.6755 68.631 5.75102 68.6551 5.83916 68.6904L14.9627 72.3649C14.8556 72.2113 14.752 72.0586 14.6521 71.9069C14.5522 71.7552 14.4636 71.6124 14.3862 71.4784L10.8702 65.3885L12.5122 64.4405ZM19.5722 64.0965C20.0987 63.7925 20.6261 63.6019 21.1543 63.5248C21.6871 63.445 22.1966 63.4742 22.6828 63.6123C23.1736 63.7477 23.6328 63.9937 24.0604 64.3503C24.488 64.707 24.8632 65.1647 25.1858 65.7236C25.5112 66.2871 25.7214 66.8432 25.8164 67.3918C25.9115 67.9405 25.8963 68.4635 25.7708 68.9608C25.65 69.4555 25.4218 69.9137 25.0863 70.3352C24.7554 70.7541 24.3267 71.1156 23.8002 71.4196C23.269 71.7262 22.737 71.9195 22.2042 71.9992C21.6713 72.079 21.1582 72.0489 20.6647 71.9088C20.1759 71.7661 19.7154 71.5178 19.2831 71.1638C18.8555 70.8072 18.4791 70.3471 18.1537 69.7836C17.8311 69.2247 17.6222 68.671 17.5271 68.1223C17.4367 67.571 17.4532 67.0503 17.5767 66.5603C17.7049 66.0675 17.9367 65.6104 18.2722 65.1888C18.6077 64.7672 19.041 64.4031 19.5722 64.0965ZM23.0402 70.1032C23.6314 69.7619 23.9532 69.3113 24.0056 68.7514C24.0626 68.1888 23.8698 67.5242 23.4272 66.7575C22.9845 65.9908 22.504 65.4891 21.9856 65.2526C21.4719 65.0135 20.9194 65.0646 20.3282 65.4059C19.7277 65.7526 19.3993 66.2131 19.343 66.7876C19.2887 67.3547 19.4815 68.0194 19.9215 68.7815C20.3615 69.5436 20.8407 70.0429 21.359 70.2794C21.8793 70.5086 22.4397 70.4499 23.0402 70.1032ZM31.4038 67.0389C30.7848 67.3962 30.2091 67.4977 29.6766 67.3433C29.146 67.1816 28.7033 66.7936 28.3486 66.1793L26.0566 62.2094L25.3292 62.6294C25.2368 62.6827 25.141 62.698 25.0416 62.6753C24.9423 62.6526 24.858 62.5812 24.7886 62.4611L24.3966 61.7822L25.4318 60.9351L24.6721 58.7872C24.6418 58.6815 24.6444 58.5846 24.6797 58.4964C24.715 58.4083 24.7835 58.3349 24.8851 58.2762L25.7719 57.7642L27.0639 60.002L28.9622 58.906L29.6662 60.1254L27.7679 61.2214L29.9919 65.0735C30.1199 65.2952 30.273 65.4377 30.4513 65.5011C30.6341 65.5618 30.8202 65.5375 31.0096 65.4282C31.1158 65.3668 31.1969 65.3046 31.2529 65.2415C31.3108 65.1711 31.3571 65.1074 31.3919 65.0504C31.4314 64.9907 31.4652 64.9373 31.4934 64.8902C31.519 64.8385 31.5526 64.8006 31.5941 64.7766C31.6449 64.7473 31.6945 64.7371 31.7428 64.7462C31.7885 64.7506 31.8445 64.7675 31.9108 64.797L32.9034 65.3324C32.774 65.6843 32.5783 66.0066 32.3164 66.2995C32.0544 66.5924 31.7502 66.8389 31.4038 67.0389ZM40.6243 52.0898L44.7283 59.1981L43.6821 59.8021C43.4558 59.9328 43.2526 59.9116 43.0726 59.7384L42.6268 59.2383C42.5065 59.7019 42.3242 60.1274 42.0798 60.5148C41.8328 60.8976 41.4714 61.2263 40.9956 61.501C40.6077 61.725 40.2262 61.859 39.8513 61.903C39.4784 61.9397 39.121 61.8967 38.7791 61.7738C38.4372 61.651 38.1185 61.4563 37.8229 61.1897C37.5293 60.9158 37.2678 60.5802 37.0385 60.183L34.4305 55.6658L36.1418 54.6778L38.7498 59.195C39.0004 59.6292 39.2944 59.909 39.6317 60.0345C39.9709 60.1527 40.3414 60.0959 40.7433 59.8639C41.0389 59.6932 41.2787 59.4685 41.4626 59.1899C41.644 58.9066 41.7834 58.5828 41.881 58.2185L38.913 53.0778L40.6243 52.0898ZM47.6266 55.0676C47.9566 55.1912 48.2627 55.2361 48.545 55.2025C48.832 55.1661 49.1094 55.0706 49.3773 54.9159C49.6359 54.7666 49.8412 54.5834 49.993 54.3665C50.1449 54.1495 50.2351 53.9003 50.2636 53.619C50.2967 53.3351 50.2659 53.0204 50.1711 52.6748C50.0736 52.3246 49.9062 51.944 49.6688 51.5329C49.4288 51.1172 49.1915 50.7862 48.9569 50.5398C48.7243 50.2862 48.4936 50.1053 48.2649 49.9972C48.0362 49.889 47.8077 49.8454 47.5796 49.8663C47.3561 49.8845 47.1312 49.9589 46.9049 50.0896C46.5492 50.2949 46.2907 50.5458 46.1293 50.8422C45.9652 51.134 45.851 51.4801 45.7866 51.8806L47.6266 55.0676ZM45.0565 50.8241C45.1582 50.3282 45.3351 49.872 45.5872 49.4554C45.8394 49.0388 46.2149 48.6866 46.7137 48.3986C47.1017 48.1746 47.5017 48.0514 47.9138 48.029C48.3304 48.004 48.7435 48.0796 49.1531 48.2557C49.5647 48.4246 49.9635 48.6993 50.3495 49.0799C50.7375 49.4533 51.0995 49.931 51.4355 50.5129C51.7422 51.0441 51.9546 51.5773 52.0728 52.1126C52.1909 52.6479 52.212 53.1592 52.1362 53.6464C52.0649 54.131 51.8945 54.5773 51.6251 54.9853C51.3577 55.3861 50.9907 55.7211 50.5242 55.9904C50.127 56.2198 49.7528 56.3557 49.4018 56.3983C49.048 56.4363 48.6976 56.4107 48.3506 56.3216L50.0306 59.2315L48.3193 60.2195L42.8753 50.7902L43.9215 50.1862C44.1432 50.0582 44.3487 50.0781 44.538 50.246L45.0565 50.8241ZM51.197 41.7363L57.141 52.0316L55.4298 53.0196L49.4858 42.7243L51.197 41.7363ZM58.3777 41.6921C58.9042 41.3881 59.4316 41.1975 59.9598 41.1204C60.4927 41.0407 61.0022 41.0698 61.4883 41.2079C61.9791 41.3433 62.4383 41.5893 62.8659 41.946C63.2936 42.3026 63.6687 42.7604 63.9914 43.3192C64.3167 43.8827 64.5269 44.4388 64.6219 44.9875C64.717 45.5361 64.7018 46.0591 64.5763 46.5565C64.4555 47.0512 64.2273 47.5093 63.8918 47.9309C63.5609 48.3497 63.1322 48.7112 62.6057 49.0152C62.0745 49.3219 61.5425 49.5151 61.0097 49.5949C60.4769 49.6746 59.9637 49.6445 59.4703 49.5045C58.9814 49.3618 58.5209 49.1134 58.0886 48.7595C57.661 48.4028 57.2846 47.9427 56.9592 47.3792C56.6366 46.8204 56.4277 46.2666 56.3326 45.718C56.2422 45.1667 56.2587 44.646 56.3823 44.1559C56.5104 43.6631 56.7422 43.206 57.0777 42.7844C57.4132 42.3629 57.8465 41.9988 58.3777 41.6921ZM61.8457 47.6988C62.4369 47.3575 62.7587 46.9069 62.8111 46.347C62.8682 45.7845 62.6753 45.1198 62.2327 44.3531C61.79 43.5864 61.3095 43.0848 60.7911 42.8483C60.2774 42.6091 59.7249 42.6602 59.1337 43.0015C58.5332 43.3482 58.2049 43.8087 58.1485 44.3832C58.0942 44.9504 58.287 45.615 58.727 46.3771C59.167 47.1392 59.6462 47.6385 60.1645 47.875C60.6849 48.1042 61.2452 48.0455 61.8457 47.6988ZM69.9142 40.611C69.4334 40.9194 69.043 41.2033 68.7432 41.4626C68.4407 41.7173 68.2158 41.9518 68.0686 42.1662C67.9213 42.3805 67.8412 42.5777 67.8281 42.7576C67.815 42.9376 67.8525 43.1038 67.9405 43.2563C68.1138 43.5565 68.3255 43.7206 68.5757 43.7486C68.8305 43.7739 69.1011 43.7039 69.3875 43.5386C69.7385 43.3359 70.005 43.0989 70.1871 42.8275C70.3711 42.5489 70.5108 42.2095 70.6062 41.8095L69.9142 40.611ZM64.2129 39.7919C64.5984 38.5717 65.3662 37.6295 66.5163 36.9655C66.932 36.7255 67.3438 36.5802 67.7517 36.5294C68.157 36.474 68.5435 36.5034 68.9111 36.6175C69.2761 36.727 69.6137 36.917 69.9238 37.1875C70.2386 37.4554 70.5119 37.7902 70.7439 38.192L73.3359 42.6815L72.56 43.1295C72.3983 43.2229 72.2603 43.2718 72.1459 43.2762C72.0288 43.2761 71.9021 43.2168 71.766 43.0983L71.3176 42.6736C71.2308 42.9393 71.1379 43.1838 71.039 43.4072C70.9375 43.6259 70.8183 43.8302 70.6816 44.02C70.5448 44.2098 70.3822 44.3869 70.1937 44.5511C70.0126 44.7173 69.795 44.8737 69.5409 45.0204C69.2407 45.1937 68.9409 45.3144 68.6415 45.3826C68.3395 45.4461 68.0494 45.4504 67.7714 45.3954C67.4933 45.3404 67.2341 45.2222 66.9938 45.0406C66.7535 44.8591 66.5414 44.609 66.3574 44.2903C66.2534 44.1102 66.1808 43.915 66.1395 43.7049C66.0955 43.4901 66.0938 43.2632 66.1344 43.0242C66.1797 42.7825 66.2695 42.5274 66.4039 42.2589C66.5383 41.9904 66.7319 41.7124 66.9847 41.4248C67.242 41.1346 67.5622 40.8358 67.9452 40.5284C68.3255 40.2165 68.7818 39.8976 69.3142 39.5717L69.0742 39.156C68.7996 38.6803 68.4953 38.3879 68.1614 38.279C67.8248 38.1654 67.4649 38.2192 67.0815 38.4405C66.8044 38.6005 66.5921 38.7662 66.4447 38.9375C66.3019 39.1062 66.1852 39.2721 66.0947 39.4352C66.0014 39.5938 65.9157 39.7387 65.8376 39.87C65.7641 39.9987 65.658 40.103 65.5195 40.183C65.3994 40.2523 65.2804 40.281 65.1626 40.2689C65.0422 40.2523 64.9325 40.2171 64.8337 40.1632L64.2129 39.7919ZM76.9076 33.5619C76.5776 33.4383 76.2692 33.3947 75.9822 33.431C75.6999 33.4647 75.4271 33.5576 75.1638 33.7096C74.9052 33.8589 74.6999 34.042 74.5481 34.259C74.3962 34.476 74.3038 34.7265 74.2706 35.0104C74.2348 35.2898 74.2657 35.6045 74.3631 35.9547C74.458 36.3002 74.624 36.6786 74.8614 37.0896C75.1014 37.5053 75.3377 37.84 75.5704 38.0937C75.805 38.34 76.038 38.5196 76.2693 38.6323C76.498 38.7405 76.7265 38.7841 76.9546 38.7632C77.1801 38.7378 77.4037 38.661 77.6254 38.533C77.981 38.3277 78.2409 38.0791 78.405 37.7873C78.569 37.4955 78.6833 37.1494 78.7476 36.7488L76.9076 33.5619ZM75.7309 27.5717L81.6749 37.867L80.6287 38.471C80.4024 38.6017 80.1992 38.5804 80.0192 38.4073L79.4777 37.8054C79.3807 38.2986 79.2038 38.7549 78.947 39.1741C78.6948 39.5907 78.3216 39.9416 77.8274 40.2269C77.4394 40.4509 77.0371 40.5754 76.6204 40.6005C76.2038 40.6255 75.7897 40.5535 75.3781 40.3847C74.9685 40.2086 74.5684 39.9315 74.1777 39.5536C73.7917 39.1729 73.4307 38.6916 73.0947 38.1096C72.7907 37.5831 72.5796 37.0522 72.4614 36.5169C72.3433 35.9815 72.3222 35.4703 72.3981 34.9831C72.4739 34.4958 72.6456 34.0519 72.9131 33.6511C73.1779 33.2457 73.5435 32.9084 74.01 32.639C74.4072 32.4097 74.7827 32.2761 75.1365 32.2381C75.4902 32.2002 75.8393 32.2234 76.1836 32.3079L74.0196 28.5597L75.7309 27.5717ZM85.9736 29.5563C85.8456 29.3346 85.6932 29.1454 85.5166 28.9887C85.3418 28.8248 85.1495 28.7049 84.9394 28.6291C84.7294 28.5533 84.5034 28.5298 84.2614 28.5587C84.0213 28.5803 83.7743 28.6644 83.5203 28.8111C83.0261 29.0964 82.7171 29.4626 82.5934 29.9097C82.4743 30.3541 82.5249 30.8576 82.745 31.4203L85.9736 29.5563ZM83.3064 32.4726C83.5447 32.8214 83.7921 33.1005 84.0484 33.3097C84.302 33.5143 84.5626 33.6564 84.8302 33.7359C85.0951 33.8108 85.3661 33.8268 85.6431 33.7839C85.922 33.7337 86.2001 33.6286 86.4772 33.4686C86.7543 33.3086 86.9735 33.1389 87.1348 32.9596C87.3007 32.7776 87.4349 32.6047 87.5373 32.4408C87.6444 32.2743 87.7347 32.1267 87.8082 31.9981C87.8864 31.8667 87.9786 31.7704 88.0848 31.7091C88.228 31.6264 88.3649 31.6182 88.4955 31.6844L89.3474 32.0239C89.286 32.355 89.1816 32.6647 89.034 32.9531C88.8838 33.2369 88.706 33.4997 88.5007 33.7414C88.2973 33.9758 88.0724 34.1888 87.8258 34.3805C87.5839 34.5694 87.3382 34.7359 87.0888 34.8799C86.5946 35.1652 86.0883 35.3497 85.5701 35.4334C85.0491 35.5125 84.5396 35.4833 84.0415 35.3459C83.5408 35.204 83.0644 34.9494 82.6122 34.5823C82.1574 34.2105 81.75 33.7129 81.39 33.0894C81.11 32.6044 80.9259 32.1041 80.8376 31.5885C80.7466 31.0683 80.756 30.5672 80.8656 30.0851C80.9772 29.5957 81.1899 29.1373 81.5035 28.7099C81.8218 28.2798 82.2465 27.9114 82.7776 27.6048C83.2257 27.3461 83.6804 27.179 84.1418 27.1035C84.6032 27.0281 85.0501 27.0502 85.4827 27.17C85.9125 27.2852 86.3196 27.4997 86.7041 27.8135C87.0904 28.1201 87.4316 28.5297 87.7276 29.0424C87.8769 29.301 87.9506 29.4926 87.9485 29.6169C87.9437 29.7367 87.8628 29.8419 87.7058 29.9326L83.3064 32.4726ZM93.2798 24.1094C92.9498 23.9858 92.6414 23.9422 92.3544 23.9785C92.0721 24.0122 91.7993 24.1051 91.5361 24.2571C91.2774 24.4064 91.0722 24.5895 90.9203 24.8065C90.7685 25.0235 90.676 25.274 90.6428 25.5579C90.607 25.8373 90.6379 26.152 90.7354 26.5022C90.8302 26.8477 90.9962 27.2261 91.2336 27.6371C91.4736 28.0528 91.7099 28.3875 91.9426 28.6412C92.1772 28.8875 92.4102 29.0671 92.6416 29.1798C92.8703 29.288 93.0987 29.3316 93.3268 29.3107C93.5523 29.2853 93.7759 29.2085 93.9976 29.0805C94.3532 28.8752 94.6131 28.6266 94.7772 28.3348C94.9412 28.043 95.0555 27.6969 95.1198 27.2963L93.2798 24.1094ZM92.1031 18.1192L98.0471 28.4145L97.0009 29.0185C96.7746 29.1492 96.5714 29.1279 96.3914 28.9548L95.8499 28.3529C95.7529 28.8461 95.576 29.3024 95.3192 29.7216C95.067 30.1382 94.6938 30.4891 94.1996 30.7744C93.8116 30.9984 93.4093 31.1229 92.9927 31.148C92.576 31.173 92.1619 31.101 91.7503 30.9322C91.3407 30.7561 90.9406 30.479 90.5499 30.1011C90.1639 29.7204 89.8029 29.2391 89.4669 28.6571C89.1629 28.1306 88.9518 27.5997 88.8337 27.0644C88.7155 26.529 88.6944 26.0178 88.7703 25.5306C88.8462 25.0433 89.0178 24.5994 89.2853 24.1986C89.5501 23.7932 89.9157 23.4559 90.3822 23.1865C90.7794 22.9572 91.1549 22.8236 91.5087 22.7856C91.8624 22.7477 92.2115 22.7709 92.5558 22.8554L90.3918 19.1072L92.1031 18.1192Z" fill="#0E2236"/>
</svg>
