<svg width="23" height="23" viewBox="0 0 23 23" fill="none" xmlns="http://www.w3.org/2000/svg">
<path fill-rule="evenodd" clip-rule="evenodd" d="M14.0968 3.84617C15.0755 4.24333 15.9662 4.82935 16.7184 5.57077L11.0725 11.2981L5.42671 17.0255C4.67458 16.2841 4.07585 15.4018 3.66471 14.429C3.25356 13.4561 3.03805 12.4119 3.03048 11.3558C3.02291 10.2997 3.22343 9.25243 3.62058 8.27383C4.01774 7.29522 4.60376 6.40442 5.34518 5.6523C6.0866 4.90017 6.96891 4.30144 7.94172 3.89029C8.91453 3.47915 9.95879 3.26364 11.0149 3.25607C12.071 3.2485 13.1182 3.44901 14.0968 3.84617ZM19.1161 8.79368C18.705 7.82087 18.1062 6.93857 17.3541 6.19714L11.7083 11.9245L6.06244 17.6519C6.81457 18.3933 7.70537 18.9793 8.68397 19.3765C9.66258 19.7736 10.7098 19.9741 11.7659 19.9666C12.822 19.959 13.8663 19.7435 14.8391 19.3323C15.8119 18.9212 16.6942 18.3225 17.4356 17.5703C18.1771 16.8182 18.7631 15.9274 19.1602 14.9488C19.5574 13.9702 19.7579 12.923 19.7503 11.8669C19.7428 10.8108 19.5273 9.76649 19.1161 8.79368Z" fill="white"/>
</svg>
