<svg width="22" height="22" viewBox="0 0 22 22" fill="none" xmlns="http://www.w3.org/2000/svg">
<g clip-path="url(#clip0_2489_3480)">
<path d="M11.1269 21.1418C9.3432 21.1423 7.60151 20.6762 6.06637 19.79L0.821243 21.2266L2.22868 15.8588C1.42045 14.3742 0.996949 12.7107 0.996844 11.0204L0.996844 11.0159C0.996844 5.43564 5.53768 0.893159 11.1189 0.890773C13.8235 0.889703 16.3666 1.94199 18.28 3.85384C20.1931 5.76536 21.2473 8.30761 21.2485 11.0163C21.2485 16.5973 16.7079 21.1394 11.1269 21.1417" fill="url(#paint0_linear_2489_3480)"/>
<path d="M11.1303 21.5033C9.28242 21.5038 7.47844 21.0211 5.88833 20.1032L0.455181 21.5913L1.91306 16.0311C1.07776 14.4991 0.637366 12.7742 0.636708 11.019L0.636708 11.0145C0.636708 5.234 5.34088 0.52835 11.1219 0.525882C13.9236 0.524894 16.5582 1.61503 18.5401 3.59518C20.5217 5.57558 21.6138 8.20876 21.615 11.0145C21.615 16.796 16.9115 21.501 11.1303 21.5033ZM6.16218 18.192L6.49174 18.3996C7.87943 19.2724 9.48303 19.733 11.1297 19.7324C15.9348 19.7305 19.8442 15.8199 19.8442 11.0112C19.8432 8.68248 18.9354 6.49398 17.2883 4.84792C15.6411 3.20193 13.4515 2.2962 11.1226 2.29678C6.31746 2.29892 2.4076 6.2096 2.4076 11.0145L2.4076 11.0179C2.40842 12.5825 2.82858 14.1169 3.62257 15.455L3.81141 15.7735L2.94633 19.073L6.16227 18.192L6.16218 18.192Z" fill="url(#paint1_linear_2489_3480)"/>
<path d="M15.5135 13.6362C15.9499 13.8325 15.9587 14.0391 15.9663 14.2258C15.9729 14.3787 15.9724 14.5535 15.9724 14.7281C15.9724 14.9029 15.9067 15.1869 15.6446 15.4269C15.3822 15.6672 14.7483 16.3442 13.459 16.3442C12.1695 16.3442 10.9234 15.4051 10.7484 15.2742C10.5737 15.1431 7.84312 13.4612 6.79265 10.7974C5.91967 8.58352 6.0933 8.133 6.13707 7.65253C6.18068 7.17197 6.77084 6.10192 7.38281 5.88361C7.9947 5.66514 8.51919 5.66514 8.6288 5.73064C8.73799 5.79614 8.80358 5.97092 8.93458 6.233C9.06566 6.49516 9.69968 7.78361 9.78715 8.02381C9.87454 8.26408 9.91815 8.43878 9.65574 8.61356C9.39374 8.78833 8.80358 9.2902 8.6288 9.44317C8.45361 9.59598 8.4318 9.74895 8.56289 10.011C8.69438 10.2732 8.97078 11.1172 9.86351 12.1186C10.5582 12.8977 11.416 13.4236 11.6784 13.5765C11.9404 13.7294 12.0825 13.5929 12.213 13.4615C12.3305 13.3437 12.5191 13.1993 12.672 13.0682C12.8251 12.9375 12.9343 12.8939 13.1091 12.8065C13.284 12.719 13.4371 12.7628 13.5681 12.8282C13.6992 12.8939 14.9953 13.4031 15.5135 13.6362Z" fill="white"/>
</g>
<defs>
<linearGradient id="paint0_linear_2489_3480" x1="-2021.48" y1="-995.563" x2="21.2486" y2="-995.563" gradientUnits="userSpaceOnUse">
<stop stop-color="#1FAF38"/>
<stop offset="1" stop-color="#60D669"/>
</linearGradient>
<linearGradient id="paint1_linear_2489_3480" x1="-2094.37" y1="-1031.68" x2="21.615" y2="-1031.68" gradientUnits="userSpaceOnUse">
<stop stop-color="#F9F9F9"/>
<stop offset="1" stop-color="white"/>
</linearGradient>
<clipPath id="clip0_2489_3480">
<rect width="21.0654" height="21.23" fill="white" transform="matrix(4.37114e-08 -1 -1 -4.37114e-08 21.615 21.5913)"/>
</clipPath>
</defs>
</svg>
