<svg width="14" height="14" viewBox="0 0 14 14" fill="none" xmlns="http://www.w3.org/2000/svg">
<path d="M5.35244 2.01318C6.18057 1.30745 7.39858 1.30745 8.22671 2.01318C8.58158 2.3156 9.02281 2.49837 9.48759 2.53546C10.5722 2.62201 11.4335 3.48327 11.52 4.56787C11.5571 5.03265 11.7399 5.47388 12.0423 5.82876C12.748 6.65689 12.748 7.8749 12.0423 8.70303C11.7399 9.0579 11.5571 9.49913 11.52 9.96391C11.4335 11.0485 10.5722 11.9098 9.48759 11.9963C9.02281 12.0334 8.58158 12.2162 8.22671 12.5186C7.39858 13.2243 6.18057 13.2243 5.35244 12.5186C4.99756 12.2162 4.55633 12.0334 4.09156 11.9963C3.00695 11.9098 2.14569 11.0485 2.05914 9.96391C2.02205 9.49913 1.83929 9.0579 1.53686 8.70303C0.831136 7.8749 0.831136 6.65689 1.53686 5.82876C1.83929 5.47388 2.02205 5.03265 2.05914 4.56787C2.14569 3.48327 3.00695 2.62201 4.09156 2.53546C4.55633 2.49837 4.99756 2.3156 5.35244 2.01318Z" fill="#41EB25"/>
<path d="M4.84634 7.26589L6.14183 8.56138L8.7328 5.97041M4.09156 2.53546C4.55633 2.49837 4.99756 2.3156 5.35244 2.01318C6.18057 1.30745 7.39858 1.30745 8.22671 2.01318C8.58158 2.3156 9.02281 2.49837 9.48759 2.53546C10.5722 2.62201 11.4335 3.48327 11.52 4.56787C11.5571 5.03265 11.7399 5.47388 12.0423 5.82876C12.748 6.65689 12.748 7.8749 12.0423 8.70303C11.7399 9.0579 11.5571 9.49913 11.52 9.96391C11.4335 11.0485 10.5722 11.9098 9.48759 11.9963C9.02281 12.0334 8.58158 12.2162 8.22671 12.5186C7.39858 13.2243 6.18057 13.2243 5.35244 12.5186C4.99756 12.2162 4.55633 12.0334 4.09156 11.9963C3.00695 11.9098 2.14569 11.0485 2.05914 9.96391C2.02205 9.49913 1.83928 9.0579 1.53686 8.70303C0.831136 7.8749 0.831136 6.65689 1.53686 5.82876C1.83928 5.47388 2.02205 5.03265 2.05914 4.56787C2.14569 3.48327 3.00695 2.62201 4.09156 2.53546Z" stroke="white" stroke-width="1.29549" stroke-linecap="round" stroke-linejoin="round"/>
</svg>
