<svg width="426" height="738" viewBox="0 0 426 738" fill="none" xmlns="http://www.w3.org/2000/svg">
<path d="M1 0L1.00003 738" stroke="#C0DCFB" stroke-width="2"/>
<g opacity="0.4">
<path d="M1.01038 32.7986H425.007" stroke="#C0DCFB" stroke-width="2"/>
<path d="M1.01038 25.6702H425.007" stroke="#C0DCFB" stroke-width="2"/>
<path d="M1.01038 17.4468H425.007" stroke="#C0DCFB" stroke-width="2"/>
<path d="M1.01038 9.22339H425.007" stroke="#C0DCFB" stroke-width="2"/>
<path d="M1.01038 1H425.007" stroke="#C0DCFB" stroke-width="2"/>
<path d="M1.01038 74.2048H425.007" stroke="#C0DCFB" stroke-width="2"/>
<path d="M1.01038 116.141H425.007" stroke="#C0DCFB" stroke-width="2"/>
<path d="M1.01038 157.547H425.007" stroke="#C0DCFB" stroke-width="2"/>
<path d="M1.01038 198.953H425.007" stroke="#C0DCFB" stroke-width="2"/>
<path d="M1.01038 240.36H425.007" stroke="#C0DCFB" stroke-width="2"/>
<path d="M1.01038 281.766H425.007" stroke="#C0DCFB" stroke-width="2"/>
<path d="M1.01038 323.172H425.007" stroke="#C0DCFB" stroke-width="2"/>
<path d="M1.01038 364.578H425.007" stroke="#C0DCFB" stroke-width="2"/>
<path d="M1.01038 405.985H425.007" stroke="#C0DCFB" stroke-width="2"/>
<path d="M1.01038 447.391H425.007" stroke="#C0DCFB" stroke-width="2"/>
<path d="M1.01038 488.797H425.007" stroke="#C0DCFB" stroke-width="2"/>
<path d="M1.01038 530.204H425.007" stroke="#C0DCFB" stroke-width="2"/>
<path d="M1.01038 571.61H425.007" stroke="#C0DCFB" stroke-width="2"/>
<path d="M1.01038 613.016H425.007" stroke="#C0DCFB" stroke-width="2"/>
<path d="M1.01038 654.422H425.007" stroke="#C0DCFB" stroke-width="2"/>
<path d="M1.01038 695.829H425.007" stroke="#C0DCFB" stroke-width="2"/>
<path d="M1.01038 39.5537H425.007" stroke="#C0DCFB" stroke-width="2"/>
<path d="M1.01038 80.96H425.007" stroke="#C0DCFB" stroke-width="2"/>
<path d="M1.01038 122.896H425.007" stroke="#C0DCFB" stroke-width="2"/>
<path d="M1.01038 164.302H425.007" stroke="#C0DCFB" stroke-width="2"/>
<path d="M1.01038 205.708H425.007" stroke="#C0DCFB" stroke-width="2"/>
<path d="M1.01038 247.115H425.007" stroke="#C0DCFB" stroke-width="2"/>
<path d="M1.01038 288.521H425.007" stroke="#C0DCFB" stroke-width="2"/>
<path d="M1.01038 329.927H425.007" stroke="#C0DCFB" stroke-width="2"/>
<path d="M1.01038 371.333H425.007" stroke="#C0DCFB" stroke-width="2"/>
<path d="M1.01038 412.74H425.007" stroke="#C0DCFB" stroke-width="2"/>
<path d="M1.01038 454.146H425.007" stroke="#C0DCFB" stroke-width="2"/>
<path d="M1.01038 495.552H425.007" stroke="#C0DCFB" stroke-width="2"/>
<path d="M1.01038 536.958H425.007" stroke="#C0DCFB" stroke-width="2"/>
<path d="M1.01038 578.365H425.007" stroke="#C0DCFB" stroke-width="2"/>
<path d="M1.01038 619.771H425.007" stroke="#C0DCFB" stroke-width="2"/>
<path d="M1.01038 661.178H425.007" stroke="#C0DCFB" stroke-width="2"/>
<path d="M1.01038 702.584H425.007" stroke="#C0DCFB" stroke-width="2"/>
<path d="M1.01038 46.3088H425.007" stroke="#C0DCFB" stroke-width="2"/>
<path d="M1.01038 87.7151H425.007" stroke="#C0DCFB" stroke-width="2"/>
<path d="M1.01038 129.651H425.007" stroke="#C0DCFB" stroke-width="2"/>
<path d="M1.01038 171.057H425.007" stroke="#C0DCFB" stroke-width="2"/>
<path d="M1.01038 212.464H425.007" stroke="#C0DCFB" stroke-width="2"/>
<path d="M1.01038 253.87H425.007" stroke="#C0DCFB" stroke-width="2"/>
<path d="M1.01038 295.276H425.007" stroke="#C0DCFB" stroke-width="2"/>
<path d="M1.01038 336.682H425.007" stroke="#C0DCFB" stroke-width="2"/>
<path d="M1.01038 378.089H425.007" stroke="#C0DCFB" stroke-width="2"/>
<path d="M1.01038 419.495H425.007" stroke="#C0DCFB" stroke-width="2"/>
<path d="M1.01038 460.901H425.007" stroke="#C0DCFB" stroke-width="2"/>
<path d="M1.01038 502.308H425.007" stroke="#C0DCFB" stroke-width="2"/>
<path d="M1.01038 543.714H425.007" stroke="#C0DCFB" stroke-width="2"/>
<path d="M1.01038 585.12H425.007" stroke="#C0DCFB" stroke-width="2"/>
<path d="M1.01038 626.526H425.007" stroke="#C0DCFB" stroke-width="2"/>
<path d="M1.01038 667.933H425.007" stroke="#C0DCFB" stroke-width="2"/>
<path d="M1.01038 709.339H425.007" stroke="#C0DCFB" stroke-width="2"/>
<path d="M1.01038 53.064H425.007" stroke="#C0DCFB" stroke-width="2"/>
<path d="M1.01038 95H425.007" stroke="#C0DCFB" stroke-width="2"/>
<path d="M1.01038 136.406H425.007" stroke="#C0DCFB" stroke-width="2"/>
<path d="M1.01038 177.812H425.007" stroke="#C0DCFB" stroke-width="2"/>
<path d="M1.01038 219.219H425.007" stroke="#C0DCFB" stroke-width="2"/>
<path d="M1.01038 260.625H425.007" stroke="#C0DCFB" stroke-width="2"/>
<path d="M1.01038 302.031H425.007" stroke="#C0DCFB" stroke-width="2"/>
<path d="M1.01038 343.438H425.007" stroke="#C0DCFB" stroke-width="2"/>
<path d="M1.01038 384.844H425.007" stroke="#C0DCFB" stroke-width="2"/>
<path d="M1.01038 426.25H425.007" stroke="#C0DCFB" stroke-width="2"/>
<path d="M1.01038 467.656H425.007" stroke="#C0DCFB" stroke-width="2"/>
<path d="M1.01038 509.062H425.007" stroke="#C0DCFB" stroke-width="2"/>
<path d="M1.01038 550.469H425.007" stroke="#C0DCFB" stroke-width="2"/>
<path d="M1.01038 591.875H425.007" stroke="#C0DCFB" stroke-width="2"/>
<path d="M1.01038 633.281H425.007" stroke="#C0DCFB" stroke-width="2"/>
<path d="M1.01038 674.688H425.007" stroke="#C0DCFB" stroke-width="2"/>
<path d="M1.01038 716.094H425.007" stroke="#C0DCFB" stroke-width="2"/>
<path d="M1.01038 59.8191H425.007" stroke="#C0DCFB" stroke-width="2"/>
<path d="M1.01038 101.755H425.007" stroke="#C0DCFB" stroke-width="2"/>
<path d="M1.01038 143.161H425.007" stroke="#C0DCFB" stroke-width="2"/>
<path d="M1.01038 184.568H425.007" stroke="#C0DCFB" stroke-width="2"/>
<path d="M1.01038 225.974H425.007" stroke="#C0DCFB" stroke-width="2"/>
<path d="M1.01038 267.38H425.007" stroke="#C0DCFB" stroke-width="2"/>
<path d="M1.01038 308.786H425.007" stroke="#C0DCFB" stroke-width="2"/>
<path d="M1.01038 350.193H425.007" stroke="#C0DCFB" stroke-width="2"/>
<path d="M1.01038 391.599H425.007" stroke="#C0DCFB" stroke-width="2"/>
<path d="M1.01038 433.005H425.007" stroke="#C0DCFB" stroke-width="2"/>
<path d="M1.01038 474.411H425.007" stroke="#C0DCFB" stroke-width="2"/>
<path d="M1.01038 515.818H425.007" stroke="#C0DCFB" stroke-width="2"/>
<path d="M1.01038 557.224H425.007" stroke="#C0DCFB" stroke-width="2"/>
<path d="M1.01038 598.63H425.007" stroke="#C0DCFB" stroke-width="2"/>
<path d="M1.01038 640.037H425.007" stroke="#C0DCFB" stroke-width="2"/>
<path d="M1.01038 681.443H425.007" stroke="#C0DCFB" stroke-width="2"/>
<path d="M1.01038 722.849H425.007" stroke="#C0DCFB" stroke-width="2"/>
<path d="M1.01038 67.0117H425.007" stroke="#C0DCFB" stroke-width="2"/>
<path d="M1.01038 108.948H425.007" stroke="#C0DCFB" stroke-width="2"/>
<path d="M1.01038 150.354H425.007" stroke="#C0DCFB" stroke-width="2"/>
<path d="M1.01038 191.76H425.007" stroke="#C0DCFB" stroke-width="2"/>
<path d="M1.01038 233.167H425.007" stroke="#C0DCFB" stroke-width="2"/>
<path d="M1.01038 274.573H425.007" stroke="#C0DCFB" stroke-width="2"/>
<path d="M1.01038 315.979H425.007" stroke="#C0DCFB" stroke-width="2"/>
<path d="M1.01038 357.385H425.007" stroke="#C0DCFB" stroke-width="2"/>
<path d="M1.01038 398.792H425.007" stroke="#C0DCFB" stroke-width="2"/>
<path d="M1.01038 440.198H425.007" stroke="#C0DCFB" stroke-width="2"/>
<path d="M1.01038 481.604H425.007" stroke="#C0DCFB" stroke-width="2"/>
<path d="M1.01038 523.01H425.007" stroke="#C0DCFB" stroke-width="2"/>
<path d="M1.01038 564.417H425.007" stroke="#C0DCFB" stroke-width="2"/>
<path d="M1.01038 605.823H425.007" stroke="#C0DCFB" stroke-width="2"/>
<path d="M1.01038 647.229H425.007" stroke="#C0DCFB" stroke-width="2"/>
<path d="M1.01038 688.636H425.007" stroke="#C0DCFB" stroke-width="2"/>
<path d="M1.01038 730.042H425.007" stroke="#C0DCFB" stroke-width="2"/>
</g>
</svg>
