<svg width="448" height="732" viewBox="0 0 448 732" fill="none" xmlns="http://www.w3.org/2000/svg">
<g opacity="0.4">
<path d="M0.0109863 32.7986H447.007" stroke="#C0DCFB" stroke-width="2"/>
<path d="M0.0109863 25.6702H447.007" stroke="#C0DCFB" stroke-width="2"/>
<path d="M0.0109863 17.4468H447.007" stroke="#C0DCFB" stroke-width="2"/>
<path d="M0.0109863 9.22339H447.007" stroke="#C0DCFB" stroke-width="2"/>
<path d="M0.0109863 1H447.007" stroke="#C0DCFB" stroke-width="2"/>
<path d="M0.0109863 74.2048H447.007" stroke="#C0DCFB" stroke-width="2"/>
<path d="M0.0109863 116.141H447.007" stroke="#C0DCFB" stroke-width="2"/>
<path d="M0.0109863 157.547H447.007" stroke="#C0DCFB" stroke-width="2"/>
<path d="M0.0109863 198.953H447.007" stroke="#C0DCFB" stroke-width="2"/>
<path d="M0.0109863 240.36H447.007" stroke="#C0DCFB" stroke-width="2"/>
<path d="M0.0109863 281.766H447.007" stroke="#C0DCFB" stroke-width="2"/>
<path d="M0.0109863 323.172H447.007" stroke="#C0DCFB" stroke-width="2"/>
<path d="M0.0109863 364.578H447.007" stroke="#C0DCFB" stroke-width="2"/>
<path d="M0.0109863 405.985H447.007" stroke="#C0DCFB" stroke-width="2"/>
<path d="M0.0109863 447.391H447.007" stroke="#C0DCFB" stroke-width="2"/>
<path d="M0.0109863 488.797H447.007" stroke="#C0DCFB" stroke-width="2"/>
<path d="M0.0109863 530.204H447.007" stroke="#C0DCFB" stroke-width="2"/>
<path d="M0.0109863 571.61H447.007" stroke="#C0DCFB" stroke-width="2"/>
<path d="M0.0109863 613.016H447.007" stroke="#C0DCFB" stroke-width="2"/>
<path d="M0.0109863 654.422H447.007" stroke="#C0DCFB" stroke-width="2"/>
<path d="M0.0109863 695.829H447.007" stroke="#C0DCFB" stroke-width="2"/>
<path d="M0.0109863 39.5537H447.007" stroke="#C0DCFB" stroke-width="2"/>
<path d="M0.0109863 80.96H447.007" stroke="#C0DCFB" stroke-width="2"/>
<path d="M0.0109863 122.896H447.007" stroke="#C0DCFB" stroke-width="2"/>
<path d="M0.0109863 164.302H447.007" stroke="#C0DCFB" stroke-width="2"/>
<path d="M0.0109863 205.708H447.007" stroke="#C0DCFB" stroke-width="2"/>
<path d="M0.0109863 247.115H447.007" stroke="#C0DCFB" stroke-width="2"/>
<path d="M0.0109863 288.521H447.007" stroke="#C0DCFB" stroke-width="2"/>
<path d="M0.0109863 329.927H447.007" stroke="#C0DCFB" stroke-width="2"/>
<path d="M0.0109863 371.333H447.007" stroke="#C0DCFB" stroke-width="2"/>
<path d="M0.0109863 412.74H447.007" stroke="#C0DCFB" stroke-width="2"/>
<path d="M0.0109863 454.146H447.007" stroke="#C0DCFB" stroke-width="2"/>
<path d="M0.0109863 495.552H447.007" stroke="#C0DCFB" stroke-width="2"/>
<path d="M0.0109863 536.958H447.007" stroke="#C0DCFB" stroke-width="2"/>
<path d="M0.0109863 578.365H447.007" stroke="#C0DCFB" stroke-width="2"/>
<path d="M0.0109863 619.771H447.007" stroke="#C0DCFB" stroke-width="2"/>
<path d="M0.0109863 661.178H447.007" stroke="#C0DCFB" stroke-width="2"/>
<path d="M0.0109863 702.584H447.007" stroke="#C0DCFB" stroke-width="2"/>
<path d="M0.0109863 46.3088H447.007" stroke="#C0DCFB" stroke-width="2"/>
<path d="M0.0109863 87.7151H447.007" stroke="#C0DCFB" stroke-width="2"/>
<path d="M0.0109863 129.651H447.007" stroke="#C0DCFB" stroke-width="2"/>
<path d="M0.0109863 171.057H447.007" stroke="#C0DCFB" stroke-width="2"/>
<path d="M0.0109863 212.464H447.007" stroke="#C0DCFB" stroke-width="2"/>
<path d="M0.0109863 253.87H447.007" stroke="#C0DCFB" stroke-width="2"/>
<path d="M0.0109863 295.276H447.007" stroke="#C0DCFB" stroke-width="2"/>
<path d="M0.0109863 336.682H447.007" stroke="#C0DCFB" stroke-width="2"/>
<path d="M0.0109863 378.089H447.007" stroke="#C0DCFB" stroke-width="2"/>
<path d="M0.0109863 419.495H447.007" stroke="#C0DCFB" stroke-width="2"/>
<path d="M0.0109863 460.901H447.007" stroke="#C0DCFB" stroke-width="2"/>
<path d="M0.0109863 502.308H447.007" stroke="#C0DCFB" stroke-width="2"/>
<path d="M0.0109863 543.714H447.007" stroke="#C0DCFB" stroke-width="2"/>
<path d="M0.0109863 585.12H447.007" stroke="#C0DCFB" stroke-width="2"/>
<path d="M0.0109863 626.526H447.007" stroke="#C0DCFB" stroke-width="2"/>
<path d="M0.0109863 667.933H447.007" stroke="#C0DCFB" stroke-width="2"/>
<path d="M0.0109863 709.339H447.007" stroke="#C0DCFB" stroke-width="2"/>
<path d="M0.0109863 53.064H447.007" stroke="#C0DCFB" stroke-width="2"/>
<path d="M0.0109863 95H447.007" stroke="#C0DCFB" stroke-width="2"/>
<path d="M0.0109863 136.406H447.007" stroke="#C0DCFB" stroke-width="2"/>
<path d="M0.0109863 177.812H447.007" stroke="#C0DCFB" stroke-width="2"/>
<path d="M0.0109863 219.219H447.007" stroke="#C0DCFB" stroke-width="2"/>
<path d="M0.0109863 260.625H447.007" stroke="#C0DCFB" stroke-width="2"/>
<path d="M0.0109863 302.031H447.007" stroke="#C0DCFB" stroke-width="2"/>
<path d="M0.0109863 343.438H447.007" stroke="#C0DCFB" stroke-width="2"/>
<path d="M0.0109863 384.844H447.007" stroke="#C0DCFB" stroke-width="2"/>
<path d="M0.0109863 426.25H447.007" stroke="#C0DCFB" stroke-width="2"/>
<path d="M0.0109863 467.656H447.007" stroke="#C0DCFB" stroke-width="2"/>
<path d="M0.0109863 509.062H447.007" stroke="#C0DCFB" stroke-width="2"/>
<path d="M0.0109863 550.469H447.007" stroke="#C0DCFB" stroke-width="2"/>
<path d="M0.0109863 591.875H447.007" stroke="#C0DCFB" stroke-width="2"/>
<path d="M0.0109863 633.281H447.007" stroke="#C0DCFB" stroke-width="2"/>
<path d="M0.0109863 674.688H447.007" stroke="#C0DCFB" stroke-width="2"/>
<path d="M0.0109863 716.094H447.007" stroke="#C0DCFB" stroke-width="2"/>
<path d="M0.0109863 59.8191H447.007" stroke="#C0DCFB" stroke-width="2"/>
<path d="M0.0109863 101.755H447.007" stroke="#C0DCFB" stroke-width="2"/>
<path d="M0.0109863 143.161H447.007" stroke="#C0DCFB" stroke-width="2"/>
<path d="M0.0109863 184.568H447.007" stroke="#C0DCFB" stroke-width="2"/>
<path d="M0.0109863 225.974H447.007" stroke="#C0DCFB" stroke-width="2"/>
<path d="M0.0109863 267.38H447.007" stroke="#C0DCFB" stroke-width="2"/>
<path d="M0.0109863 308.786H447.007" stroke="#C0DCFB" stroke-width="2"/>
<path d="M0.0109863 350.193H447.007" stroke="#C0DCFB" stroke-width="2"/>
<path d="M0.0109863 391.599H447.007" stroke="#C0DCFB" stroke-width="2"/>
<path d="M0.0109863 433.005H447.007" stroke="#C0DCFB" stroke-width="2"/>
<path d="M0.0109863 474.411H447.007" stroke="#C0DCFB" stroke-width="2"/>
<path d="M0.0109863 515.818H447.007" stroke="#C0DCFB" stroke-width="2"/>
<path d="M0.0109863 557.224H447.007" stroke="#C0DCFB" stroke-width="2"/>
<path d="M0.0109863 598.63H447.007" stroke="#C0DCFB" stroke-width="2"/>
<path d="M0.0109863 640.037H447.007" stroke="#C0DCFB" stroke-width="2"/>
<path d="M0.0109863 681.443H447.007" stroke="#C0DCFB" stroke-width="2"/>
<path d="M0.0109863 722.849H447.007" stroke="#C0DCFB" stroke-width="2"/>
<path d="M0.0109863 67.0117H447.007" stroke="#C0DCFB" stroke-width="2"/>
<path d="M0.0109863 108.948H447.007" stroke="#C0DCFB" stroke-width="2"/>
<path d="M0.0109863 150.354H447.007" stroke="#C0DCFB" stroke-width="2"/>
<path d="M0.0109863 191.76H447.007" stroke="#C0DCFB" stroke-width="2"/>
<path d="M0.0109863 233.167H447.007" stroke="#C0DCFB" stroke-width="2"/>
<path d="M0.0109863 274.573H447.007" stroke="#C0DCFB" stroke-width="2"/>
<path d="M0.0109863 315.979H447.007" stroke="#C0DCFB" stroke-width="2"/>
<path d="M0.0109863 357.385H447.007" stroke="#C0DCFB" stroke-width="2"/>
<path d="M0.0109863 398.792H447.007" stroke="#C0DCFB" stroke-width="2"/>
<path d="M0.0109863 440.198H447.007" stroke="#C0DCFB" stroke-width="2"/>
<path d="M0.0109863 481.604H447.007" stroke="#C0DCFB" stroke-width="2"/>
<path d="M0.0109863 523.01H447.007" stroke="#C0DCFB" stroke-width="2"/>
<path d="M0.0109863 564.417H447.007" stroke="#C0DCFB" stroke-width="2"/>
<path d="M0.0109863 605.823H447.007" stroke="#C0DCFB" stroke-width="2"/>
<path d="M0.0109863 647.229H447.007" stroke="#C0DCFB" stroke-width="2"/>
<path d="M0.0109863 688.636H447.007" stroke="#C0DCFB" stroke-width="2"/>
<path d="M0.0109863 730.042H447.007" stroke="#C0DCFB" stroke-width="2"/>
</g>
</svg>
