<svg width="24" height="25" viewBox="0 0 24 25" fill="none" xmlns="http://www.w3.org/2000/svg">
<g clip-path="url(#clip0_3608_4355)">
<path d="M8.55 0.713388C9.11667 0.530054 9.68767 0.400721 10.263 0.325388C10.8383 0.250054 11.4173 0.212721 12 0.213388C13.5667 0.213388 15.046 0.492721 16.438 1.05139C17.83 1.61005 19.0633 2.38505 20.138 3.37639C21.2127 4.36772 22.0917 5.53439 22.775 6.87639C23.4583 8.21839 23.8667 9.66405 24 11.2134H22C21.8833 10.0134 21.5667 8.89239 21.05 7.85039C20.5333 6.80839 19.8707 5.89172 19.062 5.10039C18.254 4.30905 17.3253 3.66339 16.276 3.16339C15.2267 2.66339 14.1017 2.36339 12.901 2.26339L14.451 3.81339L13.051 5.21339L8.55 0.713388ZM15.45 23.7134C14.8833 23.8967 14.3127 24.0261 13.738 24.1014C13.1633 24.1767 12.584 24.2141 12 24.2134C10.4333 24.2134 8.954 23.9341 7.562 23.3754C6.17 22.8167 4.93667 22.0421 3.862 21.0514C2.78733 20.0594 1.90833 18.8927 1.225 17.5514C0.541667 16.2101 0.133333 14.7641 0 13.2134H2C2.13333 14.4134 2.45433 15.5344 2.963 16.5764C3.47167 17.6184 4.12967 18.5351 4.937 19.3264C5.74567 20.1177 6.67533 20.7634 7.726 21.2634C8.77667 21.7634 9.90167 22.0634 11.101 22.1634L9.55 20.6134L10.95 19.2134L15.45 23.7134Z" fill="black"/>
</g>
<defs>
<clipPath id="clip0_3608_4355">
<rect width="24" height="24" fill="white" transform="translate(0 0.213379)"/>
</clipPath>
</defs>
</svg>
