<svg width="76" height="84" viewBox="0 0 76 84" fill="none" xmlns="http://www.w3.org/2000/svg">
<path fill-rule="evenodd" clip-rule="evenodd" d="M5.65394 5.78224C0.807495 10.6245 0.807495 18.4235 0.807495 34.0173V50.5581C0.807495 66.1519 0.807495 73.9509 5.65394 78.7932C10.4963 83.6396 18.2952 83.6396 33.889 83.6396H42.1594C57.7532 83.6396 65.5522 83.6396 70.3945 78.7932C75.241 73.9509 75.241 66.1519 75.241 50.5581V34.0173C75.241 18.4235 75.241 10.6245 70.3945 5.78224C65.5522 0.935791 57.7532 0.935791 42.1594 0.935791H33.889C18.2952 0.935791 10.4963 0.935791 5.65394 5.78224ZM18.3821 25.7469C18.3821 24.9244 18.7088 24.1356 19.2904 23.5539C19.8721 22.9723 20.6609 22.6456 21.4835 22.6456H54.565C55.3875 22.6456 56.1764 22.9723 56.758 23.5539C57.3396 24.1356 57.6664 24.9244 57.6664 25.7469C57.6664 26.5695 57.3396 27.3583 56.758 27.94C56.1764 28.5216 55.3875 28.8483 54.565 28.8483H21.4835C20.6609 28.8483 19.8721 28.5216 19.2904 27.94C18.7088 27.3583 18.3821 26.5695 18.3821 25.7469ZM18.3821 42.2877C18.3821 41.4652 18.7088 40.6763 19.2904 40.0947C19.8721 39.5131 20.6609 39.1863 21.4835 39.1863H54.565C55.3875 39.1863 56.1764 39.5131 56.758 40.0947C57.3396 40.6763 57.6664 41.4652 57.6664 42.2877C57.6664 43.1103 57.3396 43.8991 56.758 44.4807C56.1764 45.0624 55.3875 45.3891 54.565 45.3891H21.4835C20.6609 45.3891 19.8721 45.0624 19.2904 44.4807C18.7088 43.8991 18.3821 43.1103 18.3821 42.2877ZM21.4835 55.7271C20.6609 55.7271 19.8721 56.0539 19.2904 56.6355C18.7088 57.2171 18.3821 58.006 18.3821 58.8285C18.3821 59.651 18.7088 60.4399 19.2904 61.0215C19.8721 61.6031 20.6609 61.9299 21.4835 61.9299H42.1594C42.982 61.9299 43.7708 61.6031 44.3524 61.0215C44.9341 60.4399 45.2608 59.651 45.2608 58.8285C45.2608 58.006 44.9341 57.2171 44.3524 56.6355C43.7708 56.0539 42.982 55.7271 42.1594 55.7271H21.4835Z" fill="#DD2025"/>
</svg>
